<?xml version="1.0" encoding="UTF-8" standalone="no"?>
<!DOCTYPE svg PUBLIC "-//W3C//DTD SVG 1.1//EN"
 "http://www.w3.org/Graphics/SVG/1.1/DTD/svg11.dtd">
<!-- Generated by graphviz version 2.50.0 (20211204.2007)
 -->
<!-- Title: G Pages: 1 -->
<svg width="1167pt" height="505pt"
 viewBox="0.00 0.00 1167.00 504.85" xmlns="http://www.w3.org/2000/svg" xmlns:xlink="http://www.w3.org/1999/xlink">
<g id="graph0" class="graph" transform="scale(1 1) rotate(0) translate(4 500.85)">
<title>G</title><style>.edge>path:hover{stroke-width:8}</style>
<polygon fill="white" stroke="transparent" points="-4,4 -4,-500.85 1163,-500.85 1163,4 -4,4"/>
<g id="clust3" class="cluster">
<title>cluster_plugins</title><style>.edge>path:hover{stroke-width:8}</style>
<polygon fill="none" stroke="black" points="812,-8 812,-236.64 942,-236.64 942,-8 812,-8"/>
<text text-anchor="middle" x="877" y="-221.44" font-family="Times New Roman,serif" font-size="14.00">plugins</text>
</g>
<g id="clust4" class="cluster">
<title>cluster_services</title><style>.edge>path:hover{stroke-width:8}</style>
<polygon fill="none" stroke="black" points="260,-158.43 260,-322.85 648,-322.85 648,-158.43 260,-158.43"/>
<text text-anchor="middle" x="454" y="-307.65" font-family="Times New Roman,serif" font-size="14.00">services</text>
</g>
<g id="clust1" class="cluster">
<title>cluster_data</title><style>.edge>path:hover{stroke-width:8}</style>
<polygon fill="none" stroke="black" points="8,-413.85 8,-488.85 256,-488.85 256,-413.85 8,-413.85"/>
<text text-anchor="middle" x="132" y="-473.65" font-family="Times New Roman,serif" font-size="14.00">data</text>
</g>
<g id="clust2" class="cluster">
<title>cluster_numpy</title><style>.edge>path:hover{stroke-width:8}</style>
<polygon fill="none" stroke="black" points="1081,-330.85 1081,-405.85 1151,-405.85 1151,-330.85 1081,-330.85"/>
<text text-anchor="middle" x="1116" y="-390.65" font-family="Times New Roman,serif" font-size="14.00">numpy</text>
</g>
<g id="clust5" class="cluster">
<title>cluster_utils</title><style>.edge>path:hover{stroke-width:8}</style>
<polygon fill="none" stroke="black" points="656,-244.64 656,-405.85 1073,-405.85 1073,-244.64 656,-244.64"/>
<text text-anchor="middle" x="864.5" y="-390.65" font-family="Times New Roman,serif" font-size="14.00">utils</text>
</g>
<!-- data -->
<g id="node1" class="node">
<title>data</title><style>.edge>path:hover{stroke-width:8}</style>
<ellipse fill="#c24747" stroke="black" cx="221" cy="-439.85" rx="27" ry="18"/>
<text text-anchor="middle" x="221" y="-437.35" font-family="Helvetica,sans-Serif" font-size="10.00" fill="#ffffff">data</text>
</g>
<!-- plugins_envm_envm -->
<g id="node6" class="node">
<title>plugins_envm_envm</title><style>.edge>path:hover{stroke-width:8}</style>
<ellipse fill="#2e6b46" stroke="black" cx="858" cy="-34" rx="38.03" ry="18"/>
<text text-anchor="middle" x="858" y="-31.5" font-family="Helvetica,sans-Serif" font-size="10.00" fill="#ffffff">envm.envm</text>
</g>
<!-- data&#45;&gt;plugins_envm_envm -->
<g id="edge1" class="edge">
<title>data&#45;&gt;plugins_envm_envm</title><style>.edge>path:hover{stroke-width:8}</style>
<path fill="none" stroke="black" d="M216.37,-413.86C210.75,-381.25 202,-322.39 202,-271.64 202,-271.64 202,-271.64 202,-186.64 202,-62.07 656.71,-39.81 808.98,-35.85"/>
<polygon fill="#000000" stroke="black" points="802.33,-39.93 812,-35.6 801.74,-32.95 802.33,-39.93"/>
</g>
<!-- services_global_error_handler_global_error_handler -->
<g id="node11" class="node">
<title>services_global_error_handler_global_error_handler</title><style>.edge>path:hover{stroke-width:8}</style>
<ellipse fill="#406296" stroke="black" cx="344" cy="-187.64" rx="75.82" ry="21.43"/>
<text text-anchor="middle" x="344" y="-190.64" font-family="Helvetica,sans-Serif" font-size="10.00" fill="#ffffff">global_error_handler.</text>
<text text-anchor="middle" x="344" y="-179.64" font-family="Helvetica,sans-Serif" font-size="10.00" fill="#ffffff">global_error_handler</text>
</g>
<!-- data&#45;&gt;services_global_error_handler_global_error_handler -->
<g id="edge2" class="edge">
<title>data&#45;&gt;services_global_error_handler_global_error_handler</title><style>.edge>path:hover{stroke-width:8}</style>
<path fill="none" stroke="black" d="M219.97,-413.86C219.59,-376.54 223.42,-305.04 254.59,-251.81"/>
<polygon fill="#000000" stroke="black" points="257.66,-253.51 260,-243.18 251.73,-249.79 257.66,-253.51"/>
</g>
<!-- data_register -->
<g id="node2" class="node">
<title>data_register</title><style>.edge>path:hover{stroke-width:8}</style>
<ellipse fill="#b65353" stroke="black" cx="147" cy="-439.85" rx="28.69" ry="18"/>
<text text-anchor="middle" x="147" y="-437.35" font-family="Helvetica,sans-Serif" font-size="10.00" fill="#ffffff">register</text>
</g>
<!-- data_verbal_const -->
<g id="node3" class="node">
<title>data_verbal_const</title><style>.edge>path:hover{stroke-width:8}</style>
<ellipse fill="#b65353" stroke="black" cx="58" cy="-439.85" rx="41.59" ry="18"/>
<text text-anchor="middle" x="58" y="-437.35" font-family="Helvetica,sans-Serif" font-size="10.00" fill="#ffffff">verbal_const</text>
</g>
<!-- numpy -->
<g id="node4" class="node">
<title>numpy</title><style>.edge>path:hover{stroke-width:8}</style>
<ellipse fill="#a2b653" stroke="black" cx="1116" cy="-356.85" rx="27.16" ry="18"/>
<text text-anchor="middle" x="1116" y="-354.35" font-family="Helvetica,sans-Serif" font-size="10.00" fill="#000000">numpy</text>
</g>
<!-- plugins_envm_sunposition -->
<g id="node7" class="node">
<title>plugins_envm_sunposition</title><style>.edge>path:hover{stroke-width:8}</style>
<ellipse fill="#40c073" stroke="black" cx="887" cy="-109.21" rx="46.84" ry="21.43"/>
<text text-anchor="middle" x="887" y="-112.21" font-family="Helvetica,sans-Serif" font-size="10.00" fill="#000000">envm.</text>
<text text-anchor="middle" x="887" y="-101.21" font-family="Helvetica,sans-Serif" font-size="10.00" fill="#000000">sunposition</text>
</g>
<!-- numpy&#45;&gt;plugins_envm_sunposition -->
<g id="edge3" class="edge">
<title>numpy&#45;&gt;plugins_envm_sunposition</title><style>.edge>path:hover{stroke-width:8}</style>
<path fill="none" stroke="black" d="M1111.8,-330.86C1106.78,-306.84 1096.49,-270.48 1077,-244.64 1043.8,-200.61 992,-165.33 950.87,-141.97"/>
<polygon fill="#000000" stroke="black" points="952.44,-138.84 942,-137.02 949.03,-144.95 952.44,-138.84"/>
</g>
<!-- plugins_base_plugin -->
<g id="node5" class="node">
<title>plugins_base_plugin</title><style>.edge>path:hover{stroke-width:8}</style>
<ellipse fill="#46a46c" stroke="black" cx="871" cy="-187.64" rx="40.06" ry="18"/>
<text text-anchor="middle" x="871" y="-185.14" font-family="Helvetica,sans-Serif" font-size="10.00" fill="#000000">base_plugin</text>
</g>
<!-- plugins_base_plugin&#45;&gt;plugins_envm_envm -->
<g id="edge4" class="edge">
<title>plugins_base_plugin&#45;&gt;plugins_envm_envm</title><style>.edge>path:hover{stroke-width:8}</style>
<path fill="none" stroke="black" d="M855.73,-170.92C846.61,-160.4 835.88,-145.72 831,-130.43 825.26,-112.46 826.6,-106.34 831,-88 833.28,-78.52 837.55,-68.82 842.03,-60.35"/>
<polygon fill="#000000" stroke="black" points="845.22,-61.82 847.09,-51.39 839.13,-58.38 845.22,-61.82"/>
</g>
<!-- plugins_envm_sunposition&#45;&gt;plugins_envm_envm -->
<g id="edge5" class="edge">
<title>plugins_envm_sunposition&#45;&gt;plugins_envm_envm</title><style>.edge>path:hover{stroke-width:8}</style>
<path fill="none" stroke="black" d="M879.08,-88.21C875.81,-79.96 871.98,-70.29 868.49,-61.48"/>
<polygon fill="#000000" stroke="black" points="871.67,-60.01 864.74,-52 865.16,-62.59 871.67,-60.01"/>
</g>
<!-- services -->
<g id="node8" class="node">
<title>services</title><style>.edge>path:hover{stroke-width:8}</style>
<ellipse fill="#4778c2" stroke="black" cx="609" cy="-270.64" rx="30.72" ry="18"/>
<text text-anchor="middle" x="609" y="-268.14" font-family="Helvetica,sans-Serif" font-size="10.00" fill="#ffffff">services</text>
</g>
<!-- services&#45;&gt;plugins_envm_envm -->
<g id="edge6" class="edge">
<title>services&#45;&gt;plugins_envm_envm</title><style>.edge>path:hover{stroke-width:8}</style>
<path fill="none" stroke="black" d="M648,-232.89C690.1,-193.21 757.44,-129.76 804.48,-85.43"/>
<polygon fill="#000000" stroke="black" points="807.13,-87.75 812,-78.34 802.33,-82.65 807.13,-87.75"/>
</g>
<!-- services_global_error_handler -->
<g id="node9" class="node">
<title>services_global_error_handler</title><style>.edge>path:hover{stroke-width:8}</style>
<ellipse fill="#4778c2" stroke="black" cx="499" cy="-270.64" rx="61.44" ry="18"/>
<text text-anchor="middle" x="499" y="-268.14" font-family="Helvetica,sans-Serif" font-size="10.00" fill="#ffffff">global_error_handler</text>
</g>
<!-- services_global_error_handler_error_codes -->
<g id="node10" class="node">
<title>services_global_error_handler_error_codes</title><style>.edge>path:hover{stroke-width:8}</style>
<ellipse fill="#537bb6" stroke="black" cx="344" cy="-270.64" rx="75.82" ry="21.43"/>
<text text-anchor="middle" x="344" y="-273.64" font-family="Helvetica,sans-Serif" font-size="10.00" fill="#ffffff">global_error_handler.</text>
<text text-anchor="middle" x="344" y="-262.64" font-family="Helvetica,sans-Serif" font-size="10.00" fill="#ffffff">error_codes</text>
</g>
<!-- services_global_error_handler_error_codes&#45;&gt;services_global_error_handler_global_error_handler -->
<g id="edge7" class="edge">
<title>services_global_error_handler_error_codes&#45;&gt;services_global_error_handler_global_error_handler</title><style>.edge>path:hover{stroke-width:8}</style>
<path fill="none" stroke="black" d="M344,-249.2C344,-240.09 344,-229.16 344,-219.11"/>
<polygon fill="#000000" stroke="black" points="347.5,-219.07 344,-209.07 340.5,-219.07 347.5,-219.07"/>
</g>
<!-- utils -->
<g id="node12" class="node">
<title>utils</title><style>.edge>path:hover{stroke-width:8}</style>
<ellipse fill="#b13bce" stroke="black" cx="1038" cy="-356.85" rx="27" ry="18"/>
<text text-anchor="middle" x="1038" y="-354.35" font-family="Helvetica,sans-Serif" font-size="10.00" fill="#ffffff">utils</text>
</g>
<!-- utils&#45;&gt;plugins_base_plugin -->
<g id="edge8" class="edge">
<title>utils&#45;&gt;plugins_base_plugin</title><style>.edge>path:hover{stroke-width:8}</style>
<path fill="none" stroke="black" d="M926.93,-244.64C926.66,-244.37 926.4,-244.11 926.13,-243.84"/>
<polygon fill="#000000" stroke="black" points="928.48,-241.24 918.94,-236.64 923.53,-246.19 928.48,-241.24"/>
</g>
<!-- utils_configuarable -->
<g id="node13" class="node">
<title>utils_configuarable</title><style>.edge>path:hover{stroke-width:8}</style>
<ellipse fill="#a253b6" stroke="black" cx="949" cy="-356.85" rx="43.62" ry="18"/>
<text text-anchor="middle" x="949" y="-354.35" font-family="Helvetica,sans-Serif" font-size="10.00" fill="#ffffff">configuarable</text>
</g>
<!-- utils_logger -->
<g id="node14" class="node">
<title>utils_logger</title><style>.edge>path:hover{stroke-width:8}</style>
<ellipse fill="#9f3db8" stroke="black" cx="694" cy="-270.64" rx="27" ry="18"/>
<text text-anchor="middle" x="694" y="-268.14" font-family="Helvetica,sans-Serif" font-size="10.00" fill="#ffffff">logger</text>
</g>
<!-- utils_logic -->
<g id="node15" class="node">
<title>utils_logic</title><style>.edge>path:hover{stroke-width:8}</style>
<ellipse fill="#a253b6" stroke="black" cx="860" cy="-356.85" rx="27" ry="18"/>
<text text-anchor="middle" x="860" y="-354.35" font-family="Helvetica,sans-Serif" font-size="10.00" fill="#ffffff">logic</text>
</g>
<!-- utils_logic_timer -->
<g id="node16" class="node">
<title>utils_logic_timer</title><style>.edge>path:hover{stroke-width:8}</style>
<ellipse fill="#a253b6" stroke="black" cx="779" cy="-356.85" rx="36.49" ry="18"/>
<text text-anchor="middle" x="779" y="-354.35" font-family="Helvetica,sans-Serif" font-size="10.00" fill="#ffffff">logic.timer</text>
</g>
<!-- utils_settings -->
<g id="node17" class="node">
<title>utils_settings</title><style>.edge>path:hover{stroke-width:8}</style>
<ellipse fill="#a253b6" stroke="black" cx="694" cy="-356.85" rx="30.04" ry="18"/>
<text text-anchor="middle" x="694" y="-354.35" font-family="Helvetica,sans-Serif" font-size="10.00" fill="#ffffff">settings</text>
</g>
<!-- utils_settings&#45;&gt;utils_logger -->
<g id="edge9" class="edge">
<title>utils_settings&#45;&gt;utils_logger</title><style>.edge>path:hover{stroke-width:8}</style>
<path fill="none" stroke="black" d="M694,-338.81C694,-327.4 694,-312.12 694,-299.02"/>
<polygon fill="#000000" stroke="black" points="697.5,-298.66 694,-288.66 690.5,-298.66 697.5,-298.66"/>
</g>
</g>
</svg>
