<?xml version="1.0" encoding="UTF-8" standalone="no"?>
<!DOCTYPE svg PUBLIC "-//W3C//DTD SVG 1.1//EN"
 "http://www.w3.org/Graphics/SVG/1.1/DTD/svg11.dtd">
<!-- Generated by graphviz version 2.50.0 (20211204.2007)
 -->
<!-- Title: G Pages: 1 -->
<svg width="1224pt" height="481pt"
 viewBox="0.00 0.00 1224.48 480.62" xmlns="http://www.w3.org/2000/svg" xmlns:xlink="http://www.w3.org/1999/xlink">
<g id="graph0" class="graph" transform="scale(1 1) rotate(0) translate(4 476.62)">
<title>G</title><style>.edge>path:hover{stroke-width:8}</style>
<polygon fill="white" stroke="transparent" points="-4,4 -4,-476.62 1220.48,-476.62 1220.48,4 -4,4"/>
<g id="clust3" class="cluster">
<title>cluster_plugins</title><style>.edge>path:hover{stroke-width:8}</style>
<polygon fill="none" stroke="black" points="468.48,-8 468.48,-195.21 564.48,-195.21 564.48,-8 468.48,-8"/>
<text text-anchor="middle" x="516.48" y="-180.01" font-family="Times New Roman,serif" font-size="14.00">plugins</text>
</g>
<g id="clust1" class="cluster">
<title>cluster_data</title><style>.edge>path:hover{stroke-width:8}</style>
<polygon fill="none" stroke="black" points="116.48,-389.62 116.48,-464.62 364.48,-464.62 364.48,-389.62 116.48,-389.62"/>
<text text-anchor="middle" x="240.48" y="-449.42" font-family="Times New Roman,serif" font-size="14.00">data</text>
</g>
<g id="clust4" class="cluster">
<title>cluster_services</title><style>.edge>path:hover{stroke-width:8}</style>
<polygon fill="none" stroke="black" points="18.48,-117 18.48,-292.42 406.48,-292.42 406.48,-117 18.48,-117"/>
<text text-anchor="middle" x="212.48" y="-277.22" font-family="Times New Roman,serif" font-size="14.00">services</text>
</g>
<g id="clust2" class="cluster">
<title>cluster_devices</title><style>.edge>path:hover{stroke-width:8}</style>
<polygon fill="none" stroke="black" points="969.48,-203.21 969.48,-300.2 1208.48,-300.2 1208.48,-203.21 969.48,-203.21"/>
<text text-anchor="middle" x="1088.98" y="-285" font-family="Times New Roman,serif" font-size="14.00">devices</text>
</g>
<g id="clust5" class="cluster">
<title>cluster_utils</title><style>.edge>path:hover{stroke-width:8}</style>
<polygon fill="none" stroke="black" points="446.48,-214.2 446.48,-381.62 961.48,-381.62 961.48,-214.2 446.48,-214.2"/>
<text text-anchor="middle" x="703.98" y="-366.42" font-family="Times New Roman,serif" font-size="14.00">utils</text>
</g>
<!-- data -->
<g id="node1" class="node">
<title>data</title><style>.edge>path:hover{stroke-width:8}</style>
<ellipse fill="#c24747" stroke="black" cx="329.48" cy="-415.62" rx="27" ry="18"/>
<text text-anchor="middle" x="329.48" y="-413.12" font-family="Helvetica,sans-Serif" font-size="10.00" fill="#ffffff">data</text>
</g>
<!-- plugins_light_light -->
<g id="node7" class="node">
<title>plugins_light_light</title><style>.edge>path:hover{stroke-width:8}</style>
<ellipse fill="#2e6b46" stroke="black" cx="512.48" cy="-34" rx="32.93" ry="18"/>
<text text-anchor="middle" x="512.48" y="-31.5" font-family="Helvetica,sans-Serif" font-size="10.00" fill="#ffffff">light.light</text>
</g>
<!-- data&#45;&gt;plugins_light_light -->
<g id="edge1" class="edge">
<title>data&#45;&gt;plugins_light_light</title><style>.edge>path:hover{stroke-width:8}</style>
<path fill="none" stroke="black" d="M354.32,-389.62C383.06,-357.94 426.48,-300.29 426.48,-241.2 426.48,-241.2 426.48,-241.2 426.48,-145.21 426.48,-118.21 442.72,-93.86 461.09,-74.96"/>
<polygon fill="#000000" stroke="black" points="463.78,-77.23 468.48,-67.73 458.88,-72.22 463.78,-77.23"/>
</g>
<!-- services_global_error_handler_global_error_handler -->
<g id="node11" class="node">
<title>services_global_error_handler_global_error_handler</title><style>.edge>path:hover{stroke-width:8}</style>
<ellipse fill="#406296" stroke="black" cx="102.48" cy="-146.21" rx="75.82" ry="21.43"/>
<text text-anchor="middle" x="102.48" y="-149.21" font-family="Helvetica,sans-Serif" font-size="10.00" fill="#ffffff">global_error_handler.</text>
<text text-anchor="middle" x="102.48" y="-138.21" font-family="Helvetica,sans-Serif" font-size="10.00" fill="#ffffff">global_error_handler</text>
</g>
<!-- data&#45;&gt;services_global_error_handler_global_error_handler -->
<g id="edge2" class="edge">
<title>data&#45;&gt;services_global_error_handler_global_error_handler</title><style>.edge>path:hover{stroke-width:8}</style>
<path fill="none" stroke="black" d="M293.48,-389.62C177.95,-332.36 93.31,-404.48 17.48,-300.2 -5.89,-268.06 -3.55,-245 13.76,-210.46"/>
<polygon fill="#000000" stroke="black" points="16.96,-211.91 18.48,-201.42 10.75,-208.67 16.96,-211.91"/>
</g>
<!-- data_register -->
<g id="node2" class="node">
<title>data_register</title><style>.edge>path:hover{stroke-width:8}</style>
<ellipse fill="#b65353" stroke="black" cx="255.48" cy="-415.62" rx="28.69" ry="18"/>
<text text-anchor="middle" x="255.48" y="-413.12" font-family="Helvetica,sans-Serif" font-size="10.00" fill="#ffffff">register</text>
</g>
<!-- data_verbal_const -->
<g id="node3" class="node">
<title>data_verbal_const</title><style>.edge>path:hover{stroke-width:8}</style>
<ellipse fill="#b65353" stroke="black" cx="166.48" cy="-415.62" rx="41.59" ry="18"/>
<text text-anchor="middle" x="166.48" y="-413.12" font-family="Helvetica,sans-Serif" font-size="10.00" fill="#ffffff">verbal_const</text>
</g>
<!-- devices -->
<g id="node4" class="node">
<title>devices</title><style>.edge>path:hover{stroke-width:8}</style>
<ellipse fill="#a2b653" stroke="black" cx="1171.48" cy="-240.2" rx="28.69" ry="18"/>
<text text-anchor="middle" x="1171.48" y="-237.7" font-family="Helvetica,sans-Serif" font-size="10.00" fill="#000000">devices</text>
</g>
<!-- devices&#45;&gt;plugins_light_light -->
<g id="edge3" class="edge">
<title>devices&#45;&gt;plugins_light_light</title><style>.edge>path:hover{stroke-width:8}</style>
<path fill="none" stroke="black" d="M1134.48,-203.21C947.84,-96.88 691.25,-55.43 574.65,-41.34"/>
<polygon fill="#000000" stroke="black" points="574.82,-37.84 564.48,-40.14 574,-44.79 574.82,-37.84"/>
</g>
<!-- devices_factories_light_sensor_light_sensor_factory -->
<g id="node5" class="node">
<title>devices_factories_light_sensor_light_sensor_factory</title><style>.edge>path:hover{stroke-width:8}</style>
<ellipse fill="#a2b653" stroke="black" cx="1051.48" cy="-240.2" rx="73.58" ry="28.98"/>
<text text-anchor="middle" x="1051.48" y="-248.7" font-family="Helvetica,sans-Serif" font-size="10.00" fill="#000000">factories.</text>
<text text-anchor="middle" x="1051.48" y="-237.7" font-family="Helvetica,sans-Serif" font-size="10.00" fill="#000000">light_sensor.</text>
<text text-anchor="middle" x="1051.48" y="-226.7" font-family="Helvetica,sans-Serif" font-size="10.00" fill="#000000">light_sensor_factory</text>
</g>
<!-- plugins_base_plugin -->
<g id="node6" class="node">
<title>plugins_base_plugin</title><style>.edge>path:hover{stroke-width:8}</style>
<ellipse fill="#46a46c" stroke="black" cx="516.48" cy="-146.21" rx="40.06" ry="18"/>
<text text-anchor="middle" x="516.48" y="-143.71" font-family="Helvetica,sans-Serif" font-size="10.00" fill="#000000">base_plugin</text>
</g>
<!-- plugins_base_plugin&#45;&gt;plugins_light_light -->
<g id="edge4" class="edge">
<title>plugins_base_plugin&#45;&gt;plugins_light_light</title><style>.edge>path:hover{stroke-width:8}</style>
<path fill="none" stroke="black" d="M515.85,-127.99C515.21,-110.36 514.21,-82.7 513.46,-62.12"/>
<polygon fill="#000000" stroke="black" points="516.96,-61.97 513.1,-52.1 509.96,-62.22 516.96,-61.97"/>
</g>
<!-- services -->
<g id="node8" class="node">
<title>services</title><style>.edge>path:hover{stroke-width:8}</style>
<ellipse fill="#4778c2" stroke="black" cx="367.48" cy="-240.2" rx="30.72" ry="18"/>
<text text-anchor="middle" x="367.48" y="-237.7" font-family="Helvetica,sans-Serif" font-size="10.00" fill="#ffffff">services</text>
</g>
<!-- services&#45;&gt;plugins_light_light -->
<g id="edge5" class="edge">
<title>services&#45;&gt;plugins_light_light</title><style>.edge>path:hover{stroke-width:8}</style>
<path fill="none" stroke="black" d="M394.22,-117C399.28,-106.61 405.31,-96.75 412.48,-88 424.68,-73.11 442.18,-61.85 459.15,-53.63"/>
<polygon fill="#000000" stroke="black" points="460.84,-56.71 468.48,-49.37 457.93,-50.34 460.84,-56.71"/>
</g>
<!-- services_global_error_handler -->
<g id="node9" class="node">
<title>services_global_error_handler</title><style>.edge>path:hover{stroke-width:8}</style>
<ellipse fill="#4778c2" stroke="black" cx="257.48" cy="-240.2" rx="61.44" ry="18"/>
<text text-anchor="middle" x="257.48" y="-237.7" font-family="Helvetica,sans-Serif" font-size="10.00" fill="#ffffff">global_error_handler</text>
</g>
<!-- services_global_error_handler_error_codes -->
<g id="node10" class="node">
<title>services_global_error_handler_error_codes</title><style>.edge>path:hover{stroke-width:8}</style>
<ellipse fill="#537bb6" stroke="black" cx="102.48" cy="-240.2" rx="75.82" ry="21.43"/>
<text text-anchor="middle" x="102.48" y="-243.2" font-family="Helvetica,sans-Serif" font-size="10.00" fill="#ffffff">global_error_handler.</text>
<text text-anchor="middle" x="102.48" y="-232.2" font-family="Helvetica,sans-Serif" font-size="10.00" fill="#ffffff">error_codes</text>
</g>
<!-- services_global_error_handler_error_codes&#45;&gt;services_global_error_handler_global_error_handler -->
<g id="edge6" class="edge">
<title>services_global_error_handler_error_codes&#45;&gt;services_global_error_handler_global_error_handler</title><style>.edge>path:hover{stroke-width:8}</style>
<path fill="none" stroke="black" d="M102.48,-218.79C102.48,-206.76 102.48,-191.31 102.48,-177.84"/>
<polygon fill="#000000" stroke="black" points="105.98,-177.57 102.48,-167.57 98.98,-177.57 105.98,-177.57"/>
</g>
<!-- utils -->
<g id="node12" class="node">
<title>utils</title><style>.edge>path:hover{stroke-width:8}</style>
<ellipse fill="#b13bce" stroke="black" cx="926.48" cy="-329.41" rx="27" ry="18"/>
<text text-anchor="middle" x="926.48" y="-326.91" font-family="Helvetica,sans-Serif" font-size="10.00" fill="#ffffff">utils</text>
</g>
<!-- utils&#45;&gt;plugins_base_plugin -->
<g id="edge7" class="edge">
<title>utils&#45;&gt;plugins_base_plugin</title><style>.edge>path:hover{stroke-width:8}</style>
<path fill="none" stroke="black" d="M682.38,-214.21C640.65,-196.63 602.97,-181.34 574.11,-169.82"/>
<polygon fill="#000000" stroke="black" points="575.06,-166.43 564.48,-165.99 572.47,-172.94 575.06,-166.43"/>
</g>
<!-- utils_configuarable -->
<g id="node13" class="node">
<title>utils_configuarable</title><style>.edge>path:hover{stroke-width:8}</style>
<ellipse fill="#a253b6" stroke="black" cx="837.48" cy="-329.41" rx="43.62" ry="18"/>
<text text-anchor="middle" x="837.48" y="-326.91" font-family="Helvetica,sans-Serif" font-size="10.00" fill="#ffffff">configuarable</text>
</g>
<!-- utils_logger -->
<g id="node14" class="node">
<title>utils_logger</title><style>.edge>path:hover{stroke-width:8}</style>
<ellipse fill="#9f3db8" stroke="black" cx="484.48" cy="-240.2" rx="27" ry="18"/>
<text text-anchor="middle" x="484.48" y="-237.7" font-family="Helvetica,sans-Serif" font-size="10.00" fill="#ffffff">logger</text>
</g>
<!-- utils_logic -->
<g id="node15" class="node">
<title>utils_logic</title><style>.edge>path:hover{stroke-width:8}</style>
<ellipse fill="#a253b6" stroke="black" cx="748.48" cy="-329.41" rx="27" ry="18"/>
<text text-anchor="middle" x="748.48" y="-326.91" font-family="Helvetica,sans-Serif" font-size="10.00" fill="#ffffff">logic</text>
</g>
<!-- utils_logic_functions -->
<g id="node16" class="node">
<title>utils_logic_functions</title><style>.edge>path:hover{stroke-width:8}</style>
<ellipse fill="#a253b6" stroke="black" cx="663.48" cy="-329.41" rx="39.7" ry="21.43"/>
<text text-anchor="middle" x="663.48" y="-332.41" font-family="Helvetica,sans-Serif" font-size="10.00" fill="#ffffff">logic.</text>
<text text-anchor="middle" x="663.48" y="-321.41" font-family="Helvetica,sans-Serif" font-size="10.00" fill="#ffffff">functions</text>
</g>
<!-- utils_logic_timer -->
<g id="node17" class="node">
<title>utils_logic_timer</title><style>.edge>path:hover{stroke-width:8}</style>
<ellipse fill="#a253b6" stroke="black" cx="569.48" cy="-329.41" rx="36.49" ry="18"/>
<text text-anchor="middle" x="569.48" y="-326.91" font-family="Helvetica,sans-Serif" font-size="10.00" fill="#ffffff">logic.timer</text>
</g>
<!-- utils_settings -->
<g id="node18" class="node">
<title>utils_settings</title><style>.edge>path:hover{stroke-width:8}</style>
<ellipse fill="#a253b6" stroke="black" cx="484.48" cy="-329.41" rx="30.04" ry="18"/>
<text text-anchor="middle" x="484.48" y="-326.91" font-family="Helvetica,sans-Serif" font-size="10.00" fill="#ffffff">settings</text>
</g>
<!-- utils_settings&#45;&gt;utils_logger -->
<g id="edge8" class="edge">
<title>utils_settings&#45;&gt;utils_logger</title><style>.edge>path:hover{stroke-width:8}</style>
<path fill="none" stroke="black" d="M484.48,-311.18C484.48,-299 484.48,-282.41 484.48,-268.45"/>
<polygon fill="#000000" stroke="black" points="487.98,-268.4 484.48,-258.4 480.98,-268.4 487.98,-268.4"/>
</g>
</g>
</svg>
