<?xml version="1.0" encoding="UTF-8" standalone="no"?>
<!DOCTYPE svg PUBLIC "-//W3C//DTD SVG 1.1//EN"
 "http://www.w3.org/Graphics/SVG/1.1/DTD/svg11.dtd">
<!-- Generated by graphviz version 2.50.0 (20211204.2007)
 -->
<!-- Title: G Pages: 1 -->
<svg width="476pt" height="369pt"
 viewBox="0.00 0.00 476.00 369.43" xmlns="http://www.w3.org/2000/svg" xmlns:xlink="http://www.w3.org/1999/xlink">
<g id="graph0" class="graph" transform="scale(1 1) rotate(0) translate(4 365.43)">
<title>G</title><style>.edge>path:hover{stroke-width:8}</style>
<polygon fill="white" stroke="transparent" points="-4,4 -4,-365.43 472,-365.43 472,4 -4,4"/>
<g id="clust2" class="cluster">
<title>cluster_utils</title><style>.edge>path:hover{stroke-width:8}</style>
<polygon fill="none" stroke="black" points="8,-206.43 8,-353.43 425,-353.43 425,-206.43 8,-206.43"/>
<text text-anchor="middle" x="216.5" y="-338.23" font-family="Times New Roman,serif" font-size="14.00">utils</text>
</g>
<g id="clust1" class="cluster">
<title>cluster_plugins</title><style>.edge>path:hover{stroke-width:8}</style>
<polygon fill="none" stroke="black" points="320,-8 320,-198.43 460,-198.43 460,-8 320,-8"/>
<text text-anchor="middle" x="390" y="-183.23" font-family="Times New Roman,serif" font-size="14.00">plugins</text>
</g>
<!-- plugins_base_plugin -->
<g id="node1" class="node">
<title>plugins_base_plugin</title><style>.edge>path:hover{stroke-width:8}</style>
<ellipse fill="#a44646" stroke="black" cx="390" cy="-149.43" rx="40.06" ry="18"/>
<text text-anchor="middle" x="390" y="-146.93" font-family="Helvetica,sans-Serif" font-size="10.00" fill="#ffffff">base_plugin</text>
</g>
<!-- plugins_template_plugin_template_plugin -->
<g id="node2" class="node">
<title>plugins_template_plugin_template_plugin</title><style>.edge>path:hover{stroke-width:8}</style>
<ellipse fill="#8f3d3d" stroke="black" cx="390" cy="-37.21" rx="62.45" ry="21.43"/>
<text text-anchor="middle" x="390" y="-40.21" font-family="Helvetica,sans-Serif" font-size="10.00" fill="#ffffff">template_plugin.</text>
<text text-anchor="middle" x="390" y="-29.21" font-family="Helvetica,sans-Serif" font-size="10.00" fill="#ffffff">template_plugin</text>
</g>
<!-- plugins_base_plugin&#45;&gt;plugins_template_plugin_template_plugin -->
<g id="edge1" class="edge">
<title>plugins_base_plugin&#45;&gt;plugins_template_plugin_template_plugin</title><style>.edge>path:hover{stroke-width:8}</style>
<path fill="none" stroke="black" d="M390,-131.21C390,-114.58 390,-89.03 390,-68.92"/>
<polygon fill="#000000" stroke="black" points="393.5,-68.69 390,-58.69 386.5,-68.69 393.5,-68.69"/>
</g>
<!-- utils -->
<g id="node3" class="node">
<title>utils</title><style>.edge>path:hover{stroke-width:8}</style>
<ellipse fill="#3bcece" stroke="black" cx="390" cy="-304.43" rx="27" ry="18"/>
<text text-anchor="middle" x="390" y="-301.93" font-family="Helvetica,sans-Serif" font-size="10.00" fill="#000000">utils</text>
</g>
<!-- utils&#45;&gt;plugins_base_plugin -->
<g id="edge2" class="edge">
<title>utils&#45;&gt;plugins_base_plugin</title><style>.edge>path:hover{stroke-width:8}</style>
<path fill="none" stroke="black" d="M390,-206.43C390,-204.43 390,-202.42 390,-200.42"/>
<polygon fill="#000000" stroke="black" points="393.5,-208.42 390,-198.42 386.5,-208.42 393.5,-208.42"/>
</g>
<!-- utils_configuarable -->
<g id="node4" class="node">
<title>utils_configuarable</title><style>.edge>path:hover{stroke-width:8}</style>
<ellipse fill="#53b6b6" stroke="black" cx="301" cy="-304.43" rx="43.62" ry="18"/>
<text text-anchor="middle" x="301" y="-301.93" font-family="Helvetica,sans-Serif" font-size="10.00" fill="#000000">configuarable</text>
</g>
<!-- utils_logger -->
<g id="node5" class="node">
<title>utils_logger</title><style>.edge>path:hover{stroke-width:8}</style>
<ellipse fill="#3db8b8" stroke="black" cx="46" cy="-232.43" rx="27" ry="18"/>
<text text-anchor="middle" x="46" y="-229.93" font-family="Helvetica,sans-Serif" font-size="10.00" fill="#000000">logger</text>
</g>
<!-- utils_logic -->
<g id="node6" class="node">
<title>utils_logic</title><style>.edge>path:hover{stroke-width:8}</style>
<ellipse fill="#53b6b6" stroke="black" cx="212" cy="-304.43" rx="27" ry="18"/>
<text text-anchor="middle" x="212" y="-301.93" font-family="Helvetica,sans-Serif" font-size="10.00" fill="#000000">logic</text>
</g>
<!-- utils_logic_timer -->
<g id="node7" class="node">
<title>utils_logic_timer</title><style>.edge>path:hover{stroke-width:8}</style>
<ellipse fill="#53b6b6" stroke="black" cx="131" cy="-304.43" rx="36.49" ry="18"/>
<text text-anchor="middle" x="131" y="-301.93" font-family="Helvetica,sans-Serif" font-size="10.00" fill="#000000">logic.timer</text>
</g>
<!-- utils_settings -->
<g id="node8" class="node">
<title>utils_settings</title><style>.edge>path:hover{stroke-width:8}</style>
<ellipse fill="#53b6b6" stroke="black" cx="46" cy="-304.43" rx="30.04" ry="18"/>
<text text-anchor="middle" x="46" y="-301.93" font-family="Helvetica,sans-Serif" font-size="10.00" fill="#000000">settings</text>
</g>
<!-- utils_settings&#45;&gt;utils_logger -->
<g id="edge3" class="edge">
<title>utils_settings&#45;&gt;utils_logger</title><style>.edge>path:hover{stroke-width:8}</style>
<path fill="none" stroke="black" d="M46,-286.12C46,-278.41 46,-269.14 46,-260.54"/>
<polygon fill="#000000" stroke="black" points="49.5,-260.53 46,-250.53 42.5,-260.53 49.5,-260.53"/>
</g>
</g>
</svg>
