<?xml version="1.0" encoding="UTF-8" standalone="no"?>
<!DOCTYPE svg PUBLIC "-//W3C//DTD SVG 1.1//EN"
 "http://www.w3.org/Graphics/SVG/1.1/DTD/svg11.dtd">
<!-- Generated by graphviz version 2.50.0 (20211204.2007)
 -->
<!-- Title: G Pages: 1 -->
<svg width="1151pt" height="596pt"
 viewBox="0.00 0.00 1151.00 596.28" xmlns="http://www.w3.org/2000/svg" xmlns:xlink="http://www.w3.org/1999/xlink">
<g id="graph0" class="graph" transform="scale(1 1) rotate(0) translate(4 592.28)">
<title>G</title><style>.edge>path:hover{stroke-width:8}</style>
<polygon fill="white" stroke="transparent" points="-4,4 -4,-592.28 1147,-592.28 1147,4 -4,4"/>
<g id="clust4" class="cluster">
<title>cluster_utils</title><style>.edge>path:hover{stroke-width:8}</style>
<polygon fill="none" stroke="black" points="711,-337.64 711,-497.28 1135,-497.28 1135,-337.64 711,-337.64"/>
<text text-anchor="middle" x="923" y="-482.08" font-family="Times New Roman,serif" font-size="14.00">utils</text>
</g>
<g id="clust3" class="cluster">
<title>cluster_services</title><style>.edge>path:hover{stroke-width:8}</style>
<polygon fill="none" stroke="black" points="139,-251.43 139,-415.85 527,-415.85 527,-251.43 139,-251.43"/>
<text text-anchor="middle" x="333" y="-400.65" font-family="Times New Roman,serif" font-size="14.00">services</text>
</g>
<g id="clust1" class="cluster">
<title>cluster_data</title><style>.edge>path:hover{stroke-width:8}</style>
<polygon fill="none" stroke="black" points="8,-505.28 8,-580.28 154,-580.28 154,-505.28 8,-505.28"/>
<text text-anchor="middle" x="81" y="-565.08" font-family="Times New Roman,serif" font-size="14.00">data</text>
</g>
<g id="clust2" class="cluster">
<title>cluster_plugins</title><style>.edge>path:hover{stroke-width:8}</style>
<polygon fill="none" stroke="black" points="535,-64 535,-329.64 753,-329.64 753,-64 535,-64"/>
<text text-anchor="middle" x="644" y="-314.44" font-family="Times New Roman,serif" font-size="14.00">plugins</text>
</g>
<!-- data -->
<g id="node1" class="node">
<title>data</title><style>.edge>path:hover{stroke-width:8}</style>
<ellipse fill="#b65353" stroke="black" cx="119" cy="-531.28" rx="27" ry="18"/>
<text text-anchor="middle" x="119" y="-528.78" font-family="Helvetica,sans-Serif" font-size="10.00" fill="#ffffff">data</text>
</g>
<!-- services_global_error_handler_global_error_handler -->
<g id="node10" class="node">
<title>services_global_error_handler_global_error_handler</title><style>.edge>path:hover{stroke-width:8}</style>
<ellipse fill="#406296" stroke="black" cx="223" cy="-280.64" rx="75.82" ry="21.43"/>
<text text-anchor="middle" x="223" y="-283.64" font-family="Helvetica,sans-Serif" font-size="10.00" fill="#ffffff">global_error_handler.</text>
<text text-anchor="middle" x="223" y="-272.64" font-family="Helvetica,sans-Serif" font-size="10.00" fill="#ffffff">global_error_handler</text>
</g>
<!-- data&#45;&gt;services_global_error_handler_global_error_handler -->
<g id="edge1" class="edge">
<title>data&#45;&gt;services_global_error_handler_global_error_handler</title><style>.edge>path:hover{stroke-width:8}</style>
<path fill="none" stroke="black" d="M115.03,-505.28C110.44,-468.5 106.65,-398.47 133.96,-345.09"/>
<polygon fill="#000000" stroke="black" points="137.2,-346.47 139,-336.03 131.08,-343.06 137.2,-346.47"/>
</g>
<!-- data_register -->
<g id="node2" class="node">
<title>data_register</title><style>.edge>path:hover{stroke-width:8}</style>
<ellipse fill="#b65353" stroke="black" cx="45" cy="-531.28" rx="28.69" ry="18"/>
<text text-anchor="middle" x="45" y="-528.78" font-family="Helvetica,sans-Serif" font-size="10.00" fill="#ffffff">register</text>
</g>
<!-- plugins -->
<g id="node3" class="node">
<title>plugins</title><style>.edge>path:hover{stroke-width:8}</style>
<ellipse fill="#2fdb73" stroke="black" cx="717" cy="-280.64" rx="27.84" ry="18"/>
<text text-anchor="middle" x="717" y="-278.14" font-family="Helvetica,sans-Serif" font-size="10.00" fill="#000000">plugins</text>
</g>
<!-- devices -->
<g id="node17" class="node">
<title>devices</title><style>.edge>path:hover{stroke-width:8}</style>
<polygon fill="#b1ce3b" stroke="black" points="895,-36 892,-40 871,-40 868,-36 841,-36 841,0 895,0 895,-36"/>
<text text-anchor="middle" x="868" y="-15.5" font-family="Helvetica,sans-Serif" font-size="10.00" fill="#000000">devices</text>
</g>
<!-- plugins&#45;&gt;devices -->
<g id="edge3" class="edge">
<title>plugins&#45;&gt;devices</title><style>.edge>path:hover{stroke-width:8}</style>
<path fill="none" stroke="black" d="M753,-257.3C765.28,-248.13 778.14,-236.56 787,-223.43 828.37,-162.08 801.98,-130.22 835,-64 838.39,-57.21 842.8,-50.35 847.28,-44.12"/>
<polygon fill="#000000" stroke="black" points="850.13,-46.15 853.35,-36.05 844.54,-41.93 850.13,-46.15"/>
</g>
<!-- plugins_base_plugin -->
<g id="node4" class="node">
<title>plugins_base_plugin</title><style>.edge>path:hover{stroke-width:8}</style>
<ellipse fill="#2fbc67" stroke="black" cx="631" cy="-280.64" rx="40.06" ry="18"/>
<text text-anchor="middle" x="631" y="-278.14" font-family="Helvetica,sans-Serif" font-size="10.00" fill="#000000">base_plugin</text>
</g>
<!-- plugins_echp_echp -->
<g id="node5" class="node">
<title>plugins_echp_echp</title><style>.edge>path:hover{stroke-width:8}</style>
<ellipse fill="#3d8f5e" stroke="black" cx="634" cy="-90" rx="36.49" ry="18"/>
<text text-anchor="middle" x="634" y="-87.5" font-family="Helvetica,sans-Serif" font-size="10.00" fill="#ffffff">echp.echp</text>
</g>
<!-- plugins_base_plugin&#45;&gt;plugins_echp_echp -->
<g id="edge5" class="edge">
<title>plugins_base_plugin&#45;&gt;plugins_echp_echp</title><style>.edge>path:hover{stroke-width:8}</style>
<path fill="none" stroke="black" d="M655.13,-266.18C680.2,-250.67 717.96,-222.58 734,-186.43 741.65,-169.19 743.72,-160.16 734,-144 721.35,-122.98 697.25,-109.85 675.87,-101.92"/>
<polygon fill="#000000" stroke="black" points="676.89,-98.57 666.3,-98.64 674.62,-105.19 676.89,-98.57"/>
</g>
<!-- plugins_echp_heat_pump_control_group -->
<g id="node6" class="node">
<title>plugins_echp_heat_pump_control_group</title><style>.edge>path:hover{stroke-width:8}</style>
<ellipse fill="#267345" stroke="black" cx="634" cy="-165.21" rx="90.52" ry="21.43"/>
<text text-anchor="middle" x="634" y="-168.21" font-family="Helvetica,sans-Serif" font-size="10.00" fill="#ffffff">echp.</text>
<text text-anchor="middle" x="634" y="-157.21" font-family="Helvetica,sans-Serif" font-size="10.00" fill="#ffffff">heat_pump_control_group</text>
</g>
<!-- plugins_base_plugin&#45;&gt;plugins_echp_heat_pump_control_group -->
<g id="edge6" class="edge">
<title>plugins_base_plugin&#45;&gt;plugins_echp_heat_pump_control_group</title><style>.edge>path:hover{stroke-width:8}</style>
<path fill="none" stroke="black" d="M631.46,-262.41C631.92,-245.02 632.64,-217.8 633.19,-196.75"/>
<polygon fill="#000000" stroke="black" points="636.69,-196.77 633.46,-186.68 629.7,-196.58 636.69,-196.77"/>
</g>
<!-- plugins_base_plugin&#45;&gt;devices -->
<g id="edge4" class="edge">
<title>plugins_base_plugin&#45;&gt;devices</title><style>.edge>path:hover{stroke-width:8}</style>
<path fill="none" stroke="black" d="M753,-169.11C777.22,-128.46 778.88,-106.68 815,-64 821.36,-56.49 829.04,-49.2 836.56,-42.75"/>
<polygon fill="#000000" stroke="black" points="839.11,-45.18 844.58,-36.11 834.65,-39.79 839.11,-45.18"/>
</g>
<!-- plugins_echp_heat_pump_control_group&#45;&gt;plugins_echp_echp -->
<g id="edge7" class="edge">
<title>plugins_echp_heat_pump_control_group&#45;&gt;plugins_echp_echp</title><style>.edge>path:hover{stroke-width:8}</style>
<path fill="none" stroke="black" d="M634,-143.82C634,-135.97 634,-126.86 634,-118.45"/>
<polygon fill="#000000" stroke="black" points="637.5,-118.31 634,-108.31 630.5,-118.31 637.5,-118.31"/>
</g>
<!-- services -->
<g id="node7" class="node">
<title>services</title><style>.edge>path:hover{stroke-width:8}</style>
<ellipse fill="#4778c2" stroke="black" cx="488" cy="-363.64" rx="30.72" ry="18"/>
<text text-anchor="middle" x="488" y="-361.14" font-family="Helvetica,sans-Serif" font-size="10.00" fill="#ffffff">services</text>
</g>
<!-- services&#45;&gt;plugins_echp_heat_pump_control_group -->
<g id="edge8" class="edge">
<title>services&#45;&gt;plugins_echp_heat_pump_control_group</title><style>.edge>path:hover{stroke-width:8}</style>
<path fill="none" stroke="black" d="M527,-310.17C527.61,-309.35 528.22,-308.53 528.83,-307.71"/>
<polygon fill="#000000" stroke="black" points="531.84,-309.52 535,-299.4 526.23,-305.34 531.84,-309.52"/>
</g>
<!-- services_global_error_handler -->
<g id="node8" class="node">
<title>services_global_error_handler</title><style>.edge>path:hover{stroke-width:8}</style>
<ellipse fill="#4778c2" stroke="black" cx="378" cy="-363.64" rx="61.44" ry="18"/>
<text text-anchor="middle" x="378" y="-361.14" font-family="Helvetica,sans-Serif" font-size="10.00" fill="#ffffff">global_error_handler</text>
</g>
<!-- services_global_error_handler_error_codes -->
<g id="node9" class="node">
<title>services_global_error_handler_error_codes</title><style>.edge>path:hover{stroke-width:8}</style>
<ellipse fill="#537bb6" stroke="black" cx="223" cy="-363.64" rx="75.82" ry="21.43"/>
<text text-anchor="middle" x="223" y="-366.64" font-family="Helvetica,sans-Serif" font-size="10.00" fill="#ffffff">global_error_handler.</text>
<text text-anchor="middle" x="223" y="-355.64" font-family="Helvetica,sans-Serif" font-size="10.00" fill="#ffffff">error_codes</text>
</g>
<!-- services_global_error_handler_error_codes&#45;&gt;services_global_error_handler_global_error_handler -->
<g id="edge9" class="edge">
<title>services_global_error_handler_error_codes&#45;&gt;services_global_error_handler_global_error_handler</title><style>.edge>path:hover{stroke-width:8}</style>
<path fill="none" stroke="black" d="M223,-342.2C223,-333.09 223,-322.16 223,-312.11"/>
<polygon fill="#000000" stroke="black" points="226.5,-312.07 223,-302.07 219.5,-312.07 226.5,-312.07"/>
</g>
<!-- utils -->
<g id="node11" class="node">
<title>utils</title><style>.edge>path:hover{stroke-width:8}</style>
<ellipse fill="#cb10f9" stroke="black" cx="824" cy="-445.07" rx="27" ry="18"/>
<text text-anchor="middle" x="824" y="-442.57" font-family="Helvetica,sans-Serif" font-size="10.00" fill="#ffffff">utils</text>
</g>
<!-- utils&#45;&gt;plugins_base_plugin -->
<g id="edge11" class="edge">
<title>utils&#45;&gt;plugins_base_plugin</title><style>.edge>path:hover{stroke-width:8}</style>
<path fill="none" stroke="black" d="M711,-376.99C697.16,-364 684.5,-350.33 673.54,-337.53"/>
<polygon fill="#000000" stroke="black" points="676.01,-335.03 666.89,-329.64 670.65,-339.54 676.01,-335.03"/>
</g>
<!-- utils&#45;&gt;devices -->
<g id="edge10" class="edge">
<title>utils&#45;&gt;devices</title><style>.edge>path:hover{stroke-width:8}</style>
<path fill="none" stroke="black" d="M877.79,-337.64C883.34,-319.4 887,-300.3 887,-281.64 887,-281.64 887,-281.64 887,-164.21 887,-122.77 879.3,-75.24 873.7,-46.17"/>
<polygon fill="#000000" stroke="black" points="877.13,-45.47 871.75,-36.34 870.27,-46.83 877.13,-45.47"/>
</g>
<!-- utils_configuarable -->
<g id="node12" class="node">
<title>utils_configuarable</title><style>.edge>path:hover{stroke-width:8}</style>
<ellipse fill="#a947c2" stroke="black" cx="913" cy="-445.07" rx="43.62" ry="18"/>
<text text-anchor="middle" x="913" y="-442.57" font-family="Helvetica,sans-Serif" font-size="10.00" fill="#ffffff">configuarable</text>
</g>
<!-- utils_configuarable&#45;&gt;devices -->
<g id="edge12" class="edge">
<title>utils_configuarable&#45;&gt;devices</title><style>.edge>path:hover{stroke-width:8}</style>
<path fill="none" stroke="black" d="M923.12,-337.64C924.25,-318.99 925,-299.76 925,-281.64 925,-281.64 925,-281.64 925,-164.21 925,-119.93 901.75,-72.97 884.94,-44.82"/>
<polygon fill="#000000" stroke="black" points="887.75,-42.71 879.53,-36.03 881.79,-46.38 887.75,-42.71"/>
</g>
<!-- utils_logger -->
<g id="node13" class="node">
<title>utils_logger</title><style>.edge>path:hover{stroke-width:8}</style>
<ellipse fill="#b518dd" stroke="black" cx="797" cy="-363.64" rx="27" ry="18"/>
<text text-anchor="middle" x="797" y="-361.14" font-family="Helvetica,sans-Serif" font-size="10.00" fill="#ffffff">logger</text>
</g>
<!-- utils_logger&#45;&gt;devices -->
<g id="edge13" class="edge">
<title>utils_logger&#45;&gt;devices</title><style>.edge>path:hover{stroke-width:8}</style>
<path fill="none" stroke="black" d="M812.53,-337.64C827.86,-310.55 849,-265.54 849,-223.43 849,-223.43 849,-223.43 849,-164.21 849,-122.77 856.7,-75.24 862.3,-46.17"/>
<polygon fill="#000000" stroke="black" points="865.73,-46.83 864.25,-36.34 858.87,-45.47 865.73,-46.83"/>
</g>
<!-- utils_logic -->
<g id="node14" class="node">
<title>utils_logic</title><style>.edge>path:hover{stroke-width:8}</style>
<ellipse fill="#a947c2" stroke="black" cx="1002" cy="-445.07" rx="27" ry="18"/>
<text text-anchor="middle" x="1002" y="-442.57" font-family="Helvetica,sans-Serif" font-size="10.00" fill="#ffffff">logic</text>
</g>
<!-- utils_logic&#45;&gt;devices -->
<g id="edge14" class="edge">
<title>utils_logic&#45;&gt;devices</title><style>.edge>path:hover{stroke-width:8}</style>
<path fill="none" stroke="black" d="M989.35,-337.64C987.94,-319 987,-299.78 987,-281.64 987,-281.64 987,-281.64 987,-164.21 987,-111.03 938.65,-66.65 903.59,-41.45"/>
<polygon fill="#000000" stroke="black" points="905.21,-38.31 895,-35.47 901.21,-44.06 905.21,-38.31"/>
</g>
<!-- utils_logic_functions -->
<g id="node15" class="node">
<title>utils_logic_functions</title><style>.edge>path:hover{stroke-width:8}</style>
<ellipse fill="#a947c2" stroke="black" cx="1087" cy="-445.07" rx="39.7" ry="21.43"/>
<text text-anchor="middle" x="1087" y="-448.07" font-family="Helvetica,sans-Serif" font-size="10.00" fill="#ffffff">logic.</text>
<text text-anchor="middle" x="1087" y="-437.07" font-family="Helvetica,sans-Serif" font-size="10.00" fill="#ffffff">functions</text>
</g>
<!-- utils_logic_functions&#45;&gt;devices -->
<g id="edge15" class="edge">
<title>utils_logic_functions&#45;&gt;devices</title><style>.edge>path:hover{stroke-width:8}</style>
<path fill="none" stroke="black" d="M1076.04,-337.64C1074.81,-319 1074,-299.77 1074,-281.64 1074,-281.64 1074,-281.64 1074,-164.21 1074,-82.52 964.43,-42.75 905.11,-27.2"/>
<polygon fill="#000000" stroke="black" points="905.91,-23.79 895.36,-24.74 904.2,-30.58 905.91,-23.79"/>
</g>
<!-- utils_settings -->
<g id="node16" class="node">
<title>utils_settings</title><style>.edge>path:hover{stroke-width:8}</style>
<ellipse fill="#a253b6" stroke="black" cx="749" cy="-445.07" rx="30.04" ry="18"/>
<text text-anchor="middle" x="749" y="-442.57" font-family="Helvetica,sans-Serif" font-size="10.00" fill="#ffffff">settings</text>
</g>
<!-- utils_settings&#45;&gt;utils_logger -->
<g id="edge16" class="edge">
<title>utils_settings&#45;&gt;utils_logger</title><style>.edge>path:hover{stroke-width:8}</style>
<path fill="none" stroke="black" d="M758.71,-427.99C765.41,-416.9 774.45,-401.95 782.06,-389.35"/>
<polygon fill="#000000" stroke="black" points="785.12,-391.06 787.3,-380.69 779.13,-387.44 785.12,-391.06"/>
</g>
<!-- devices&#45;&gt;plugins_echp_heat_pump_control_group -->
<g id="edge2" class="edge">
<title>devices&#45;&gt;plugins_echp_heat_pump_control_group</title><style>.edge>path:hover{stroke-width:8}</style>
<path fill="none" stroke="black" d="M840.56,-27.88C819.92,-35.07 791.04,-46.24 761.7,-62.62"/>
<polygon fill="#b1ce3b" stroke="black" points="759.92,-59.61 753,-67.63 763.41,-65.67 759.92,-59.61"/>
</g>
</g>
</svg>
