<?xml version="1.0" encoding="UTF-8" standalone="no"?>
<!DOCTYPE svg PUBLIC "-//W3C//DTD SVG 1.1//EN"
 "http://www.w3.org/Graphics/SVG/1.1/DTD/svg11.dtd">
<!-- Generated by graphviz version 2.50.0 (20211204.2007)
 -->
<!-- Title: G Pages: 1 -->
<svg width="1856pt" height="925pt"
 viewBox="0.00 0.00 1856.00 924.61" xmlns="http://www.w3.org/2000/svg" xmlns:xlink="http://www.w3.org/1999/xlink">
<g id="graph0" class="graph" transform="scale(1 1) rotate(0) translate(4 920.61)">
<title>G</title><style>.edge>path:hover{stroke-width:8}</style>
<polygon fill="white" stroke="transparent" points="-4,4 -4,-920.61 1852,-920.61 1852,4 -4,4"/>
<g id="clust1" class="cluster">
<title>cluster_System</title><style>.edge>path:hover{stroke-width:8}</style>
<polygon fill="none" stroke="black" points="8,-811.62 8,-908.61 175,-908.61 175,-811.62 8,-811.62"/>
<text text-anchor="middle" x="91.5" y="-893.41" font-family="Times New Roman,serif" font-size="14.00">System</text>
</g>
<g id="clust2" class="cluster">
<title>cluster_ctypes</title><style>.edge>path:hover{stroke-width:8}</style>
<polygon fill="none" stroke="black" points="138,-722.2 138,-803.62 1117,-803.62 1117,-722.2 138,-722.2"/>
<text text-anchor="middle" x="627.5" y="-788.42" font-family="Times New Roman,serif" font-size="14.00">ctypes</text>
</g>
<g id="clust6" class="cluster">
<title>cluster_psutil</title><style>.edge>path:hover{stroke-width:8}</style>
<polygon fill="none" stroke="black" points="542,-538.2 542,-613.2 612,-613.2 612,-538.2 542,-538.2"/>
<text text-anchor="middle" x="577" y="-598" font-family="Times New Roman,serif" font-size="14.00">psutil</text>
</g>
<g id="clust8" class="cluster">
<title>cluster_utils</title><style>.edge>path:hover{stroke-width:8}</style>
<polygon fill="none" stroke="black" points="510,-286.2 510,-447.2 999,-447.2 999,-286.2 510,-286.2"/>
<text text-anchor="middle" x="754.5" y="-432" font-family="Times New Roman,serif" font-size="14.00">utils</text>
</g>
<g id="clust3" class="cluster">
<title>cluster_data</title><style>.edge>path:hover{stroke-width:8}</style>
<polygon fill="none" stroke="black" points="830,-455.2 830,-530.2 1086,-530.2 1086,-455.2 830,-455.2"/>
<text text-anchor="middle" x="958" y="-515" font-family="Times New Roman,serif" font-size="14.00">data</text>
</g>
<g id="clust5" class="cluster">
<title>cluster_plugins</title><style>.edge>path:hover{stroke-width:8}</style>
<polygon fill="none" stroke="black" points="916,-8 916,-267.21 1020,-267.21 1020,-8 916,-8"/>
<text text-anchor="middle" x="968" y="-252.01" font-family="Times New Roman,serif" font-size="14.00">plugins</text>
</g>
<g id="clust4" class="cluster">
<title>cluster_devices</title><style>.edge>path:hover{stroke-width:8}</style>
<polygon fill="none" stroke="black" points="1486,-275.21 1486,-372.2 1840,-372.2 1840,-275.21 1486,-275.21"/>
<text text-anchor="middle" x="1663" y="-357" font-family="Times New Roman,serif" font-size="14.00">devices</text>
</g>
<g id="clust7" class="cluster">
<title>cluster_services</title><style>.edge>path:hover{stroke-width:8}</style>
<polygon fill="none" stroke="black" points="1090,-189 1090,-364.42 1478,-364.42 1478,-189 1090,-189"/>
<text text-anchor="middle" x="1284" y="-349.22" font-family="Times New Roman,serif" font-size="14.00">services</text>
</g>
<!-- System -->
<g id="node1" class="node">
<title>System</title><style>.edge>path:hover{stroke-width:8}</style>
<ellipse fill="#b65353" stroke="black" cx="45" cy="-848.61" rx="29.37" ry="18"/>
<text text-anchor="middle" x="45" y="-846.11" font-family="Helvetica,sans-Serif" font-size="10.00" fill="#ffffff">System</text>
</g>
<!-- serial -->
<g id="node33" class="node">
<title>serial</title><style>.edge>path:hover{stroke-width:8}</style>
<polygon fill="#0505c7" stroke="black" points="549,-657.2 546,-661.2 525,-661.2 522,-657.2 495,-657.2 495,-621.2 549,-621.2 549,-657.2"/>
<text text-anchor="middle" x="522" y="-636.7" font-family="Helvetica,sans-Serif" font-size="10.00" fill="#ffffff">serial</text>
</g>
<!-- System&#45;&gt;serial -->
<g id="edge1" class="edge">
<title>System&#45;&gt;serial</title><style>.edge>path:hover{stroke-width:8}</style>
<path fill="none" stroke="black" d="M57.36,-811.62C68.34,-784.16 86.73,-746.95 113,-722.2 166.74,-671.55 394.39,-649.56 484.79,-642.71"/>
<polygon fill="#000000" stroke="black" points="485.14,-646.19 494.86,-641.96 484.63,-639.21 485.14,-646.19"/>
</g>
<!-- System_IO_Ports -->
<g id="node2" class="node">
<title>System_IO_Ports</title><style>.edge>path:hover{stroke-width:8}</style>
<ellipse fill="#b65353" stroke="black" cx="130" cy="-848.61" rx="37.45" ry="28.98"/>
<text text-anchor="middle" x="130" y="-857.11" font-family="Helvetica,sans-Serif" font-size="10.00" fill="#ffffff">System.</text>
<text text-anchor="middle" x="130" y="-846.11" font-family="Helvetica,sans-Serif" font-size="10.00" fill="#ffffff">IO.</text>
<text text-anchor="middle" x="130" y="-835.11" font-family="Helvetica,sans-Serif" font-size="10.00" fill="#ffffff">Ports</text>
</g>
<!-- System_IO_Ports&#45;&gt;serial -->
<g id="edge2" class="edge">
<title>System_IO_Ports&#45;&gt;serial</title><style>.edge>path:hover{stroke-width:8}</style>
<path fill="none" stroke="black" d="M120.28,-811.63C115.15,-784.01 113.56,-746.6 134,-722.2 178.87,-668.62 396.55,-648.45 484.76,-642.4"/>
<polygon fill="#000000" stroke="black" points="485.11,-645.88 494.86,-641.73 484.65,-638.9 485.11,-645.88"/>
</g>
<!-- ctypes_POINTER -->
<g id="node3" class="node">
<title>ctypes_POINTER</title><style>.edge>path:hover{stroke-width:8}</style>
<ellipse fill="#b69553" stroke="black" cx="200" cy="-751.41" rx="53.64" ry="18"/>
<text text-anchor="middle" x="200" y="-748.91" font-family="Helvetica,sans-Serif" font-size="10.00" fill="#000000">ctypes.POINTER</text>
</g>
<!-- ctypes_POINTER&#45;&gt;serial -->
<g id="edge3" class="edge">
<title>ctypes_POINTER&#45;&gt;serial</title><style>.edge>path:hover{stroke-width:8}</style>
<path fill="none" stroke="black" d="M262,-722.2C339.93,-692.3 433.87,-664.68 484.79,-650.39"/>
<polygon fill="#000000" stroke="black" points="485.99,-653.69 494.68,-647.63 484.11,-646.95 485.99,-653.69"/>
</g>
<!-- ctypes_Structure -->
<g id="node4" class="node">
<title>ctypes_Structure</title><style>.edge>path:hover{stroke-width:8}</style>
<ellipse fill="#b69553" stroke="black" cx="311" cy="-751.41" rx="39.7" ry="21.43"/>
<text text-anchor="middle" x="311" y="-754.41" font-family="Helvetica,sans-Serif" font-size="10.00" fill="#000000">ctypes.</text>
<text text-anchor="middle" x="311" y="-743.41" font-family="Helvetica,sans-Serif" font-size="10.00" fill="#000000">Structure</text>
</g>
<!-- ctypes_Structure&#45;&gt;serial -->
<g id="edge4" class="edge">
<title>ctypes_Structure&#45;&gt;serial</title><style>.edge>path:hover{stroke-width:8}</style>
<path fill="none" stroke="black" d="M359,-722.2C401.92,-698.82 452.3,-673.84 485.57,-657.68"/>
<polygon fill="#000000" stroke="black" points="487.42,-660.67 494.9,-653.16 484.37,-654.37 487.42,-660.67"/>
</g>
<!-- ctypes_Union -->
<g id="node5" class="node">
<title>ctypes_Union</title><style>.edge>path:hover{stroke-width:8}</style>
<ellipse fill="#b69553" stroke="black" cx="412" cy="-751.41" rx="43.62" ry="18"/>
<text text-anchor="middle" x="412" y="-748.91" font-family="Helvetica,sans-Serif" font-size="10.00" fill="#000000">ctypes.Union</text>
</g>
<!-- ctypes_Union&#45;&gt;serial -->
<g id="edge5" class="edge">
<title>ctypes_Union&#45;&gt;serial</title><style>.edge>path:hover{stroke-width:8}</style>
<path fill="none" stroke="black" d="M440.16,-722.2C457.94,-704.38 480.7,-681.58 497.7,-664.55"/>
<polygon fill="#000000" stroke="black" points="500.23,-666.96 504.82,-657.41 495.28,-662.01 500.23,-666.96"/>
</g>
<!-- ctypes_WinDLL -->
<g id="node6" class="node">
<title>ctypes_WinDLL</title><style>.edge>path:hover{stroke-width:8}</style>
<ellipse fill="#b69553" stroke="black" cx="522" cy="-751.41" rx="48.72" ry="18"/>
<text text-anchor="middle" x="522" y="-748.91" font-family="Helvetica,sans-Serif" font-size="10.00" fill="#000000">ctypes.WinDLL</text>
</g>
<!-- ctypes_WinDLL&#45;&gt;serial -->
<g id="edge6" class="edge">
<title>ctypes_WinDLL&#45;&gt;serial</title><style>.edge>path:hover{stroke-width:8}</style>
<path fill="none" stroke="black" d="M522,-722.2C522,-705.33 522,-684 522,-667.32"/>
<polygon fill="#000000" stroke="black" points="525.5,-667.3 522,-657.3 518.5,-667.3 525.5,-667.3"/>
</g>
<!-- ctypes_c_char -->
<g id="node7" class="node">
<title>ctypes_c_char</title><style>.edge>path:hover{stroke-width:8}</style>
<ellipse fill="#b69553" stroke="black" cx="635" cy="-751.41" rx="45.83" ry="18"/>
<text text-anchor="middle" x="635" y="-748.91" font-family="Helvetica,sans-Serif" font-size="10.00" fill="#000000">ctypes.c_char</text>
</g>
<!-- ctypes_c_char&#45;&gt;serial -->
<g id="edge7" class="edge">
<title>ctypes_c_char&#45;&gt;serial</title><style>.edge>path:hover{stroke-width:8}</style>
<path fill="none" stroke="black" d="M606.07,-722.2C587.72,-704.3 564.23,-681.38 546.74,-664.33"/>
<polygon fill="#000000" stroke="black" points="549.09,-661.73 539.49,-657.25 544.2,-666.74 549.09,-661.73"/>
</g>
<!-- ctypes_c_int64 -->
<g id="node8" class="node">
<title>ctypes_c_int64</title><style>.edge>path:hover{stroke-width:8}</style>
<ellipse fill="#b69553" stroke="black" cx="746" cy="-751.41" rx="47.19" ry="18"/>
<text text-anchor="middle" x="746" y="-748.91" font-family="Helvetica,sans-Serif" font-size="10.00" fill="#000000">ctypes.c_int64</text>
</g>
<!-- ctypes_c_int64&#45;&gt;serial -->
<g id="edge8" class="edge">
<title>ctypes_c_int64&#45;&gt;serial</title><style>.edge>path:hover{stroke-width:8}</style>
<path fill="none" stroke="black" d="M690,-722.2C644.69,-699.72 592.28,-674.22 558.21,-657.71"/>
<polygon fill="#000000" stroke="black" points="559.64,-654.51 549.11,-653.3 556.59,-660.81 559.64,-654.51"/>
</g>
<!-- ctypes_c_ulong -->
<g id="node9" class="node">
<title>ctypes_c_ulong</title><style>.edge>path:hover{stroke-width:8}</style>
<ellipse fill="#b69553" stroke="black" cx="860" cy="-751.41" rx="48.72" ry="18"/>
<text text-anchor="middle" x="860" y="-748.91" font-family="Helvetica,sans-Serif" font-size="10.00" fill="#000000">ctypes.c_ulong</text>
</g>
<!-- ctypes_c_ulong&#45;&gt;serial -->
<g id="edge9" class="edge">
<title>ctypes_c_ulong&#45;&gt;serial</title><style>.edge>path:hover{stroke-width:8}</style>
<path fill="none" stroke="black" d="M802,-722.2C717,-689.34 613.19,-662.17 558.98,-648.92"/>
<polygon fill="#000000" stroke="black" points="559.68,-645.48 549.14,-646.53 558.03,-652.29 559.68,-645.48"/>
</g>
<!-- ctypes_c_void_p -->
<g id="node10" class="node">
<title>ctypes_c_void_p</title><style>.edge>path:hover{stroke-width:8}</style>
<ellipse fill="#b69553" stroke="black" cx="965" cy="-751.41" rx="38.37" ry="21.43"/>
<text text-anchor="middle" x="965" y="-754.41" font-family="Helvetica,sans-Serif" font-size="10.00" fill="#000000">ctypes.</text>
<text text-anchor="middle" x="965" y="-743.41" font-family="Helvetica,sans-Serif" font-size="10.00" fill="#000000">c_void_p</text>
</g>
<!-- ctypes_c_void_p&#45;&gt;serial -->
<g id="edge10" class="edge">
<title>ctypes_c_void_p&#45;&gt;serial</title><style>.edge>path:hover{stroke-width:8}</style>
<path fill="none" stroke="black" d="M918,-722.2C792.04,-672.99 631.45,-651.41 559.64,-643.74"/>
<polygon fill="#000000" stroke="black" points="559.61,-640.22 549.31,-642.67 558.89,-647.18 559.61,-640.22"/>
</g>
<!-- ctypes_sizeof -->
<g id="node11" class="node">
<title>ctypes_sizeof</title><style>.edge>path:hover{stroke-width:8}</style>
<ellipse fill="#b69553" stroke="black" cx="1065" cy="-751.41" rx="43.62" ry="18"/>
<text text-anchor="middle" x="1065" y="-748.91" font-family="Helvetica,sans-Serif" font-size="10.00" fill="#000000">ctypes.sizeof</text>
</g>
<!-- ctypes_sizeof&#45;&gt;serial -->
<g id="edge11" class="edge">
<title>ctypes_sizeof&#45;&gt;serial</title><style>.edge>path:hover{stroke-width:8}</style>
<path fill="none" stroke="black" d="M1012,-722.2C849.24,-666.34 642.57,-647.74 559.28,-642.25"/>
<polygon fill="#000000" stroke="black" points="559.25,-638.75 549.05,-641.61 558.81,-645.73 559.25,-638.75"/>
</g>
<!-- data -->
<g id="node12" class="node">
<title>data</title><style>.edge>path:hover{stroke-width:8}</style>
<ellipse fill="#99c247" stroke="black" cx="1051" cy="-481.2" rx="27" ry="18"/>
<text text-anchor="middle" x="1051" y="-478.7" font-family="Helvetica,sans-Serif" font-size="10.00" fill="#000000">data</text>
</g>
<!-- plugins_vent_zone -->
<g id="node20" class="node">
<title>plugins_vent_zone</title><style>.edge>path:hover{stroke-width:8}</style>
<ellipse fill="#267359" stroke="black" cx="978" cy="-106" rx="34.29" ry="18"/>
<text text-anchor="middle" x="978" y="-103.5" font-family="Helvetica,sans-Serif" font-size="10.00" fill="#ffffff">vent.zone</text>
</g>
<!-- data&#45;&gt;plugins_vent_zone -->
<g id="edge12" class="edge">
<title>data&#45;&gt;plugins_vent_zone</title><style>.edge>path:hover{stroke-width:8}</style>
<path fill="none" stroke="black" d="M1046.37,-455.2C1040.74,-422.64 1032,-363.87 1032,-313.2 1032,-313.2 1032,-313.2 1032,-217.21 1032,-203.96 1028.81,-190.64 1023.98,-178.06"/>
<polygon fill="#000000" stroke="black" points="1027.11,-176.46 1020,-168.61 1020.66,-179.18 1027.11,-176.46"/>
</g>
<!-- services_global_error_handler_global_error_handler -->
<g id="node25" class="node">
<title>services_global_error_handler_global_error_handler</title><style>.edge>path:hover{stroke-width:8}</style>
<ellipse fill="#794096" stroke="black" cx="1174" cy="-218.21" rx="75.82" ry="21.43"/>
<text text-anchor="middle" x="1174" y="-221.21" font-family="Helvetica,sans-Serif" font-size="10.00" fill="#ffffff">global_error_handler.</text>
<text text-anchor="middle" x="1174" y="-210.21" font-family="Helvetica,sans-Serif" font-size="10.00" fill="#ffffff">global_error_handler</text>
</g>
<!-- data&#45;&gt;services_global_error_handler_global_error_handler -->
<g id="edge13" class="edge">
<title>data&#45;&gt;services_global_error_handler_global_error_handler</title><style>.edge>path:hover{stroke-width:8}</style>
<path fill="none" stroke="black" d="M1049.62,-455.2C1048.64,-416.17 1051.53,-339.43 1084.52,-282.57"/>
<polygon fill="#000000" stroke="black" points="1087.7,-284.08 1090,-273.74 1081.76,-280.39 1087.7,-284.08"/>
</g>
<!-- data_register -->
<g id="node13" class="node">
<title>data_register</title><style>.edge>path:hover{stroke-width:8}</style>
<ellipse fill="#99c247" stroke="black" cx="977" cy="-481.2" rx="28.69" ry="18"/>
<text text-anchor="middle" x="977" y="-478.7" font-family="Helvetica,sans-Serif" font-size="10.00" fill="#000000">register</text>
</g>
<!-- data_thermal_mode -->
<g id="node14" class="node">
<title>data_thermal_mode</title><style>.edge>path:hover{stroke-width:8}</style>
<ellipse fill="#95b653" stroke="black" cx="884" cy="-481.2" rx="45.83" ry="18"/>
<text text-anchor="middle" x="884" y="-478.7" font-family="Helvetica,sans-Serif" font-size="10.00" fill="#000000">thermal_mode</text>
</g>
<!-- devices -->
<g id="node15" class="node">
<title>devices</title><style>.edge>path:hover{stroke-width:8}</style>
<ellipse fill="#53b653" stroke="black" cx="1803" cy="-312.2" rx="28.69" ry="18"/>
<text text-anchor="middle" x="1803" y="-309.7" font-family="Helvetica,sans-Serif" font-size="10.00" fill="#000000">devices</text>
</g>
<!-- devices&#45;&gt;plugins_vent_zone -->
<g id="edge14" class="edge">
<title>devices&#45;&gt;plugins_vent_zone</title><style>.edge>path:hover{stroke-width:8}</style>
<path fill="none" stroke="black" d="M1766,-275.21C1652.4,-208.17 1610.5,-218.82 1482,-189 1313.34,-149.86 1108.67,-122.71 1021.11,-112.04"/>
<polygon fill="#000000" stroke="black" points="1030.49,-110.33 1020,-111.82 1029.13,-117.2 1030.49,-110.33"/>
</g>
<!-- devices_factories_air_dampers_air_dampers_factory -->
<g id="node16" class="node">
<title>devices_factories_air_dampers_air_dampers_factory</title><style>.edge>path:hover{stroke-width:8}</style>
<ellipse fill="#53b653" stroke="black" cx="1683" cy="-312.2" rx="73.58" ry="28.98"/>
<text text-anchor="middle" x="1683" y="-320.7" font-family="Helvetica,sans-Serif" font-size="10.00" fill="#000000">factories.</text>
<text text-anchor="middle" x="1683" y="-309.7" font-family="Helvetica,sans-Serif" font-size="10.00" fill="#000000">air_dampers.</text>
<text text-anchor="middle" x="1683" y="-298.7" font-family="Helvetica,sans-Serif" font-size="10.00" fill="#000000">air_dampers_factory</text>
</g>
<!-- devices_factories_fans_fans_factory -->
<g id="node17" class="node">
<title>devices_factories_fans_fans_factory</title><style>.edge>path:hover{stroke-width:8}</style>
<ellipse fill="#53b653" stroke="black" cx="1543" cy="-312.2" rx="48.58" ry="28.98"/>
<text text-anchor="middle" x="1543" y="-320.7" font-family="Helvetica,sans-Serif" font-size="10.00" fill="#000000">factories.</text>
<text text-anchor="middle" x="1543" y="-309.7" font-family="Helvetica,sans-Serif" font-size="10.00" fill="#000000">fans.</text>
<text text-anchor="middle" x="1543" y="-298.7" font-family="Helvetica,sans-Serif" font-size="10.00" fill="#000000">fans_factory</text>
</g>
<!-- plugins_base_plugin -->
<g id="node18" class="node">
<title>plugins_base_plugin</title><style>.edge>path:hover{stroke-width:8}</style>
<ellipse fill="#3ab089" stroke="black" cx="964" cy="-218.21" rx="40.06" ry="18"/>
<text text-anchor="middle" x="964" y="-215.71" font-family="Helvetica,sans-Serif" font-size="10.00" fill="#000000">base_plugin</text>
</g>
<!-- plugins_vent_vent -->
<g id="node19" class="node">
<title>plugins_vent_vent</title><style>.edge>path:hover{stroke-width:8}</style>
<ellipse fill="#3d8f74" stroke="black" cx="978" cy="-34" rx="31.58" ry="18"/>
<text text-anchor="middle" x="978" y="-31.5" font-family="Helvetica,sans-Serif" font-size="10.00" fill="#ffffff">vent.vent</text>
</g>
<!-- plugins_base_plugin&#45;&gt;plugins_vent_vent -->
<g id="edge15" class="edge">
<title>plugins_base_plugin&#45;&gt;plugins_vent_vent</title><style>.edge>path:hover{stroke-width:8}</style>
<path fill="none" stroke="black" d="M954.41,-200.54C941.35,-175.57 921.09,-127.22 935,-88 939.06,-76.54 946.78,-65.76 954.56,-56.94"/>
<polygon fill="#000000" stroke="black" points="957.32,-59.12 961.63,-49.44 952.22,-54.32 957.32,-59.12"/>
</g>
<!-- plugins_base_plugin&#45;&gt;plugins_vent_zone -->
<g id="edge16" class="edge">
<title>plugins_base_plugin&#45;&gt;plugins_vent_zone</title><style>.edge>path:hover{stroke-width:8}</style>
<path fill="none" stroke="black" d="M966.19,-199.99C968.43,-182.36 971.94,-154.7 974.55,-134.12"/>
<polygon fill="#000000" stroke="black" points="978.04,-134.46 975.83,-124.1 971.1,-133.58 978.04,-134.46"/>
</g>
<!-- plugins_vent_zone&#45;&gt;plugins_vent_vent -->
<g id="edge17" class="edge">
<title>plugins_vent_zone&#45;&gt;plugins_vent_vent</title><style>.edge>path:hover{stroke-width:8}</style>
<path fill="none" stroke="black" d="M978,-87.7C978,-79.98 978,-70.71 978,-62.11"/>
<polygon fill="#000000" stroke="black" points="981.5,-62.1 978,-52.1 974.5,-62.1 981.5,-62.1"/>
</g>
<!-- psutil -->
<g id="node21" class="node">
<title>psutil</title><style>.edge>path:hover{stroke-width:8}</style>
<ellipse fill="#5395b6" stroke="black" cx="577" cy="-564.2" rx="27" ry="18"/>
<text text-anchor="middle" x="577" y="-561.7" font-family="Helvetica,sans-Serif" font-size="10.00" fill="#000000">psutil</text>
</g>
<!-- utils_utils -->
<g id="node32" class="node">
<title>utils_utils</title><style>.edge>path:hover{stroke-width:8}</style>
<ellipse fill="#a83883" stroke="black" cx="545" cy="-398.2" rx="27" ry="18"/>
<text text-anchor="middle" x="545" y="-395.7" font-family="Helvetica,sans-Serif" font-size="10.00" fill="#ffffff">utils</text>
</g>
<!-- psutil&#45;&gt;utils_utils -->
<g id="edge18" class="edge">
<title>psutil&#45;&gt;utils_utils</title><style>.edge>path:hover{stroke-width:8}</style>
<path fill="none" stroke="black" d="M572.12,-538.2C567.93,-516.74 561.73,-484.96 556.32,-457.21"/>
<polygon fill="#000000" stroke="black" points="559.72,-456.34 554.37,-447.19 552.85,-457.68 559.72,-456.34"/>
</g>
<!-- services -->
<g id="node22" class="node">
<title>services</title><style>.edge>path:hover{stroke-width:8}</style>
<ellipse fill="#9947c2" stroke="black" cx="1439" cy="-312.2" rx="30.72" ry="18"/>
<text text-anchor="middle" x="1439" y="-309.7" font-family="Helvetica,sans-Serif" font-size="10.00" fill="#ffffff">services</text>
</g>
<!-- services&#45;&gt;plugins_vent_zone -->
<g id="edge20" class="edge">
<title>services&#45;&gt;plugins_vent_zone</title><style>.edge>path:hover{stroke-width:8}</style>
<path fill="none" stroke="black" d="M1259,-189C1182.24,-154.91 1087.47,-130.66 1029.94,-117.75"/>
<polygon fill="#000000" stroke="black" points="1030.52,-114.29 1020,-115.55 1029,-121.13 1030.52,-114.29"/>
</g>
<!-- services_global_error_handler -->
<g id="node23" class="node">
<title>services_global_error_handler</title><style>.edge>path:hover{stroke-width:8}</style>
<ellipse fill="#9947c2" stroke="black" cx="1329" cy="-312.2" rx="61.44" ry="18"/>
<text text-anchor="middle" x="1329" y="-309.7" font-family="Helvetica,sans-Serif" font-size="10.00" fill="#ffffff">global_error_handler</text>
</g>
<!-- services_global_error_handler_error_codes -->
<g id="node24" class="node">
<title>services_global_error_handler_error_codes</title><style>.edge>path:hover{stroke-width:8}</style>
<ellipse fill="#9553b6" stroke="black" cx="1174" cy="-312.2" rx="75.82" ry="21.43"/>
<text text-anchor="middle" x="1174" y="-315.2" font-family="Helvetica,sans-Serif" font-size="10.00" fill="#ffffff">global_error_handler.</text>
<text text-anchor="middle" x="1174" y="-304.2" font-family="Helvetica,sans-Serif" font-size="10.00" fill="#ffffff">error_codes</text>
</g>
<!-- services_global_error_handler_error_codes&#45;&gt;services_global_error_handler_global_error_handler -->
<g id="edge21" class="edge">
<title>services_global_error_handler_error_codes&#45;&gt;services_global_error_handler_global_error_handler</title><style>.edge>path:hover{stroke-width:8}</style>
<path fill="none" stroke="black" d="M1174,-290.79C1174,-278.76 1174,-263.31 1174,-249.84"/>
<polygon fill="#000000" stroke="black" points="1177.5,-249.57 1174,-239.57 1170.5,-249.57 1177.5,-249.57"/>
</g>
<!-- utils -->
<g id="node26" class="node">
<title>utils</title><style>.edge>path:hover{stroke-width:8}</style>
<ellipse fill="#db2fa1" stroke="black" cx="964" cy="-398.2" rx="27" ry="18"/>
<text text-anchor="middle" x="964" y="-395.7" font-family="Helvetica,sans-Serif" font-size="10.00" fill="#ffffff">utils</text>
</g>
<!-- utils&#45;&gt;plugins_base_plugin -->
<g id="edge22" class="edge">
<title>utils&#45;&gt;plugins_base_plugin</title><style>.edge>path:hover{stroke-width:8}</style>
<path fill="none" stroke="black" d="M964,-286.21C964,-283.29 964,-280.4 964,-277.56"/>
<polygon fill="#000000" stroke="black" points="967.5,-277.21 964,-267.21 960.5,-277.21 967.5,-277.21"/>
</g>
<!-- utils_configuarable -->
<g id="node27" class="node">
<title>utils_configuarable</title><style>.edge>path:hover{stroke-width:8}</style>
<ellipse fill="#b65395" stroke="black" cx="875" cy="-398.2" rx="43.62" ry="18"/>
<text text-anchor="middle" x="875" y="-395.7" font-family="Helvetica,sans-Serif" font-size="10.00" fill="#ffffff">configuarable</text>
</g>
<!-- utils_logger -->
<g id="node28" class="node">
<title>utils_logger</title><style>.edge>path:hover{stroke-width:8}</style>
<ellipse fill="#c43193" stroke="black" cx="620" cy="-312.2" rx="27" ry="18"/>
<text text-anchor="middle" x="620" y="-309.7" font-family="Helvetica,sans-Serif" font-size="10.00" fill="#ffffff">logger</text>
</g>
<!-- utils_logic -->
<g id="node29" class="node">
<title>utils_logic</title><style>.edge>path:hover{stroke-width:8}</style>
<ellipse fill="#b65395" stroke="black" cx="786" cy="-398.2" rx="27" ry="18"/>
<text text-anchor="middle" x="786" y="-395.7" font-family="Helvetica,sans-Serif" font-size="10.00" fill="#ffffff">logic</text>
</g>
<!-- utils_logic_timer -->
<g id="node30" class="node">
<title>utils_logic_timer</title><style>.edge>path:hover{stroke-width:8}</style>
<ellipse fill="#b65395" stroke="black" cx="705" cy="-398.2" rx="36.49" ry="18"/>
<text text-anchor="middle" x="705" y="-395.7" font-family="Helvetica,sans-Serif" font-size="10.00" fill="#ffffff">logic.timer</text>
</g>
<!-- utils_settings -->
<g id="node31" class="node">
<title>utils_settings</title><style>.edge>path:hover{stroke-width:8}</style>
<ellipse fill="#b65395" stroke="black" cx="620" cy="-398.2" rx="30.04" ry="18"/>
<text text-anchor="middle" x="620" y="-395.7" font-family="Helvetica,sans-Serif" font-size="10.00" fill="#ffffff">settings</text>
</g>
<!-- utils_settings&#45;&gt;utils_logger -->
<g id="edge23" class="edge">
<title>utils_settings&#45;&gt;utils_logger</title><style>.edge>path:hover{stroke-width:8}</style>
<path fill="none" stroke="black" d="M620,-379.79C620,-368.46 620,-353.43 620,-340.52"/>
<polygon fill="#000000" stroke="black" points="623.5,-340.3 620,-330.3 616.5,-340.3 623.5,-340.3"/>
</g>
<!-- serial&#45;&gt;utils_utils -->
<g id="edge19" class="edge">
<title>serial&#45;&gt;utils_utils</title><style>.edge>path:hover{stroke-width:8}</style>
<path fill="none" stroke="black" d="M523.65,-621.01C526.9,-587.25 534.25,-510.92 539.41,-457.27"/>
<polygon fill="#0505c7" stroke="black" points="542.91,-457.48 540.38,-447.19 535.94,-456.81 542.91,-457.48"/>
</g>
</g>
</svg>
