<?xml version="1.0" encoding="UTF-8" standalone="no"?>
<!DOCTYPE svg PUBLIC "-//W3C//DTD SVG 1.1//EN"
 "http://www.w3.org/Graphics/SVG/1.1/DTD/svg11.dtd">
<!-- Generated by graphviz version 2.50.0 (20211204.2007)
 -->
<!-- Title: G Pages: 1 -->
<svg width="1860pt" height="925pt"
 viewBox="0.00 0.00 1860.00 924.61" xmlns="http://www.w3.org/2000/svg" xmlns:xlink="http://www.w3.org/1999/xlink">
<g id="graph0" class="graph" transform="scale(1 1) rotate(0) translate(4 920.61)">
<title>G</title><style>.edge>path:hover{stroke-width:8}</style>
<polygon fill="white" stroke="transparent" points="-4,4 -4,-920.61 1856,-920.61 1856,4 -4,4"/>
<g id="clust2" class="cluster">
<title>cluster_ctypes</title><style>.edge>path:hover{stroke-width:8}</style>
<polygon fill="none" stroke="black" points="138,-722.2 138,-803.62 1117,-803.62 1117,-722.2 138,-722.2"/>
<text text-anchor="middle" x="627.5" y="-788.42" font-family="Times New Roman,serif" font-size="14.00">ctypes</text>
</g>
<g id="clust1" class="cluster">
<title>cluster_System</title><style>.edge>path:hover{stroke-width:8}</style>
<polygon fill="none" stroke="black" points="8,-811.62 8,-908.61 175,-908.61 175,-811.62 8,-811.62"/>
<text text-anchor="middle" x="91.5" y="-893.41" font-family="Times New Roman,serif" font-size="14.00">System</text>
</g>
<g id="clust7" class="cluster">
<title>cluster_services</title><style>.edge>path:hover{stroke-width:8}</style>
<polygon fill="none" stroke="black" points="1094,-189 1094,-364.42 1482,-364.42 1482,-189 1094,-189"/>
<text text-anchor="middle" x="1288" y="-349.22" font-family="Times New Roman,serif" font-size="14.00">services</text>
</g>
<g id="clust3" class="cluster">
<title>cluster_data</title><style>.edge>path:hover{stroke-width:8}</style>
<polygon fill="none" stroke="black" points="834,-455.2 834,-530.2 1090,-530.2 1090,-455.2 834,-455.2"/>
<text text-anchor="middle" x="962" y="-515" font-family="Times New Roman,serif" font-size="14.00">data</text>
</g>
<g id="clust5" class="cluster">
<title>cluster_plugins</title><style>.edge>path:hover{stroke-width:8}</style>
<polygon fill="none" stroke="black" points="920,-8 920,-267.21 1024,-267.21 1024,-8 920,-8"/>
<text text-anchor="middle" x="972" y="-252.01" font-family="Times New Roman,serif" font-size="14.00">plugins</text>
</g>
<g id="clust6" class="cluster">
<title>cluster_psutil</title><style>.edge>path:hover{stroke-width:8}</style>
<polygon fill="none" stroke="black" points="542,-538.2 542,-613.2 612,-613.2 612,-538.2 542,-538.2"/>
<text text-anchor="middle" x="577" y="-598" font-family="Times New Roman,serif" font-size="14.00">psutil</text>
</g>
<g id="clust4" class="cluster">
<title>cluster_devices</title><style>.edge>path:hover{stroke-width:8}</style>
<polygon fill="none" stroke="black" points="1490,-275.21 1490,-372.2 1844,-372.2 1844,-275.21 1490,-275.21"/>
<text text-anchor="middle" x="1667" y="-357" font-family="Times New Roman,serif" font-size="14.00">devices</text>
</g>
<g id="clust8" class="cluster">
<title>cluster_utils</title><style>.edge>path:hover{stroke-width:8}</style>
<polygon fill="none" stroke="black" points="514,-286.2 514,-447.2 1003,-447.2 1003,-286.2 514,-286.2"/>
<text text-anchor="middle" x="758.5" y="-432" font-family="Times New Roman,serif" font-size="14.00">utils</text>
</g>
<!-- System -->
<g id="node1" class="node">
<title>System</title><style>.edge>path:hover{stroke-width:8}</style>
<ellipse fill="#b65353" stroke="black" cx="45" cy="-848.61" rx="29.37" ry="18"/>
<text text-anchor="middle" x="45" y="-846.11" font-family="Helvetica,sans-Serif" font-size="10.00" fill="#ffffff">System</text>
</g>
<!-- serial -->
<g id="node33" class="node">
<title>serial</title><style>.edge>path:hover{stroke-width:8}</style>
<polygon fill="#0505c7" stroke="black" points="549,-657.2 546,-661.2 525,-661.2 522,-657.2 495,-657.2 495,-621.2 549,-621.2 549,-657.2"/>
<text text-anchor="middle" x="522" y="-636.7" font-family="Helvetica,sans-Serif" font-size="10.00" fill="#ffffff">serial</text>
</g>
<!-- System&#45;&gt;serial -->
<g id="edge1" class="edge">
<title>System&#45;&gt;serial</title><style>.edge>path:hover{stroke-width:8}</style>
<path fill="none" stroke="black" d="M57.36,-811.62C68.34,-784.16 86.73,-746.95 113,-722.2 166.74,-671.55 394.39,-649.56 484.79,-642.71"/>
<polygon fill="#000000" stroke="black" points="485.14,-646.19 494.86,-641.96 484.63,-639.21 485.14,-646.19"/>
</g>
<!-- System_IO_Ports -->
<g id="node2" class="node">
<title>System_IO_Ports</title><style>.edge>path:hover{stroke-width:8}</style>
<ellipse fill="#b65353" stroke="black" cx="130" cy="-848.61" rx="37.45" ry="28.98"/>
<text text-anchor="middle" x="130" y="-857.11" font-family="Helvetica,sans-Serif" font-size="10.00" fill="#ffffff">System.</text>
<text text-anchor="middle" x="130" y="-846.11" font-family="Helvetica,sans-Serif" font-size="10.00" fill="#ffffff">IO.</text>
<text text-anchor="middle" x="130" y="-835.11" font-family="Helvetica,sans-Serif" font-size="10.00" fill="#ffffff">Ports</text>
</g>
<!-- System_IO_Ports&#45;&gt;serial -->
<g id="edge2" class="edge">
<title>System_IO_Ports&#45;&gt;serial</title><style>.edge>path:hover{stroke-width:8}</style>
<path fill="none" stroke="black" d="M120.28,-811.63C115.15,-784.01 113.56,-746.6 134,-722.2 178.87,-668.62 396.55,-648.45 484.76,-642.4"/>
<polygon fill="#000000" stroke="black" points="485.11,-645.88 494.86,-641.73 484.65,-638.9 485.11,-645.88"/>
</g>
<!-- ctypes_POINTER -->
<g id="node3" class="node">
<title>ctypes_POINTER</title><style>.edge>path:hover{stroke-width:8}</style>
<ellipse fill="#b69553" stroke="black" cx="200" cy="-751.41" rx="53.64" ry="18"/>
<text text-anchor="middle" x="200" y="-748.91" font-family="Helvetica,sans-Serif" font-size="10.00" fill="#000000">ctypes.POINTER</text>
</g>
<!-- ctypes_POINTER&#45;&gt;serial -->
<g id="edge3" class="edge">
<title>ctypes_POINTER&#45;&gt;serial</title><style>.edge>path:hover{stroke-width:8}</style>
<path fill="none" stroke="black" d="M262,-722.2C339.93,-692.3 433.87,-664.68 484.79,-650.39"/>
<polygon fill="#000000" stroke="black" points="485.99,-653.69 494.68,-647.63 484.11,-646.95 485.99,-653.69"/>
</g>
<!-- ctypes_Structure -->
<g id="node4" class="node">
<title>ctypes_Structure</title><style>.edge>path:hover{stroke-width:8}</style>
<ellipse fill="#b69553" stroke="black" cx="311" cy="-751.41" rx="39.7" ry="21.43"/>
<text text-anchor="middle" x="311" y="-754.41" font-family="Helvetica,sans-Serif" font-size="10.00" fill="#000000">ctypes.</text>
<text text-anchor="middle" x="311" y="-743.41" font-family="Helvetica,sans-Serif" font-size="10.00" fill="#000000">Structure</text>
</g>
<!-- ctypes_Structure&#45;&gt;serial -->
<g id="edge4" class="edge">
<title>ctypes_Structure&#45;&gt;serial</title><style>.edge>path:hover{stroke-width:8}</style>
<path fill="none" stroke="black" d="M359,-722.2C401.92,-698.82 452.3,-673.84 485.57,-657.68"/>
<polygon fill="#000000" stroke="black" points="487.42,-660.67 494.9,-653.16 484.37,-654.37 487.42,-660.67"/>
</g>
<!-- ctypes_Union -->
<g id="node5" class="node">
<title>ctypes_Union</title><style>.edge>path:hover{stroke-width:8}</style>
<ellipse fill="#b69553" stroke="black" cx="412" cy="-751.41" rx="43.62" ry="18"/>
<text text-anchor="middle" x="412" y="-748.91" font-family="Helvetica,sans-Serif" font-size="10.00" fill="#000000">ctypes.Union</text>
</g>
<!-- ctypes_Union&#45;&gt;serial -->
<g id="edge5" class="edge">
<title>ctypes_Union&#45;&gt;serial</title><style>.edge>path:hover{stroke-width:8}</style>
<path fill="none" stroke="black" d="M440.16,-722.2C457.94,-704.38 480.7,-681.58 497.7,-664.55"/>
<polygon fill="#000000" stroke="black" points="500.23,-666.96 504.82,-657.41 495.28,-662.01 500.23,-666.96"/>
</g>
<!-- ctypes_WinDLL -->
<g id="node6" class="node">
<title>ctypes_WinDLL</title><style>.edge>path:hover{stroke-width:8}</style>
<ellipse fill="#b69553" stroke="black" cx="522" cy="-751.41" rx="48.72" ry="18"/>
<text text-anchor="middle" x="522" y="-748.91" font-family="Helvetica,sans-Serif" font-size="10.00" fill="#000000">ctypes.WinDLL</text>
</g>
<!-- ctypes_WinDLL&#45;&gt;serial -->
<g id="edge6" class="edge">
<title>ctypes_WinDLL&#45;&gt;serial</title><style>.edge>path:hover{stroke-width:8}</style>
<path fill="none" stroke="black" d="M522,-722.2C522,-705.33 522,-684 522,-667.32"/>
<polygon fill="#000000" stroke="black" points="525.5,-667.3 522,-657.3 518.5,-667.3 525.5,-667.3"/>
</g>
<!-- ctypes_c_char -->
<g id="node7" class="node">
<title>ctypes_c_char</title><style>.edge>path:hover{stroke-width:8}</style>
<ellipse fill="#b69553" stroke="black" cx="635" cy="-751.41" rx="45.83" ry="18"/>
<text text-anchor="middle" x="635" y="-748.91" font-family="Helvetica,sans-Serif" font-size="10.00" fill="#000000">ctypes.c_char</text>
</g>
<!-- ctypes_c_char&#45;&gt;serial -->
<g id="edge7" class="edge">
<title>ctypes_c_char&#45;&gt;serial</title><style>.edge>path:hover{stroke-width:8}</style>
<path fill="none" stroke="black" d="M606.07,-722.2C587.72,-704.3 564.23,-681.38 546.74,-664.33"/>
<polygon fill="#000000" stroke="black" points="549.09,-661.73 539.49,-657.25 544.2,-666.74 549.09,-661.73"/>
</g>
<!-- ctypes_c_int64 -->
<g id="node8" class="node">
<title>ctypes_c_int64</title><style>.edge>path:hover{stroke-width:8}</style>
<ellipse fill="#b69553" stroke="black" cx="746" cy="-751.41" rx="47.19" ry="18"/>
<text text-anchor="middle" x="746" y="-748.91" font-family="Helvetica,sans-Serif" font-size="10.00" fill="#000000">ctypes.c_int64</text>
</g>
<!-- ctypes_c_int64&#45;&gt;serial -->
<g id="edge8" class="edge">
<title>ctypes_c_int64&#45;&gt;serial</title><style>.edge>path:hover{stroke-width:8}</style>
<path fill="none" stroke="black" d="M690,-722.2C644.69,-699.72 592.28,-674.22 558.21,-657.71"/>
<polygon fill="#000000" stroke="black" points="559.64,-654.51 549.11,-653.3 556.59,-660.81 559.64,-654.51"/>
</g>
<!-- ctypes_c_ulong -->
<g id="node9" class="node">
<title>ctypes_c_ulong</title><style>.edge>path:hover{stroke-width:8}</style>
<ellipse fill="#b69553" stroke="black" cx="860" cy="-751.41" rx="48.72" ry="18"/>
<text text-anchor="middle" x="860" y="-748.91" font-family="Helvetica,sans-Serif" font-size="10.00" fill="#000000">ctypes.c_ulong</text>
</g>
<!-- ctypes_c_ulong&#45;&gt;serial -->
<g id="edge9" class="edge">
<title>ctypes_c_ulong&#45;&gt;serial</title><style>.edge>path:hover{stroke-width:8}</style>
<path fill="none" stroke="black" d="M802,-722.2C717,-689.34 613.19,-662.17 558.98,-648.92"/>
<polygon fill="#000000" stroke="black" points="559.68,-645.48 549.14,-646.53 558.03,-652.29 559.68,-645.48"/>
</g>
<!-- ctypes_c_void_p -->
<g id="node10" class="node">
<title>ctypes_c_void_p</title><style>.edge>path:hover{stroke-width:8}</style>
<ellipse fill="#b69553" stroke="black" cx="965" cy="-751.41" rx="38.37" ry="21.43"/>
<text text-anchor="middle" x="965" y="-754.41" font-family="Helvetica,sans-Serif" font-size="10.00" fill="#000000">ctypes.</text>
<text text-anchor="middle" x="965" y="-743.41" font-family="Helvetica,sans-Serif" font-size="10.00" fill="#000000">c_void_p</text>
</g>
<!-- ctypes_c_void_p&#45;&gt;serial -->
<g id="edge10" class="edge">
<title>ctypes_c_void_p&#45;&gt;serial</title><style>.edge>path:hover{stroke-width:8}</style>
<path fill="none" stroke="black" d="M918,-722.2C792.04,-672.99 631.45,-651.41 559.64,-643.74"/>
<polygon fill="#000000" stroke="black" points="559.61,-640.22 549.31,-642.67 558.89,-647.18 559.61,-640.22"/>
</g>
<!-- ctypes_sizeof -->
<g id="node11" class="node">
<title>ctypes_sizeof</title><style>.edge>path:hover{stroke-width:8}</style>
<ellipse fill="#b69553" stroke="black" cx="1065" cy="-751.41" rx="43.62" ry="18"/>
<text text-anchor="middle" x="1065" y="-748.91" font-family="Helvetica,sans-Serif" font-size="10.00" fill="#000000">ctypes.sizeof</text>
</g>
<!-- ctypes_sizeof&#45;&gt;serial -->
<g id="edge11" class="edge">
<title>ctypes_sizeof&#45;&gt;serial</title><style>.edge>path:hover{stroke-width:8}</style>
<path fill="none" stroke="black" d="M1012,-722.2C849.24,-666.34 642.57,-647.74 559.28,-642.25"/>
<polygon fill="#000000" stroke="black" points="559.25,-638.75 549.05,-641.61 558.81,-645.73 559.25,-638.75"/>
</g>
<!-- data -->
<g id="node12" class="node">
<title>data</title><style>.edge>path:hover{stroke-width:8}</style>
<ellipse fill="#99c247" stroke="black" cx="1055" cy="-481.2" rx="27" ry="18"/>
<text text-anchor="middle" x="1055" y="-478.7" font-family="Helvetica,sans-Serif" font-size="10.00" fill="#000000">data</text>
</g>
<!-- plugins_vent_zone -->
<g id="node20" class="node">
<title>plugins_vent_zone</title><style>.edge>path:hover{stroke-width:8}</style>
<ellipse fill="#267359" stroke="black" cx="982" cy="-106" rx="34.29" ry="18"/>
<text text-anchor="middle" x="982" y="-103.5" font-family="Helvetica,sans-Serif" font-size="10.00" fill="#ffffff">vent.zone</text>
</g>
<!-- data&#45;&gt;plugins_vent_zone -->
<g id="edge12" class="edge">
<title>data&#45;&gt;plugins_vent_zone</title><style>.edge>path:hover{stroke-width:8}</style>
<path fill="none" stroke="black" d="M1050.37,-455.2C1044.74,-422.64 1036,-363.87 1036,-313.2 1036,-313.2 1036,-313.2 1036,-217.21 1036,-203.96 1032.81,-190.64 1027.98,-178.06"/>
<polygon fill="#000000" stroke="black" points="1031.11,-176.46 1024,-168.61 1024.66,-179.18 1031.11,-176.46"/>
</g>
<!-- services_global_error_handler_global_error_handler -->
<g id="node25" class="node">
<title>services_global_error_handler_global_error_handler</title><style>.edge>path:hover{stroke-width:8}</style>
<ellipse fill="#794096" stroke="black" cx="1178" cy="-218.21" rx="75.82" ry="21.43"/>
<text text-anchor="middle" x="1178" y="-221.21" font-family="Helvetica,sans-Serif" font-size="10.00" fill="#ffffff">global_error_handler.</text>
<text text-anchor="middle" x="1178" y="-210.21" font-family="Helvetica,sans-Serif" font-size="10.00" fill="#ffffff">global_error_handler</text>
</g>
<!-- data&#45;&gt;services_global_error_handler_global_error_handler -->
<g id="edge13" class="edge">
<title>data&#45;&gt;services_global_error_handler_global_error_handler</title><style>.edge>path:hover{stroke-width:8}</style>
<path fill="none" stroke="black" d="M1053.62,-455.2C1052.64,-416.17 1055.53,-339.43 1088.52,-282.57"/>
<polygon fill="#000000" stroke="black" points="1091.7,-284.08 1094,-273.74 1085.76,-280.39 1091.7,-284.08"/>
</g>
<!-- data_register -->
<g id="node13" class="node">
<title>data_register</title><style>.edge>path:hover{stroke-width:8}</style>
<ellipse fill="#99c247" stroke="black" cx="981" cy="-481.2" rx="28.69" ry="18"/>
<text text-anchor="middle" x="981" y="-478.7" font-family="Helvetica,sans-Serif" font-size="10.00" fill="#000000">register</text>
</g>
<!-- data_thermal_mode -->
<g id="node14" class="node">
<title>data_thermal_mode</title><style>.edge>path:hover{stroke-width:8}</style>
<ellipse fill="#95b653" stroke="black" cx="888" cy="-481.2" rx="45.83" ry="18"/>
<text text-anchor="middle" x="888" y="-478.7" font-family="Helvetica,sans-Serif" font-size="10.00" fill="#000000">thermal_mode</text>
</g>
<!-- devices -->
<g id="node15" class="node">
<title>devices</title><style>.edge>path:hover{stroke-width:8}</style>
<ellipse fill="#53b653" stroke="black" cx="1807" cy="-312.2" rx="28.69" ry="18"/>
<text text-anchor="middle" x="1807" y="-309.7" font-family="Helvetica,sans-Serif" font-size="10.00" fill="#000000">devices</text>
</g>
<!-- devices&#45;&gt;plugins_vent_zone -->
<g id="edge14" class="edge">
<title>devices&#45;&gt;plugins_vent_zone</title><style>.edge>path:hover{stroke-width:8}</style>
<path fill="none" stroke="black" d="M1770,-275.21C1656.4,-208.17 1614.5,-218.82 1486,-189 1317.34,-149.86 1112.67,-122.71 1025.11,-112.04"/>
<polygon fill="#000000" stroke="black" points="1034.49,-110.33 1024,-111.82 1033.13,-117.2 1034.49,-110.33"/>
</g>
<!-- devices_factories_air_dampers_air_dampers_factory -->
<g id="node16" class="node">
<title>devices_factories_air_dampers_air_dampers_factory</title><style>.edge>path:hover{stroke-width:8}</style>
<ellipse fill="#53b653" stroke="black" cx="1687" cy="-312.2" rx="73.58" ry="28.98"/>
<text text-anchor="middle" x="1687" y="-320.7" font-family="Helvetica,sans-Serif" font-size="10.00" fill="#000000">factories.</text>
<text text-anchor="middle" x="1687" y="-309.7" font-family="Helvetica,sans-Serif" font-size="10.00" fill="#000000">air_dampers.</text>
<text text-anchor="middle" x="1687" y="-298.7" font-family="Helvetica,sans-Serif" font-size="10.00" fill="#000000">air_dampers_factory</text>
</g>
<!-- devices_factories_fans_fans_factory -->
<g id="node17" class="node">
<title>devices_factories_fans_fans_factory</title><style>.edge>path:hover{stroke-width:8}</style>
<ellipse fill="#53b653" stroke="black" cx="1547" cy="-312.2" rx="48.58" ry="28.98"/>
<text text-anchor="middle" x="1547" y="-320.7" font-family="Helvetica,sans-Serif" font-size="10.00" fill="#000000">factories.</text>
<text text-anchor="middle" x="1547" y="-309.7" font-family="Helvetica,sans-Serif" font-size="10.00" fill="#000000">fans.</text>
<text text-anchor="middle" x="1547" y="-298.7" font-family="Helvetica,sans-Serif" font-size="10.00" fill="#000000">fans_factory</text>
</g>
<!-- plugins_base_plugin -->
<g id="node18" class="node">
<title>plugins_base_plugin</title><style>.edge>path:hover{stroke-width:8}</style>
<ellipse fill="#3ab089" stroke="black" cx="968" cy="-218.21" rx="40.06" ry="18"/>
<text text-anchor="middle" x="968" y="-215.71" font-family="Helvetica,sans-Serif" font-size="10.00" fill="#000000">base_plugin</text>
</g>
<!-- plugins_vent_vent -->
<g id="node19" class="node">
<title>plugins_vent_vent</title><style>.edge>path:hover{stroke-width:8}</style>
<ellipse fill="#3d8f74" stroke="black" cx="982" cy="-34" rx="31.58" ry="18"/>
<text text-anchor="middle" x="982" y="-31.5" font-family="Helvetica,sans-Serif" font-size="10.00" fill="#ffffff">vent.vent</text>
</g>
<!-- plugins_base_plugin&#45;&gt;plugins_vent_vent -->
<g id="edge15" class="edge">
<title>plugins_base_plugin&#45;&gt;plugins_vent_vent</title><style>.edge>path:hover{stroke-width:8}</style>
<path fill="none" stroke="black" d="M958.41,-200.54C945.35,-175.57 925.09,-127.22 939,-88 943.06,-76.54 950.78,-65.76 958.56,-56.94"/>
<polygon fill="#000000" stroke="black" points="961.32,-59.12 965.63,-49.44 956.22,-54.32 961.32,-59.12"/>
</g>
<!-- plugins_base_plugin&#45;&gt;plugins_vent_zone -->
<g id="edge16" class="edge">
<title>plugins_base_plugin&#45;&gt;plugins_vent_zone</title><style>.edge>path:hover{stroke-width:8}</style>
<path fill="none" stroke="black" d="M970.19,-199.99C972.43,-182.36 975.94,-154.7 978.55,-134.12"/>
<polygon fill="#000000" stroke="black" points="982.04,-134.46 979.83,-124.1 975.1,-133.58 982.04,-134.46"/>
</g>
<!-- plugins_vent_zone&#45;&gt;plugins_vent_vent -->
<g id="edge17" class="edge">
<title>plugins_vent_zone&#45;&gt;plugins_vent_vent</title><style>.edge>path:hover{stroke-width:8}</style>
<path fill="none" stroke="black" d="M982,-87.7C982,-79.98 982,-70.71 982,-62.11"/>
<polygon fill="#000000" stroke="black" points="985.5,-62.1 982,-52.1 978.5,-62.1 985.5,-62.1"/>
</g>
<!-- psutil -->
<g id="node21" class="node">
<title>psutil</title><style>.edge>path:hover{stroke-width:8}</style>
<ellipse fill="#5395b6" stroke="black" cx="577" cy="-564.2" rx="27" ry="18"/>
<text text-anchor="middle" x="577" y="-561.7" font-family="Helvetica,sans-Serif" font-size="10.00" fill="#000000">psutil</text>
</g>
<!-- utils_utils -->
<g id="node32" class="node">
<title>utils_utils</title><style>.edge>path:hover{stroke-width:8}</style>
<ellipse fill="#a83883" stroke="black" cx="549" cy="-398.2" rx="27" ry="18"/>
<text text-anchor="middle" x="549" y="-395.7" font-family="Helvetica,sans-Serif" font-size="10.00" fill="#ffffff">utils</text>
</g>
<!-- psutil&#45;&gt;utils_utils -->
<g id="edge18" class="edge">
<title>psutil&#45;&gt;utils_utils</title><style>.edge>path:hover{stroke-width:8}</style>
<path fill="none" stroke="black" d="M572.73,-538.2C569.07,-516.74 563.64,-484.96 558.9,-457.21"/>
<polygon fill="#000000" stroke="black" points="562.33,-456.46 557.19,-447.19 555.43,-457.64 562.33,-456.46"/>
</g>
<!-- services -->
<g id="node22" class="node">
<title>services</title><style>.edge>path:hover{stroke-width:8}</style>
<ellipse fill="#9947c2" stroke="black" cx="1443" cy="-312.2" rx="30.72" ry="18"/>
<text text-anchor="middle" x="1443" y="-309.7" font-family="Helvetica,sans-Serif" font-size="10.00" fill="#ffffff">services</text>
</g>
<!-- services&#45;&gt;plugins_vent_zone -->
<g id="edge20" class="edge">
<title>services&#45;&gt;plugins_vent_zone</title><style>.edge>path:hover{stroke-width:8}</style>
<path fill="none" stroke="black" d="M1263,-189C1186.24,-154.91 1091.47,-130.66 1033.94,-117.75"/>
<polygon fill="#000000" stroke="black" points="1034.52,-114.29 1024,-115.55 1033,-121.13 1034.52,-114.29"/>
</g>
<!-- services_global_error_handler -->
<g id="node23" class="node">
<title>services_global_error_handler</title><style>.edge>path:hover{stroke-width:8}</style>
<ellipse fill="#9947c2" stroke="black" cx="1333" cy="-312.2" rx="61.44" ry="18"/>
<text text-anchor="middle" x="1333" y="-309.7" font-family="Helvetica,sans-Serif" font-size="10.00" fill="#ffffff">global_error_handler</text>
</g>
<!-- services_global_error_handler_error_codes -->
<g id="node24" class="node">
<title>services_global_error_handler_error_codes</title><style>.edge>path:hover{stroke-width:8}</style>
<ellipse fill="#9553b6" stroke="black" cx="1178" cy="-312.2" rx="75.82" ry="21.43"/>
<text text-anchor="middle" x="1178" y="-315.2" font-family="Helvetica,sans-Serif" font-size="10.00" fill="#ffffff">global_error_handler.</text>
<text text-anchor="middle" x="1178" y="-304.2" font-family="Helvetica,sans-Serif" font-size="10.00" fill="#ffffff">error_codes</text>
</g>
<!-- services_global_error_handler_error_codes&#45;&gt;services_global_error_handler_global_error_handler -->
<g id="edge21" class="edge">
<title>services_global_error_handler_error_codes&#45;&gt;services_global_error_handler_global_error_handler</title><style>.edge>path:hover{stroke-width:8}</style>
<path fill="none" stroke="black" d="M1178,-290.79C1178,-278.76 1178,-263.31 1178,-249.84"/>
<polygon fill="#000000" stroke="black" points="1181.5,-249.57 1178,-239.57 1174.5,-249.57 1181.5,-249.57"/>
</g>
<!-- utils -->
<g id="node26" class="node">
<title>utils</title><style>.edge>path:hover{stroke-width:8}</style>
<ellipse fill="#db2fa1" stroke="black" cx="968" cy="-398.2" rx="27" ry="18"/>
<text text-anchor="middle" x="968" y="-395.7" font-family="Helvetica,sans-Serif" font-size="10.00" fill="#ffffff">utils</text>
</g>
<!-- utils&#45;&gt;plugins_base_plugin -->
<g id="edge22" class="edge">
<title>utils&#45;&gt;plugins_base_plugin</title><style>.edge>path:hover{stroke-width:8}</style>
<path fill="none" stroke="black" d="M968,-286.21C968,-283.29 968,-280.4 968,-277.56"/>
<polygon fill="#000000" stroke="black" points="971.5,-277.21 968,-267.21 964.5,-277.21 971.5,-277.21"/>
</g>
<!-- utils_configuarable -->
<g id="node27" class="node">
<title>utils_configuarable</title><style>.edge>path:hover{stroke-width:8}</style>
<ellipse fill="#b65395" stroke="black" cx="879" cy="-398.2" rx="43.62" ry="18"/>
<text text-anchor="middle" x="879" y="-395.7" font-family="Helvetica,sans-Serif" font-size="10.00" fill="#ffffff">configuarable</text>
</g>
<!-- utils_logger -->
<g id="node28" class="node">
<title>utils_logger</title><style>.edge>path:hover{stroke-width:8}</style>
<ellipse fill="#c43193" stroke="black" cx="624" cy="-312.2" rx="27" ry="18"/>
<text text-anchor="middle" x="624" y="-309.7" font-family="Helvetica,sans-Serif" font-size="10.00" fill="#ffffff">logger</text>
</g>
<!-- utils_logic -->
<g id="node29" class="node">
<title>utils_logic</title><style>.edge>path:hover{stroke-width:8}</style>
<ellipse fill="#b65395" stroke="black" cx="790" cy="-398.2" rx="27" ry="18"/>
<text text-anchor="middle" x="790" y="-395.7" font-family="Helvetica,sans-Serif" font-size="10.00" fill="#ffffff">logic</text>
</g>
<!-- utils_logic_timer -->
<g id="node30" class="node">
<title>utils_logic_timer</title><style>.edge>path:hover{stroke-width:8}</style>
<ellipse fill="#b65395" stroke="black" cx="709" cy="-398.2" rx="36.49" ry="18"/>
<text text-anchor="middle" x="709" y="-395.7" font-family="Helvetica,sans-Serif" font-size="10.00" fill="#ffffff">logic.timer</text>
</g>
<!-- utils_settings -->
<g id="node31" class="node">
<title>utils_settings</title><style>.edge>path:hover{stroke-width:8}</style>
<ellipse fill="#b65395" stroke="black" cx="624" cy="-398.2" rx="30.04" ry="18"/>
<text text-anchor="middle" x="624" y="-395.7" font-family="Helvetica,sans-Serif" font-size="10.00" fill="#ffffff">settings</text>
</g>
<!-- utils_settings&#45;&gt;utils_logger -->
<g id="edge23" class="edge">
<title>utils_settings&#45;&gt;utils_logger</title><style>.edge>path:hover{stroke-width:8}</style>
<path fill="none" stroke="black" d="M624,-379.79C624,-368.46 624,-353.43 624,-340.52"/>
<polygon fill="#000000" stroke="black" points="627.5,-340.3 624,-330.3 620.5,-340.3 627.5,-340.3"/>
</g>
<!-- serial&#45;&gt;utils_utils -->
<g id="edge19" class="edge">
<title>serial&#45;&gt;utils_utils</title><style>.edge>path:hover{stroke-width:8}</style>
<path fill="none" stroke="black" d="M523.94,-621.01C527.76,-587.25 536.38,-510.92 542.44,-457.27"/>
<polygon fill="#0505c7" stroke="black" points="545.93,-457.52 543.58,-447.19 538.98,-456.74 545.93,-457.52"/>
</g>
</g>
</svg>
