<?xml version="1.0" encoding="UTF-8" standalone="no"?>
<!DOCTYPE svg PUBLIC "-//W3C//DTD SVG 1.1//EN"
 "http://www.w3.org/Graphics/SVG/1.1/DTD/svg11.dtd">
<!-- Generated by graphviz version 2.50.0 (20211204.2007)
 -->
<!-- Title: G Pages: 1 -->
<svg width="1024pt" height="470pt"
 viewBox="0.00 0.00 1024.00 469.84" xmlns="http://www.w3.org/2000/svg" xmlns:xlink="http://www.w3.org/1999/xlink">
<g id="graph0" class="graph" transform="scale(1 1) rotate(0) translate(4 465.84)">
<title>G</title><style>.edge>path:hover{stroke-width:8}</style>
<polygon fill="white" stroke="transparent" points="-4,4 -4,-465.84 1020,-465.84 1020,4 -4,4"/>
<g id="clust3" class="cluster">
<title>cluster_plugins</title><style>.edge>path:hover{stroke-width:8}</style>
<polygon fill="none" stroke="black" points="535,-18.99 535,-217.2 631,-217.2 631,-18.99 535,-18.99"/>
<text text-anchor="middle" x="583" y="-202" font-family="Times New Roman,serif" font-size="14.00">plugins</text>
</g>
<g id="clust1" class="cluster">
<title>cluster_data</title><style>.edge>path:hover{stroke-width:8}</style>
<polygon fill="none" stroke="black" points="8,-378.84 8,-453.84 154,-453.84 154,-378.84 8,-378.84"/>
<text text-anchor="middle" x="81" y="-438.64" font-family="Times New Roman,serif" font-size="14.00">data</text>
</g>
<g id="clust2" class="cluster">
<title>cluster_devices</title><style>.edge>path:hover{stroke-width:8}</style>
<polygon fill="none" stroke="black" points="639,-8 639,-298.84 1008,-298.84 1008,-8 639,-8"/>
<text text-anchor="middle" x="823.5" y="-283.64" font-family="Times New Roman,serif" font-size="14.00">devices</text>
</g>
<g id="clust5" class="cluster">
<title>cluster_utils</title><style>.edge>path:hover{stroke-width:8}</style>
<polygon fill="none" stroke="black" points="607,-306.84 607,-453.84 861,-453.84 861,-306.84 607,-306.84"/>
<text text-anchor="middle" x="734" y="-438.64" font-family="Times New Roman,serif" font-size="14.00">utils</text>
</g>
<g id="clust4" class="cluster">
<title>cluster_services</title><style>.edge>path:hover{stroke-width:8}</style>
<polygon fill="none" stroke="black" points="139,-138.98 139,-298.84 527,-298.84 527,-138.98 139,-138.98"/>
<text text-anchor="middle" x="333" y="-283.64" font-family="Times New Roman,serif" font-size="14.00">services</text>
</g>
<!-- data -->
<g id="node1" class="node">
<title>data</title><style>.edge>path:hover{stroke-width:8}</style>
<ellipse fill="#b65353" stroke="black" cx="119" cy="-404.84" rx="27" ry="18"/>
<text text-anchor="middle" x="119" y="-402.34" font-family="Helvetica,sans-Serif" font-size="10.00" fill="#ffffff">data</text>
</g>
<!-- services_global_error_handler_global_error_handler -->
<g id="node13" class="node">
<title>services_global_error_handler_global_error_handler</title><style>.edge>path:hover{stroke-width:8}</style>
<ellipse fill="#406296" stroke="black" cx="223" cy="-168.2" rx="75.82" ry="21.43"/>
<text text-anchor="middle" x="223" y="-171.2" font-family="Helvetica,sans-Serif" font-size="10.00" fill="#ffffff">global_error_handler.</text>
<text text-anchor="middle" x="223" y="-160.2" font-family="Helvetica,sans-Serif" font-size="10.00" fill="#ffffff">global_error_handler</text>
</g>
<!-- data&#45;&gt;services_global_error_handler_global_error_handler -->
<g id="edge1" class="edge">
<title>data&#45;&gt;services_global_error_handler_global_error_handler</title><style>.edge>path:hover{stroke-width:8}</style>
<path fill="none" stroke="black" d="M115.35,-378.84C111.56,-344.44 109.19,-281.31 134.01,-232.76"/>
<polygon fill="#000000" stroke="black" points="137.19,-234.24 139,-223.81 131.07,-230.83 137.19,-234.24"/>
</g>
<!-- data_register -->
<g id="node2" class="node">
<title>data_register</title><style>.edge>path:hover{stroke-width:8}</style>
<ellipse fill="#b65353" stroke="black" cx="45" cy="-404.84" rx="28.69" ry="18"/>
<text text-anchor="middle" x="45" y="-402.34" font-family="Helvetica,sans-Serif" font-size="10.00" fill="#ffffff">register</text>
</g>
<!-- devices -->
<g id="node3" class="node">
<title>devices</title><style>.edge>path:hover{stroke-width:8}</style>
<ellipse fill="#a9c247" stroke="black" cx="871" cy="-246.62" rx="28.69" ry="18"/>
<text text-anchor="middle" x="871" y="-244.12" font-family="Helvetica,sans-Serif" font-size="10.00" fill="#000000">devices</text>
</g>
<!-- plugins_ecc_ecc -->
<g id="node9" class="node">
<title>plugins_ecc_ecc</title><style>.edge>path:hover{stroke-width:8}</style>
<ellipse fill="#2e6b46" stroke="black" cx="583" cy="-44.99" rx="30.04" ry="18"/>
<text text-anchor="middle" x="583" y="-42.49" font-family="Helvetica,sans-Serif" font-size="10.00" fill="#ffffff">ecc.ecc</text>
</g>
<!-- devices&#45;&gt;plugins_ecc_ecc -->
<g id="edge2" class="edge">
<title>devices&#45;&gt;plugins_ecc_ecc</title><style>.edge>path:hover{stroke-width:8}</style>
<path fill="none" stroke="black" d="M639,-85.22C637,-83.73 635,-82.24 633,-80.75"/>
<polygon fill="#000000" stroke="black" points="641.11,-82.42 631,-79.26 636.93,-88.04 641.11,-82.42"/>
</g>
<!-- devices_base_device -->
<g id="node4" class="node">
<title>devices_base_device</title><style>.edge>path:hover{stroke-width:8}</style>
<ellipse fill="#98ac49" stroke="black" cx="959" cy="-246.62" rx="41.41" ry="18"/>
<text text-anchor="middle" x="959" y="-244.12" font-family="Helvetica,sans-Serif" font-size="10.00" fill="#000000">base_device</text>
</g>
<!-- devices_vendors_no_vendor_6_boiler -->
<g id="node7" class="node">
<title>devices_vendors_no_vendor_6_boiler</title><style>.edge>path:hover{stroke-width:8}</style>
<ellipse fill="#8b9d43" stroke="black" cx="948" cy="-44.99" rx="52.15" ry="28.98"/>
<text text-anchor="middle" x="948" y="-53.49" font-family="Helvetica,sans-Serif" font-size="10.00" fill="#000000">vendors.</text>
<text text-anchor="middle" x="948" y="-42.49" font-family="Helvetica,sans-Serif" font-size="10.00" fill="#000000">no_vendor_6.</text>
<text text-anchor="middle" x="948" y="-31.49" font-family="Helvetica,sans-Serif" font-size="10.00" fill="#000000">boiler</text>
</g>
<!-- devices_base_device&#45;&gt;devices_vendors_no_vendor_6_boiler -->
<g id="edge3" class="edge">
<title>devices_base_device&#45;&gt;devices_vendors_no_vendor_6_boiler</title><style>.edge>path:hover{stroke-width:8}</style>
<path fill="none" stroke="black" d="M958.06,-228.6C956.31,-196.81 952.5,-127.69 950.11,-84.2"/>
<polygon fill="#000000" stroke="black" points="953.59,-83.79 949.54,-74 946.6,-84.17 953.59,-83.79"/>
</g>
<!-- devices_vendors -->
<g id="node5" class="node">
<title>devices_vendors</title><style>.edge>path:hover{stroke-width:8}</style>
<ellipse fill="#a2b653" stroke="black" cx="795" cy="-246.62" rx="29.37" ry="18"/>
<text text-anchor="middle" x="795" y="-244.12" font-family="Helvetica,sans-Serif" font-size="10.00" fill="#000000">vendors</text>
</g>
<!-- devices_vendors_no_vendor_6 -->
<g id="node6" class="node">
<title>devices_vendors_no_vendor_6</title><style>.edge>path:hover{stroke-width:8}</style>
<ellipse fill="#a2b653" stroke="black" cx="697" cy="-246.62" rx="50.41" ry="21.43"/>
<text text-anchor="middle" x="697" y="-249.62" font-family="Helvetica,sans-Serif" font-size="10.00" fill="#000000">vendors.</text>
<text text-anchor="middle" x="697" y="-238.62" font-family="Helvetica,sans-Serif" font-size="10.00" fill="#000000">no_vendor_6</text>
</g>
<!-- plugins_base_plugin -->
<g id="node8" class="node">
<title>plugins_base_plugin</title><style>.edge>path:hover{stroke-width:8}</style>
<ellipse fill="#46a46c" stroke="black" cx="583" cy="-168.2" rx="40.06" ry="18"/>
<text text-anchor="middle" x="583" y="-165.7" font-family="Helvetica,sans-Serif" font-size="10.00" fill="#000000">base_plugin</text>
</g>
<!-- plugins_base_plugin&#45;&gt;plugins_ecc_ecc -->
<g id="edge4" class="edge">
<title>plugins_base_plugin&#45;&gt;plugins_ecc_ecc</title><style>.edge>path:hover{stroke-width:8}</style>
<path fill="none" stroke="black" d="M583,-150.09C583,-130.06 583,-96.62 583,-73.06"/>
<polygon fill="#000000" stroke="black" points="586.5,-73.01 583,-63.01 579.5,-73.01 586.5,-73.01"/>
</g>
<!-- services -->
<g id="node10" class="node">
<title>services</title><style>.edge>path:hover{stroke-width:8}</style>
<ellipse fill="#4778c2" stroke="black" cx="488" cy="-246.62" rx="30.72" ry="18"/>
<text text-anchor="middle" x="488" y="-244.12" font-family="Helvetica,sans-Serif" font-size="10.00" fill="#ffffff">services</text>
</g>
<!-- services&#45;&gt;plugins_ecc_ecc -->
<g id="edge5" class="edge">
<title>services&#45;&gt;plugins_ecc_ecc</title><style>.edge>path:hover{stroke-width:8}</style>
<path fill="none" stroke="black" d="M527,-154C528.23,-151.32 529.47,-148.64 530.71,-145.97"/>
<polygon fill="#000000" stroke="black" points="533.89,-147.43 535,-136.9 527.56,-144.44 533.89,-147.43"/>
</g>
<!-- services_global_error_handler -->
<g id="node11" class="node">
<title>services_global_error_handler</title><style>.edge>path:hover{stroke-width:8}</style>
<ellipse fill="#4778c2" stroke="black" cx="378" cy="-246.62" rx="61.44" ry="18"/>
<text text-anchor="middle" x="378" y="-244.12" font-family="Helvetica,sans-Serif" font-size="10.00" fill="#ffffff">global_error_handler</text>
</g>
<!-- services_global_error_handler_error_codes -->
<g id="node12" class="node">
<title>services_global_error_handler_error_codes</title><style>.edge>path:hover{stroke-width:8}</style>
<ellipse fill="#537bb6" stroke="black" cx="223" cy="-246.62" rx="75.82" ry="21.43"/>
<text text-anchor="middle" x="223" y="-249.62" font-family="Helvetica,sans-Serif" font-size="10.00" fill="#ffffff">global_error_handler.</text>
<text text-anchor="middle" x="223" y="-238.62" font-family="Helvetica,sans-Serif" font-size="10.00" fill="#ffffff">error_codes</text>
</g>
<!-- services_global_error_handler_error_codes&#45;&gt;services_global_error_handler_global_error_handler -->
<g id="edge6" class="edge">
<title>services_global_error_handler_error_codes&#45;&gt;services_global_error_handler_global_error_handler</title><style>.edge>path:hover{stroke-width:8}</style>
<path fill="none" stroke="black" d="M223,-225.14C223,-217.28 223,-208.14 223,-199.55"/>
<polygon fill="#000000" stroke="black" points="226.5,-199.47 223,-189.47 219.5,-199.47 226.5,-199.47"/>
</g>
<!-- utils -->
<g id="node14" class="node">
<title>utils</title><style>.edge>path:hover{stroke-width:8}</style>
<ellipse fill="#c022e7" stroke="black" cx="642" cy="-404.84" rx="27" ry="18"/>
<text text-anchor="middle" x="642" y="-402.34" font-family="Helvetica,sans-Serif" font-size="10.00" fill="#ffffff">utils</text>
</g>
<!-- utils&#45;&gt;devices_base_device -->
<g id="edge7" class="edge">
<title>utils&#45;&gt;devices_base_device</title><style>.edge>path:hover{stroke-width:8}</style>
<path fill="none" stroke="black" d="M787,-306.84C809.93,-299.12 869.21,-307.81 899.34,-301.78"/>
<polygon fill="#000000" stroke="black" points="900.46,-305.1 909,-298.84 898.41,-298.41 900.46,-305.1"/>
</g>
<!-- utils&#45;&gt;plugins_base_plugin -->
<g id="edge8" class="edge">
<title>utils&#45;&gt;plugins_base_plugin</title><style>.edge>path:hover{stroke-width:8}</style>
<path fill="none" stroke="black" d="M617.61,-306.84C610.8,-279.74 603.61,-251.14 597.56,-227.08"/>
<polygon fill="#000000" stroke="black" points="600.9,-226.04 595.07,-217.2 594.11,-227.75 600.9,-226.04"/>
</g>
<!-- utils_configuarable -->
<g id="node15" class="node">
<title>utils_configuarable</title><style>.edge>path:hover{stroke-width:8}</style>
<ellipse fill="#a947c2" stroke="black" cx="731" cy="-404.84" rx="43.62" ry="18"/>
<text text-anchor="middle" x="731" y="-402.34" font-family="Helvetica,sans-Serif" font-size="10.00" fill="#ffffff">configuarable</text>
</g>
<!-- utils_logger -->
<g id="node16" class="node">
<title>utils_logger</title><style>.edge>path:hover{stroke-width:8}</style>
<ellipse fill="#a731c4" stroke="black" cx="823" cy="-332.84" rx="27" ry="18"/>
<text text-anchor="middle" x="823" y="-330.34" font-family="Helvetica,sans-Serif" font-size="10.00" fill="#ffffff">logger</text>
</g>
<!-- utils_settings -->
<g id="node17" class="node">
<title>utils_settings</title><style>.edge>path:hover{stroke-width:8}</style>
<ellipse fill="#a253b6" stroke="black" cx="823" cy="-404.84" rx="30.04" ry="18"/>
<text text-anchor="middle" x="823" y="-402.34" font-family="Helvetica,sans-Serif" font-size="10.00" fill="#ffffff">settings</text>
</g>
<!-- utils_settings&#45;&gt;utils_logger -->
<g id="edge9" class="edge">
<title>utils_settings&#45;&gt;utils_logger</title><style>.edge>path:hover{stroke-width:8}</style>
<path fill="none" stroke="black" d="M823,-386.53C823,-378.82 823,-369.55 823,-360.95"/>
<polygon fill="#000000" stroke="black" points="826.5,-360.94 823,-350.94 819.5,-360.94 826.5,-360.94"/>
</g>
</g>
</svg>
