<?xml version="1.0" encoding="UTF-8" standalone="no"?>
<!DOCTYPE svg PUBLIC "-//W3C//DTD SVG 1.1//EN"
 "http://www.w3.org/Graphics/SVG/1.1/DTD/svg11.dtd">
<!-- Generated by graphviz version 2.50.0 (20211204.2007)
 -->
<!-- Title: G Pages: 1 -->
<svg width="1274pt" height="553pt"
 viewBox="0.00 0.00 1274.00 552.62" xmlns="http://www.w3.org/2000/svg" xmlns:xlink="http://www.w3.org/1999/xlink">
<g id="graph0" class="graph" transform="scale(1 1) rotate(0) translate(4 548.62)">
<title>G</title><style>.edge>path:hover{stroke-width:8}</style>
<polygon fill="white" stroke="transparent" points="-4,4 -4,-548.62 1270,-548.62 1270,4 -4,4"/>
<g id="clust1" class="cluster">
<title>cluster_data</title><style>.edge>path:hover{stroke-width:8}</style>
<polygon fill="none" stroke="black" points="8,-461.62 8,-536.62 154,-536.62 154,-461.62 8,-461.62"/>
<text text-anchor="middle" x="81" y="-521.42" font-family="Times New Roman,serif" font-size="14.00">data</text>
</g>
<g id="clust3" class="cluster">
<title>cluster_plugins</title><style>.edge>path:hover{stroke-width:8}</style>
<polygon fill="none" stroke="black" points="955,-8 955,-267.21 1067,-267.21 1067,-8 955,-8"/>
<text text-anchor="middle" x="1011" y="-252.01" font-family="Times New Roman,serif" font-size="14.00">plugins</text>
</g>
<g id="clust4" class="cluster">
<title>cluster_services</title><style>.edge>path:hover{stroke-width:8}</style>
<polygon fill="none" stroke="black" points="139,-189 139,-364.42 527,-364.42 527,-189 139,-189"/>
<text text-anchor="middle" x="333" y="-349.22" font-family="Times New Roman,serif" font-size="14.00">services</text>
</g>
<g id="clust2" class="cluster">
<title>cluster_devices</title><style>.edge>path:hover{stroke-width:8}</style>
<polygon fill="none" stroke="black" points="1058,-275.21 1058,-372.2 1258,-372.2 1258,-275.21 1058,-275.21"/>
<text text-anchor="middle" x="1158" y="-357" font-family="Times New Roman,serif" font-size="14.00">devices</text>
</g>
<g id="clust5" class="cluster">
<title>cluster_utils</title><style>.edge>path:hover{stroke-width:8}</style>
<polygon fill="none" stroke="black" points="535,-286.2 535,-453.62 1050,-453.62 1050,-286.2 535,-286.2"/>
<text text-anchor="middle" x="792.5" y="-438.42" font-family="Times New Roman,serif" font-size="14.00">utils</text>
</g>
<!-- data -->
<g id="node1" class="node">
<title>data</title><style>.edge>path:hover{stroke-width:8}</style>
<ellipse fill="#b65353" stroke="black" cx="119" cy="-487.62" rx="27" ry="18"/>
<text text-anchor="middle" x="119" y="-485.12" font-family="Helvetica,sans-Serif" font-size="10.00" fill="#ffffff">data</text>
</g>
<!-- services_global_error_handler_global_error_handler -->
<g id="node11" class="node">
<title>services_global_error_handler_global_error_handler</title><style>.edge>path:hover{stroke-width:8}</style>
<ellipse fill="#406296" stroke="black" cx="223" cy="-218.21" rx="75.82" ry="21.43"/>
<text text-anchor="middle" x="223" y="-221.21" font-family="Helvetica,sans-Serif" font-size="10.00" fill="#ffffff">global_error_handler.</text>
<text text-anchor="middle" x="223" y="-210.21" font-family="Helvetica,sans-Serif" font-size="10.00" fill="#ffffff">global_error_handler</text>
</g>
<!-- data&#45;&gt;services_global_error_handler_global_error_handler -->
<g id="edge1" class="edge">
<title>data&#45;&gt;services_global_error_handler_global_error_handler</title><style>.edge>path:hover{stroke-width:8}</style>
<path fill="none" stroke="black" d="M114.68,-461.63C109.07,-421.78 103.3,-342.32 134.07,-282.47"/>
<polygon fill="#000000" stroke="black" points="137.21,-284.03 139,-273.59 131.09,-280.63 137.21,-284.03"/>
</g>
<!-- data_register -->
<g id="node2" class="node">
<title>data_register</title><style>.edge>path:hover{stroke-width:8}</style>
<ellipse fill="#b65353" stroke="black" cx="45" cy="-487.62" rx="28.69" ry="18"/>
<text text-anchor="middle" x="45" y="-485.12" font-family="Helvetica,sans-Serif" font-size="10.00" fill="#ffffff">register</text>
</g>
<!-- devices -->
<g id="node3" class="node">
<title>devices</title><style>.edge>path:hover{stroke-width:8}</style>
<ellipse fill="#a2b653" stroke="black" cx="1221" cy="-312.2" rx="28.69" ry="18"/>
<text text-anchor="middle" x="1221" y="-309.7" font-family="Helvetica,sans-Serif" font-size="10.00" fill="#000000">devices</text>
</g>
<!-- plugins_blinds_blind -->
<g id="node6" class="node">
<title>plugins_blinds_blind</title><style>.edge>path:hover{stroke-width:8}</style>
<ellipse fill="#267345" stroke="black" cx="1001" cy="-106" rx="38.03" ry="18"/>
<text text-anchor="middle" x="1001" y="-103.5" font-family="Helvetica,sans-Serif" font-size="10.00" fill="#ffffff">blinds.blind</text>
</g>
<!-- devices&#45;&gt;plugins_blinds_blind -->
<g id="edge2" class="edge">
<title>devices&#45;&gt;plugins_blinds_blind</title><style>.edge>path:hover{stroke-width:8}</style>
<path fill="none" stroke="black" d="M1183,-275.21C1147.4,-241.91 1107.67,-205.13 1074.43,-174.49"/>
<polygon fill="#000000" stroke="black" points="1076.72,-171.84 1067,-167.64 1071.98,-176.99 1076.72,-171.84"/>
</g>
<!-- devices_factories_blinds_blinds_factory -->
<g id="node4" class="node">
<title>devices_factories_blinds_blinds_factory</title><style>.edge>path:hover{stroke-width:8}</style>
<ellipse fill="#a2b653" stroke="black" cx="1120" cy="-312.2" rx="54.39" ry="28.98"/>
<text text-anchor="middle" x="1120" y="-320.7" font-family="Helvetica,sans-Serif" font-size="10.00" fill="#000000">factories.</text>
<text text-anchor="middle" x="1120" y="-309.7" font-family="Helvetica,sans-Serif" font-size="10.00" fill="#000000">blinds.</text>
<text text-anchor="middle" x="1120" y="-298.7" font-family="Helvetica,sans-Serif" font-size="10.00" fill="#000000">blinds_factory</text>
</g>
<!-- plugins_base_plugin -->
<g id="node5" class="node">
<title>plugins_base_plugin</title><style>.edge>path:hover{stroke-width:8}</style>
<ellipse fill="#3ab069" stroke="black" cx="1015" cy="-218.21" rx="40.06" ry="18"/>
<text text-anchor="middle" x="1015" y="-215.71" font-family="Helvetica,sans-Serif" font-size="10.00" fill="#000000">base_plugin</text>
</g>
<!-- plugins_base_plugin&#45;&gt;plugins_blinds_blind -->
<g id="edge3" class="edge">
<title>plugins_base_plugin&#45;&gt;plugins_blinds_blind</title><style>.edge>path:hover{stroke-width:8}</style>
<path fill="none" stroke="black" d="M1012.81,-199.99C1010.57,-182.36 1007.06,-154.7 1004.45,-134.12"/>
<polygon fill="#000000" stroke="black" points="1007.9,-133.58 1003.17,-124.1 1000.96,-134.46 1007.9,-133.58"/>
</g>
<!-- plugins_blinds_blinds -->
<g id="node7" class="node">
<title>plugins_blinds_blinds</title><style>.edge>path:hover{stroke-width:8}</style>
<ellipse fill="#3d8f5e" stroke="black" cx="1005" cy="-34" rx="41.59" ry="18"/>
<text text-anchor="middle" x="1005" y="-31.5" font-family="Helvetica,sans-Serif" font-size="10.00" fill="#ffffff">blinds.blinds</text>
</g>
<!-- plugins_base_plugin&#45;&gt;plugins_blinds_blinds -->
<g id="edge4" class="edge">
<title>plugins_base_plugin&#45;&gt;plugins_blinds_blinds</title><style>.edge>path:hover{stroke-width:8}</style>
<path fill="none" stroke="black" d="M1025.44,-200.61C1039.71,-175.74 1062.01,-127.5 1048,-88 1044.12,-77.06 1036.91,-66.72 1029.48,-58.14"/>
<polygon fill="#000000" stroke="black" points="1032.05,-55.76 1022.7,-50.78 1026.9,-60.5 1032.05,-55.76"/>
</g>
<!-- plugins_blinds_blind&#45;&gt;plugins_blinds_blinds -->
<g id="edge5" class="edge">
<title>plugins_blinds_blind&#45;&gt;plugins_blinds_blinds</title><style>.edge>path:hover{stroke-width:8}</style>
<path fill="none" stroke="black" d="M1001.99,-87.7C1002.43,-79.98 1002.96,-70.71 1003.45,-62.11"/>
<polygon fill="#000000" stroke="black" points="1006.95,-62.29 1004.02,-52.1 999.96,-61.89 1006.95,-62.29"/>
</g>
<!-- services -->
<g id="node8" class="node">
<title>services</title><style>.edge>path:hover{stroke-width:8}</style>
<ellipse fill="#4778c2" stroke="black" cx="488" cy="-312.2" rx="30.72" ry="18"/>
<text text-anchor="middle" x="488" y="-309.7" font-family="Helvetica,sans-Serif" font-size="10.00" fill="#ffffff">services</text>
</g>
<!-- services&#45;&gt;plugins_blinds_blind -->
<g id="edge6" class="edge">
<title>services&#45;&gt;plugins_blinds_blind</title><style>.edge>path:hover{stroke-width:8}</style>
<path fill="none" stroke="black" d="M527,-277.63C528.33,-276.79 529.66,-275.98 531,-275.21 670.36,-195.37 854.26,-142.97 945.18,-120.13"/>
<polygon fill="#000000" stroke="black" points="946.15,-123.49 955,-117.68 944.46,-116.7 946.15,-123.49"/>
</g>
<!-- services_global_error_handler -->
<g id="node9" class="node">
<title>services_global_error_handler</title><style>.edge>path:hover{stroke-width:8}</style>
<ellipse fill="#4778c2" stroke="black" cx="378" cy="-312.2" rx="61.44" ry="18"/>
<text text-anchor="middle" x="378" y="-309.7" font-family="Helvetica,sans-Serif" font-size="10.00" fill="#ffffff">global_error_handler</text>
</g>
<!-- services_global_error_handler_error_codes -->
<g id="node10" class="node">
<title>services_global_error_handler_error_codes</title><style>.edge>path:hover{stroke-width:8}</style>
<ellipse fill="#537bb6" stroke="black" cx="223" cy="-312.2" rx="75.82" ry="21.43"/>
<text text-anchor="middle" x="223" y="-315.2" font-family="Helvetica,sans-Serif" font-size="10.00" fill="#ffffff">global_error_handler.</text>
<text text-anchor="middle" x="223" y="-304.2" font-family="Helvetica,sans-Serif" font-size="10.00" fill="#ffffff">error_codes</text>
</g>
<!-- services_global_error_handler_error_codes&#45;&gt;services_global_error_handler_global_error_handler -->
<g id="edge7" class="edge">
<title>services_global_error_handler_error_codes&#45;&gt;services_global_error_handler_global_error_handler</title><style>.edge>path:hover{stroke-width:8}</style>
<path fill="none" stroke="black" d="M223,-290.79C223,-278.76 223,-263.31 223,-249.84"/>
<polygon fill="#000000" stroke="black" points="226.5,-249.57 223,-239.57 219.5,-249.57 226.5,-249.57"/>
</g>
<!-- utils -->
<g id="node12" class="node">
<title>utils</title><style>.edge>path:hover{stroke-width:8}</style>
<ellipse fill="#b82fdb" stroke="black" cx="1015" cy="-401.41" rx="27" ry="18"/>
<text text-anchor="middle" x="1015" y="-398.91" font-family="Helvetica,sans-Serif" font-size="10.00" fill="#ffffff">utils</text>
</g>
<!-- utils&#45;&gt;plugins_base_plugin -->
<g id="edge8" class="edge">
<title>utils&#45;&gt;plugins_base_plugin</title><style>.edge>path:hover{stroke-width:8}</style>
<path fill="none" stroke="black" d="M1015,-286.21C1015,-283.22 1015,-280.26 1015,-277.36"/>
<polygon fill="#000000" stroke="black" points="1018.5,-277.21 1015,-267.21 1011.5,-277.21 1018.5,-277.21"/>
</g>
<!-- utils_configuarable -->
<g id="node13" class="node">
<title>utils_configuarable</title><style>.edge>path:hover{stroke-width:8}</style>
<ellipse fill="#a253b6" stroke="black" cx="926" cy="-401.41" rx="43.62" ry="18"/>
<text text-anchor="middle" x="926" y="-398.91" font-family="Helvetica,sans-Serif" font-size="10.00" fill="#ffffff">configuarable</text>
</g>
<!-- utils_logger -->
<g id="node14" class="node">
<title>utils_logger</title><style>.edge>path:hover{stroke-width:8}</style>
<ellipse fill="#a731c4" stroke="black" cx="573" cy="-312.2" rx="27" ry="18"/>
<text text-anchor="middle" x="573" y="-309.7" font-family="Helvetica,sans-Serif" font-size="10.00" fill="#ffffff">logger</text>
</g>
<!-- utils_logic -->
<g id="node15" class="node">
<title>utils_logic</title><style>.edge>path:hover{stroke-width:8}</style>
<ellipse fill="#a253b6" stroke="black" cx="837" cy="-401.41" rx="27" ry="18"/>
<text text-anchor="middle" x="837" y="-398.91" font-family="Helvetica,sans-Serif" font-size="10.00" fill="#ffffff">logic</text>
</g>
<!-- utils_logic_functions -->
<g id="node16" class="node">
<title>utils_logic_functions</title><style>.edge>path:hover{stroke-width:8}</style>
<ellipse fill="#a253b6" stroke="black" cx="752" cy="-401.41" rx="39.7" ry="21.43"/>
<text text-anchor="middle" x="752" y="-404.41" font-family="Helvetica,sans-Serif" font-size="10.00" fill="#ffffff">logic.</text>
<text text-anchor="middle" x="752" y="-393.41" font-family="Helvetica,sans-Serif" font-size="10.00" fill="#ffffff">functions</text>
</g>
<!-- utils_logic_timer -->
<g id="node17" class="node">
<title>utils_logic_timer</title><style>.edge>path:hover{stroke-width:8}</style>
<ellipse fill="#a253b6" stroke="black" cx="658" cy="-401.41" rx="36.49" ry="18"/>
<text text-anchor="middle" x="658" y="-398.91" font-family="Helvetica,sans-Serif" font-size="10.00" fill="#ffffff">logic.timer</text>
</g>
<!-- utils_settings -->
<g id="node18" class="node">
<title>utils_settings</title><style>.edge>path:hover{stroke-width:8}</style>
<ellipse fill="#a253b6" stroke="black" cx="573" cy="-401.41" rx="30.04" ry="18"/>
<text text-anchor="middle" x="573" y="-398.91" font-family="Helvetica,sans-Serif" font-size="10.00" fill="#ffffff">settings</text>
</g>
<!-- utils_settings&#45;&gt;utils_logger -->
<g id="edge9" class="edge">
<title>utils_settings&#45;&gt;utils_logger</title><style>.edge>path:hover{stroke-width:8}</style>
<path fill="none" stroke="black" d="M573,-383.18C573,-371 573,-354.41 573,-340.45"/>
<polygon fill="#000000" stroke="black" points="576.5,-340.4 573,-330.4 569.5,-340.4 576.5,-340.4"/>
</g>
</g>
</svg>
