<?xml version="1.0" encoding="UTF-8" standalone="no"?>
<!DOCTYPE svg PUBLIC "-//W3C//DTD SVG 1.1//EN"
 "http://www.w3.org/Graphics/SVG/1.1/DTD/svg11.dtd">
<!-- Generated by graphviz version 2.50.0 (20211204.2007)
 -->
<!-- Title: G Pages: 1 -->
<svg width="680pt" height="297pt"
 viewBox="0.00 0.00 680.00 297.43" xmlns="http://www.w3.org/2000/svg" xmlns:xlink="http://www.w3.org/1999/xlink">
<g id="graph0" class="graph" transform="scale(1 1) rotate(0) translate(4 293.43)">
<title>G</title><style>.edge>path:hover{stroke-width:8}</style>
<polygon fill="white" stroke="transparent" points="-4,4 -4,-293.43 676,-293.43 676,4 -4,4"/>
<g id="clust3" class="cluster">
<title>cluster_utils</title><style>.edge>path:hover{stroke-width:8}</style>
<polygon fill="none" stroke="black" points="247,-123.43 247,-281.43 664,-281.43 664,-123.43 247,-123.43"/>
<text text-anchor="middle" x="455.5" y="-266.23" font-family="Times New Roman,serif" font-size="14.00">utils</text>
</g>
<g id="clust2" class="cluster">
<title>cluster_plugins</title><style>.edge>path:hover{stroke-width:8}</style>
<polygon fill="none" stroke="black" points="113,-8 113,-198.43 239,-198.43 239,-8 113,-8"/>
<text text-anchor="middle" x="176" y="-183.23" font-family="Times New Roman,serif" font-size="14.00">plugins</text>
</g>
<g id="clust1" class="cluster">
<title>cluster_data</title><style>.edge>path:hover{stroke-width:8}</style>
<polygon fill="none" stroke="black" points="8,-206.43 8,-281.43 154,-281.43 154,-206.43 8,-206.43"/>
<text text-anchor="middle" x="81" y="-266.23" font-family="Times New Roman,serif" font-size="14.00">data</text>
</g>
<!-- data -->
<g id="node1" class="node">
<title>data</title><style>.edge>path:hover{stroke-width:8}</style>
<ellipse fill="#b65353" stroke="black" cx="119" cy="-232.43" rx="27" ry="18"/>
<text text-anchor="middle" x="119" y="-229.93" font-family="Helvetica,sans-Serif" font-size="10.00" fill="#ffffff">data</text>
</g>
<!-- plugins_air_chambers_air_chambers -->
<g id="node3" class="node">
<title>plugins_air_chambers_air_chambers</title><style>.edge>path:hover{stroke-width:8}</style>
<ellipse fill="#378137" stroke="black" cx="176" cy="-37.21" rx="55.31" ry="21.43"/>
<text text-anchor="middle" x="176" y="-40.21" font-family="Helvetica,sans-Serif" font-size="10.00" fill="#ffffff">air_chambers.</text>
<text text-anchor="middle" x="176" y="-29.21" font-family="Helvetica,sans-Serif" font-size="10.00" fill="#ffffff">air_chambers</text>
</g>
<!-- data&#45;&gt;plugins_air_chambers_air_chambers -->
<g id="edge1" class="edge">
<title>data&#45;&gt;plugins_air_chambers_air_chambers</title><style>.edge>path:hover{stroke-width:8}</style>
<path fill="none" stroke="black" d="M121.34,-206.43C121.68,-204.43 122.01,-202.42 122.34,-200.42"/>
<polygon fill="#000000" stroke="black" points="124.49,-208.86 122.67,-198.42 117.58,-207.71 124.49,-208.86"/>
</g>
<!-- data_register -->
<g id="node2" class="node">
<title>data_register</title><style>.edge>path:hover{stroke-width:8}</style>
<ellipse fill="#b65353" stroke="black" cx="45" cy="-232.43" rx="28.69" ry="18"/>
<text text-anchor="middle" x="45" y="-229.93" font-family="Helvetica,sans-Serif" font-size="10.00" fill="#ffffff">register</text>
</g>
<!-- plugins_base_plugin -->
<g id="node4" class="node">
<title>plugins_base_plugin</title><style>.edge>path:hover{stroke-width:8}</style>
<ellipse fill="#46a446" stroke="black" cx="187" cy="-149.43" rx="40.06" ry="18"/>
<text text-anchor="middle" x="187" y="-146.93" font-family="Helvetica,sans-Serif" font-size="10.00" fill="#ffffff">base_plugin</text>
</g>
<!-- plugins_base_plugin&#45;&gt;plugins_air_chambers_air_chambers -->
<g id="edge2" class="edge">
<title>plugins_base_plugin&#45;&gt;plugins_air_chambers_air_chambers</title><style>.edge>path:hover{stroke-width:8}</style>
<path fill="none" stroke="black" d="M185.28,-131.21C183.61,-114.5 181.05,-88.8 179.04,-68.64"/>
<polygon fill="#000000" stroke="black" points="182.52,-68.29 178.04,-58.69 175.55,-68.98 182.52,-68.29"/>
</g>
<!-- utils -->
<g id="node5" class="node">
<title>utils</title><style>.edge>path:hover{stroke-width:8}</style>
<ellipse fill="#3b3bce" stroke="black" cx="629" cy="-232.43" rx="27" ry="18"/>
<text text-anchor="middle" x="629" y="-229.93" font-family="Helvetica,sans-Serif" font-size="10.00" fill="#ffffff">utils</text>
</g>
<!-- utils&#45;&gt;plugins_air_chambers_air_chambers -->
<g id="edge3" class="edge">
<title>utils&#45;&gt;plugins_air_chambers_air_chambers</title><style>.edge>path:hover{stroke-width:8}</style>
<path fill="none" stroke="black" d="M413.71,-123.43C351.02,-97.93 292.07,-76.78 248.55,-61.92"/>
<polygon fill="#000000" stroke="black" points="249.59,-58.57 239,-58.67 247.34,-65.2 249.59,-58.57"/>
</g>
<!-- utils_configuarable -->
<g id="node6" class="node">
<title>utils_configuarable</title><style>.edge>path:hover{stroke-width:8}</style>
<ellipse fill="#5353b6" stroke="black" cx="540" cy="-232.43" rx="43.62" ry="18"/>
<text text-anchor="middle" x="540" y="-229.93" font-family="Helvetica,sans-Serif" font-size="10.00" fill="#ffffff">configuarable</text>
</g>
<!-- utils_logger -->
<g id="node7" class="node">
<title>utils_logger</title><style>.edge>path:hover{stroke-width:8}</style>
<ellipse fill="#3d3db8" stroke="black" cx="285" cy="-149.43" rx="27" ry="18"/>
<text text-anchor="middle" x="285" y="-146.93" font-family="Helvetica,sans-Serif" font-size="10.00" fill="#ffffff">logger</text>
</g>
<!-- utils_logic -->
<g id="node8" class="node">
<title>utils_logic</title><style>.edge>path:hover{stroke-width:8}</style>
<ellipse fill="#5353b6" stroke="black" cx="451" cy="-232.43" rx="27" ry="18"/>
<text text-anchor="middle" x="451" y="-229.93" font-family="Helvetica,sans-Serif" font-size="10.00" fill="#ffffff">logic</text>
</g>
<!-- utils_logic_timer -->
<g id="node9" class="node">
<title>utils_logic_timer</title><style>.edge>path:hover{stroke-width:8}</style>
<ellipse fill="#5353b6" stroke="black" cx="370" cy="-232.43" rx="36.49" ry="18"/>
<text text-anchor="middle" x="370" y="-229.93" font-family="Helvetica,sans-Serif" font-size="10.00" fill="#ffffff">logic.timer</text>
</g>
<!-- utils_settings -->
<g id="node10" class="node">
<title>utils_settings</title><style>.edge>path:hover{stroke-width:8}</style>
<ellipse fill="#5353b6" stroke="black" cx="285" cy="-232.43" rx="30.04" ry="18"/>
<text text-anchor="middle" x="285" y="-229.93" font-family="Helvetica,sans-Serif" font-size="10.00" fill="#ffffff">settings</text>
</g>
<!-- utils_settings&#45;&gt;utils_logger -->
<g id="edge4" class="edge">
<title>utils_settings&#45;&gt;utils_logger</title><style>.edge>path:hover{stroke-width:8}</style>
<path fill="none" stroke="black" d="M285,-214.25C285,-203.62 285,-189.73 285,-177.63"/>
<polygon fill="#000000" stroke="black" points="288.5,-177.58 285,-167.58 281.5,-177.58 288.5,-177.58"/>
</g>
</g>
</svg>
