<?xml version="1.0" encoding="UTF-8" standalone="no"?>
<!DOCTYPE svg PUBLIC "-//W3C//DTD SVG 1.1//EN"
 "http://www.w3.org/Graphics/SVG/1.1/DTD/svg11.dtd">
<!-- Generated by graphviz version 2.50.0 (20211204.2007)
 -->
<!-- Title: G Pages: 1 -->
<svg width="1686pt" height="552pt"
 viewBox="0.00 0.00 1686.00 551.80" xmlns="http://www.w3.org/2000/svg" xmlns:xlink="http://www.w3.org/1999/xlink">
<g id="graph0" class="graph" transform="scale(1 1) rotate(0) translate(4 547.8)">
<title>G</title><style>.edge>path:hover{stroke-width:8}</style>
<polygon fill="white" stroke="transparent" points="-4,4 -4,-547.8 1682,-547.8 1682,4 -4,4"/>
<g id="clust1" class="cluster">
<title>cluster_data</title><style>.edge>path:hover{stroke-width:8}</style>
<polygon fill="none" stroke="black" points="222,-460.8 222,-535.8 470,-535.8 470,-460.8 222,-460.8"/>
<text text-anchor="middle" x="346" y="-520.6" font-family="Times New Roman,serif" font-size="14.00">data</text>
</g>
<g id="clust2" class="cluster">
<title>cluster_devices</title><style>.edge>path:hover{stroke-width:8}</style>
<polygon fill="none" stroke="black" points="690,-8 690,-371.37 1238,-371.37 1238,-8 690,-8"/>
<text text-anchor="middle" x="964" y="-356.17" font-family="Times New Roman,serif" font-size="14.00">devices</text>
</g>
<g id="clust3" class="cluster">
<title>cluster_plugins</title><style>.edge>path:hover{stroke-width:8}</style>
<polygon fill="none" stroke="black" points="512,-18.99 512,-274.18 682,-274.18 682,-18.99 512,-18.99"/>
<text text-anchor="middle" x="597" y="-258.98" font-family="Times New Roman,serif" font-size="14.00">plugins</text>
</g>
<g id="clust5" class="cluster">
<title>cluster_utils</title><style>.edge>path:hover{stroke-width:8}</style>
<polygon fill="none" stroke="black" points="1246,-285.38 1246,-452.8 1670,-452.8 1670,-285.38 1246,-285.38"/>
<text text-anchor="middle" x="1458" y="-437.6" font-family="Times New Roman,serif" font-size="14.00">utils</text>
</g>
<g id="clust4" class="cluster">
<title>cluster_services</title><style>.edge>path:hover{stroke-width:8}</style>
<polygon fill="none" stroke="black" points="8,-195.97 8,-363.6 396,-363.6 396,-195.97 8,-195.97"/>
<text text-anchor="middle" x="202" y="-348.4" font-family="Times New Roman,serif" font-size="14.00">services</text>
</g>
<!-- data -->
<g id="node1" class="node">
<title>data</title><style>.edge>path:hover{stroke-width:8}</style>
<ellipse fill="#c24747" stroke="black" cx="435" cy="-486.8" rx="27" ry="18"/>
<text text-anchor="middle" x="435" y="-484.3" font-family="Helvetica,sans-Serif" font-size="10.00" fill="#ffffff">data</text>
</g>
<!-- plugins_ecd_ecd -->
<g id="node13" class="node">
<title>plugins_ecd_ecd</title><style>.edge>path:hover{stroke-width:8}</style>
<ellipse fill="#2e6b46" stroke="black" cx="550" cy="-44.99" rx="30.04" ry="18"/>
<text text-anchor="middle" x="550" y="-42.49" font-family="Helvetica,sans-Serif" font-size="10.00" fill="#ffffff">ecd.ecd</text>
</g>
<!-- data&#45;&gt;plugins_ecd_ecd -->
<g id="edge1" class="edge">
<title>data&#45;&gt;plugins_ecd_ecd</title><style>.edge>path:hover{stroke-width:8}</style>
<path fill="none" stroke="black" d="M439.47,-460.81C445.09,-427.19 454,-365.48 454,-312.38 454,-312.38 454,-312.38 454,-224.18 454,-171.09 462.19,-155.8 489,-109.98 493.57,-102.18 499.26,-94.58 505.32,-87.51"/>
<polygon fill="#000000" stroke="black" points="507.93,-89.83 512,-80.05 502.72,-85.16 507.93,-89.83"/>
</g>
<!-- services_global_error_handler_global_error_handler -->
<g id="node17" class="node">
<title>services_global_error_handler_global_error_handler</title><style>.edge>path:hover{stroke-width:8}</style>
<ellipse fill="#406296" stroke="black" cx="312" cy="-225.18" rx="75.82" ry="21.43"/>
<text text-anchor="middle" x="312" y="-228.18" font-family="Helvetica,sans-Serif" font-size="10.00" fill="#ffffff">global_error_handler.</text>
<text text-anchor="middle" x="312" y="-217.18" font-family="Helvetica,sans-Serif" font-size="10.00" fill="#ffffff">global_error_handler</text>
</g>
<!-- data&#45;&gt;services_global_error_handler_global_error_handler -->
<g id="edge2" class="edge">
<title>data&#45;&gt;services_global_error_handler_global_error_handler</title><style>.edge>path:hover{stroke-width:8}</style>
<path fill="none" stroke="black" d="M436.32,-460.8C437.2,-422.02 434.15,-346.02 401.43,-289.66"/>
<polygon fill="#000000" stroke="black" points="404.25,-287.57 396,-280.92 398.3,-291.26 404.25,-287.57"/>
</g>
<!-- data_register -->
<g id="node2" class="node">
<title>data_register</title><style>.edge>path:hover{stroke-width:8}</style>
<ellipse fill="#c24747" stroke="black" cx="361" cy="-486.8" rx="28.69" ry="18"/>
<text text-anchor="middle" x="361" y="-484.3" font-family="Helvetica,sans-Serif" font-size="10.00" fill="#ffffff">register</text>
</g>
<!-- data_verbal_const -->
<g id="node3" class="node">
<title>data_verbal_const</title><style>.edge>path:hover{stroke-width:8}</style>
<ellipse fill="#b65353" stroke="black" cx="272" cy="-486.8" rx="41.59" ry="18"/>
<text text-anchor="middle" x="272" y="-484.3" font-family="Helvetica,sans-Serif" font-size="10.00" fill="#ffffff">verbal_const</text>
</g>
<!-- devices -->
<g id="node4" class="node">
<title>devices</title><style>.edge>path:hover{stroke-width:8}</style>
<ellipse fill="#a9c247" stroke="black" cx="959" cy="-311.38" rx="28.69" ry="18"/>
<text text-anchor="middle" x="959" y="-308.88" font-family="Helvetica,sans-Serif" font-size="10.00" fill="#000000">devices</text>
</g>
<!-- devices&#45;&gt;plugins_ecd_ecd -->
<g id="edge3" class="edge">
<title>devices&#45;&gt;plugins_ecd_ecd</title><style>.edge>path:hover{stroke-width:8}</style>
<path fill="none" stroke="black" d="M690,-281.83C600.82,-282.45 518.32,-281.65 511,-274.18 472.24,-234.64 486.5,-171.56 507.93,-121.74"/>
<polygon fill="#000000" stroke="black" points="511.13,-123.16 512,-112.6 504.73,-120.31 511.13,-123.16"/>
</g>
<!-- devices_factories_pump_pump_factory -->
<g id="node5" class="node">
<title>devices_factories_pump_pump_factory</title><style>.edge>path:hover{stroke-width:8}</style>
<ellipse fill="#a2b653" stroke="black" cx="1177" cy="-311.38" rx="53.07" ry="28.98"/>
<text text-anchor="middle" x="1177" y="-319.88" font-family="Helvetica,sans-Serif" font-size="10.00" fill="#000000">factories.</text>
<text text-anchor="middle" x="1177" y="-308.88" font-family="Helvetica,sans-Serif" font-size="10.00" fill="#000000">pump.</text>
<text text-anchor="middle" x="1177" y="-297.88" font-family="Helvetica,sans-Serif" font-size="10.00" fill="#000000">pump_factory</text>
</g>
<!-- devices_utils_valve_control_group_valve_control_group -->
<g id="node9" class="node">
<title>devices_utils_valve_control_group_valve_control_group</title><style>.edge>path:hover{stroke-width:8}</style>
<ellipse fill="#637326" stroke="black" cx="970" cy="-44.99" rx="73.58" ry="28.98"/>
<text text-anchor="middle" x="970" y="-53.49" font-family="Helvetica,sans-Serif" font-size="10.00" fill="#ffffff">utils.</text>
<text text-anchor="middle" x="970" y="-42.49" font-family="Helvetica,sans-Serif" font-size="10.00" fill="#ffffff">valve_control_group.</text>
<text text-anchor="middle" x="970" y="-31.49" font-family="Helvetica,sans-Serif" font-size="10.00" fill="#ffffff">valve_control_group</text>
</g>
<!-- devices_factories_pump_pump_factory&#45;&gt;devices_utils_valve_control_group_valve_control_group -->
<g id="edge4" class="edge">
<title>devices_factories_pump_pump_factory&#45;&gt;devices_utils_valve_control_group_valve_control_group</title><style>.edge>path:hover{stroke-width:8}</style>
<path fill="none" stroke="black" d="M1169.79,-282.35C1157.83,-240.5 1130.39,-161.16 1083,-109.98 1068.19,-93.99 1048.45,-80.95 1029.61,-70.91"/>
<polygon fill="#000000" stroke="black" points="1030.96,-67.67 1020.47,-66.23 1027.77,-73.9 1030.96,-67.67"/>
</g>
<!-- devices_factories_valve_valve_factory -->
<g id="node6" class="node">
<title>devices_factories_valve_valve_factory</title><style>.edge>path:hover{stroke-width:8}</style>
<ellipse fill="#a9c247" stroke="black" cx="1056" cy="-311.38" rx="50.41" ry="28.98"/>
<text text-anchor="middle" x="1056" y="-319.88" font-family="Helvetica,sans-Serif" font-size="10.00" fill="#000000">factories.</text>
<text text-anchor="middle" x="1056" y="-308.88" font-family="Helvetica,sans-Serif" font-size="10.00" fill="#000000">valve.</text>
<text text-anchor="middle" x="1056" y="-297.88" font-family="Helvetica,sans-Serif" font-size="10.00" fill="#000000">valve_factory</text>
</g>
<!-- devices_factories_valve_valve_factory&#45;&gt;devices_utils_valve_control_group_valve_control_group -->
<g id="edge5" class="edge">
<title>devices_factories_valve_valve_factory&#45;&gt;devices_utils_valve_control_group_valve_control_group</title><style>.edge>path:hover{stroke-width:8}</style>
<path fill="none" stroke="black" d="M1067.07,-282.77C1081.45,-242.15 1101.36,-165.16 1071,-109.98 1061.88,-93.41 1046.46,-80.53 1030.37,-70.81"/>
<polygon fill="#000000" stroke="black" points="1031.83,-67.61 1021.4,-65.73 1028.38,-73.7 1031.83,-67.61"/>
</g>
<!-- devices_utils -->
<g id="node7" class="node">
<title>devices_utils</title><style>.edge>path:hover{stroke-width:8}</style>
<ellipse fill="#a9c247" stroke="black" cx="885" cy="-311.38" rx="27" ry="18"/>
<text text-anchor="middle" x="885" y="-308.88" font-family="Helvetica,sans-Serif" font-size="10.00" fill="#000000">utils</text>
</g>
<!-- devices_utils_valve_control_group -->
<g id="node8" class="node">
<title>devices_utils_valve_control_group</title><style>.edge>path:hover{stroke-width:8}</style>
<ellipse fill="#a9c247" stroke="black" cx="769" cy="-311.38" rx="71.34" ry="21.43"/>
<text text-anchor="middle" x="769" y="-314.38" font-family="Helvetica,sans-Serif" font-size="10.00" fill="#000000">utils.</text>
<text text-anchor="middle" x="769" y="-303.38" font-family="Helvetica,sans-Serif" font-size="10.00" fill="#000000">valve_control_group</text>
</g>
<!-- devices_utils_valve_control_group_valve_control_group_mode -->
<g id="node10" class="node">
<title>devices_utils_valve_control_group_valve_control_group_mode</title><style>.edge>path:hover{stroke-width:8}</style>
<ellipse fill="#a9c247" stroke="black" cx="970" cy="-138.97" rx="91.85" ry="28.98"/>
<text text-anchor="middle" x="970" y="-147.47" font-family="Helvetica,sans-Serif" font-size="10.00" fill="#000000">utils.</text>
<text text-anchor="middle" x="970" y="-136.47" font-family="Helvetica,sans-Serif" font-size="10.00" fill="#000000">valve_control_group.</text>
<text text-anchor="middle" x="970" y="-125.47" font-family="Helvetica,sans-Serif" font-size="10.00" fill="#000000">valve_control_group_mode</text>
</g>
<!-- devices_utils_valve_control_group_valve_control_group_mode&#45;&gt;devices_utils_valve_control_group_valve_control_group -->
<g id="edge6" class="edge">
<title>devices_utils_valve_control_group_valve_control_group_mode&#45;&gt;devices_utils_valve_control_group_valve_control_group</title><style>.edge>path:hover{stroke-width:8}</style>
<path fill="none" stroke="black" d="M970,-109.88C970,-101.84 970,-92.94 970,-84.39"/>
<polygon fill="#000000" stroke="black" points="973.5,-84.23 970,-74.23 966.5,-84.23 973.5,-84.23"/>
</g>
<!-- plugins -->
<g id="node11" class="node">
<title>plugins</title><style>.edge>path:hover{stroke-width:8}</style>
<ellipse fill="#3bce76" stroke="black" cx="646" cy="-225.18" rx="27.84" ry="18"/>
<text text-anchor="middle" x="646" y="-222.68" font-family="Helvetica,sans-Serif" font-size="10.00" fill="#000000">plugins</text>
</g>
<!-- plugins&#45;&gt;devices_utils_valve_control_group_valve_control_group -->
<g id="edge7" class="edge">
<title>plugins&#45;&gt;devices_utils_valve_control_group_valve_control_group</title><style>.edge>path:hover{stroke-width:8}</style>
<path fill="none" stroke="black" d="M682,-198.84C684,-197.51 686,-196.18 688,-194.85"/>
<polygon fill="#000000" stroke="black" points="683.61,-201.97 690,-193.52 679.74,-196.14 683.61,-201.97"/>
</g>
<!-- plugins_base_plugin -->
<g id="node12" class="node">
<title>plugins_base_plugin</title><style>.edge>path:hover{stroke-width:8}</style>
<ellipse fill="#3ab069" stroke="black" cx="560" cy="-225.18" rx="40.06" ry="18"/>
<text text-anchor="middle" x="560" y="-222.68" font-family="Helvetica,sans-Serif" font-size="10.00" fill="#000000">base_plugin</text>
</g>
<!-- plugins_base_plugin&#45;&gt;plugins_ecd_ecd -->
<g id="edge8" class="edge">
<title>plugins_base_plugin&#45;&gt;plugins_ecd_ecd</title><style>.edge>path:hover{stroke-width:8}</style>
<path fill="none" stroke="black" d="M559.04,-207.09C557.3,-176.09 553.61,-110.36 551.52,-73.15"/>
<polygon fill="#000000" stroke="black" points="555.01,-72.81 550.96,-63.03 548.02,-73.21 555.01,-72.81"/>
</g>
<!-- services -->
<g id="node14" class="node">
<title>services</title><style>.edge>path:hover{stroke-width:8}</style>
<ellipse fill="#4778c2" stroke="black" cx="47" cy="-311.38" rx="30.72" ry="18"/>
<text text-anchor="middle" x="47" y="-308.88" font-family="Helvetica,sans-Serif" font-size="10.00" fill="#ffffff">services</text>
</g>
<!-- services&#45;&gt;plugins_ecd_ecd -->
<g id="edge9" class="edge">
<title>services&#45;&gt;plugins_ecd_ecd</title><style>.edge>path:hover{stroke-width:8}</style>
<path fill="none" stroke="black" d="M227,-195.97C322.54,-144.53 438.89,-93.13 502.61,-65.9"/>
<polygon fill="#000000" stroke="black" points="504.17,-69.03 512,-61.89 501.43,-62.6 504.17,-69.03"/>
</g>
<!-- services_global_error_handler -->
<g id="node15" class="node">
<title>services_global_error_handler</title><style>.edge>path:hover{stroke-width:8}</style>
<ellipse fill="#4778c2" stroke="black" cx="157" cy="-311.38" rx="61.44" ry="18"/>
<text text-anchor="middle" x="157" y="-308.88" font-family="Helvetica,sans-Serif" font-size="10.00" fill="#ffffff">global_error_handler</text>
</g>
<!-- services_global_error_handler_error_codes -->
<g id="node16" class="node">
<title>services_global_error_handler_error_codes</title><style>.edge>path:hover{stroke-width:8}</style>
<ellipse fill="#537bb6" stroke="black" cx="312" cy="-311.38" rx="75.82" ry="21.43"/>
<text text-anchor="middle" x="312" y="-314.38" font-family="Helvetica,sans-Serif" font-size="10.00" fill="#ffffff">global_error_handler.</text>
<text text-anchor="middle" x="312" y="-303.38" font-family="Helvetica,sans-Serif" font-size="10.00" fill="#ffffff">error_codes</text>
</g>
<!-- services_global_error_handler_error_codes&#45;&gt;services_global_error_handler_global_error_handler -->
<g id="edge10" class="edge">
<title>services_global_error_handler_error_codes&#45;&gt;services_global_error_handler_global_error_handler</title><style>.edge>path:hover{stroke-width:8}</style>
<path fill="none" stroke="black" d="M312,-290C312,-280.04 312,-267.85 312,-256.8"/>
<polygon fill="#000000" stroke="black" points="315.5,-256.67 312,-246.67 308.5,-256.67 315.5,-256.67"/>
</g>
<!-- utils -->
<g id="node18" class="node">
<title>utils</title><style>.edge>path:hover{stroke-width:8}</style>
<ellipse fill="#b82fdb" stroke="black" cx="1281" cy="-400.59" rx="27" ry="18"/>
<text text-anchor="middle" x="1281" y="-398.09" font-family="Helvetica,sans-Serif" font-size="10.00" fill="#ffffff">utils</text>
</g>
<!-- utils&#45;&gt;devices_utils_valve_control_group_valve_control_group -->
<g id="edge11" class="edge">
<title>utils&#45;&gt;devices_utils_valve_control_group_valve_control_group</title><style>.edge>path:hover{stroke-width:8}</style>
<path fill="none" stroke="black" d="M1318.4,-285.39C1317.94,-284.4 1317.48,-283.4 1317,-282.39 1300.13,-246.71 1274.88,-215.56 1245.54,-188.6"/>
<polygon fill="#000000" stroke="black" points="1247.78,-185.9 1238,-181.83 1243.11,-191.12 1247.78,-185.9"/>
</g>
<!-- utils&#45;&gt;plugins_base_plugin -->
<g id="edge12" class="edge">
<title>utils&#45;&gt;plugins_base_plugin</title><style>.edge>path:hover{stroke-width:8}</style>
<path fill="none" stroke="black" d="M1246,-399.52C1126.07,-399.08 736.29,-395.78 686,-371.37 646.69,-352.3 614.64,-314.77 592.7,-282.64"/>
<polygon fill="#000000" stroke="black" points="595.52,-280.56 587.06,-274.18 589.69,-284.44 595.52,-280.56"/>
</g>
<!-- utils_configuarable -->
<g id="node19" class="node">
<title>utils_configuarable</title><style>.edge>path:hover{stroke-width:8}</style>
<ellipse fill="#a253b6" stroke="black" cx="1540" cy="-400.59" rx="43.62" ry="18"/>
<text text-anchor="middle" x="1540" y="-398.09" font-family="Helvetica,sans-Serif" font-size="10.00" fill="#ffffff">configuarable</text>
</g>
<!-- utils_logger -->
<g id="node20" class="node">
<title>utils_logger</title><style>.edge>path:hover{stroke-width:8}</style>
<ellipse fill="#a731c4" stroke="black" cx="1281" cy="-311.38" rx="27" ry="18"/>
<text text-anchor="middle" x="1281" y="-308.88" font-family="Helvetica,sans-Serif" font-size="10.00" fill="#ffffff">logger</text>
</g>
<!-- utils_logic -->
<g id="node21" class="node">
<title>utils_logic</title><style>.edge>path:hover{stroke-width:8}</style>
<ellipse fill="#a253b6" stroke="black" cx="1451" cy="-400.59" rx="27" ry="18"/>
<text text-anchor="middle" x="1451" y="-398.09" font-family="Helvetica,sans-Serif" font-size="10.00" fill="#ffffff">logic</text>
</g>
<!-- utils_logic_functions -->
<g id="node22" class="node">
<title>utils_logic_functions</title><style>.edge>path:hover{stroke-width:8}</style>
<ellipse fill="#a253b6" stroke="black" cx="1366" cy="-400.59" rx="39.7" ry="21.43"/>
<text text-anchor="middle" x="1366" y="-403.59" font-family="Helvetica,sans-Serif" font-size="10.00" fill="#ffffff">logic.</text>
<text text-anchor="middle" x="1366" y="-392.59" font-family="Helvetica,sans-Serif" font-size="10.00" fill="#ffffff">functions</text>
</g>
<!-- utils_settings -->
<g id="node23" class="node">
<title>utils_settings</title><style>.edge>path:hover{stroke-width:8}</style>
<ellipse fill="#a253b6" stroke="black" cx="1632" cy="-400.59" rx="30.04" ry="18"/>
<text text-anchor="middle" x="1632" y="-398.09" font-family="Helvetica,sans-Serif" font-size="10.00" fill="#ffffff">settings</text>
</g>
<!-- utils_settings&#45;&gt;utils_logger -->
<g id="edge13" class="edge">
<title>utils_settings&#45;&gt;utils_logger</title><style>.edge>path:hover{stroke-width:8}</style>
<path fill="none" stroke="black" d="M1611.01,-387.41C1605.3,-384.46 1599.03,-381.54 1593,-379.37 1496.59,-344.75 1376.69,-325.19 1317.52,-317"/>
<polygon fill="#000000" stroke="black" points="1317.92,-313.52 1307.54,-315.65 1316.98,-320.46 1317.92,-313.52"/>
</g>
</g>
</svg>
