<?xml version="1.0" encoding="UTF-8" standalone="no"?>
<!DOCTYPE svg PUBLIC "-//W3C//DTD SVG 1.1//EN"
 "http://www.w3.org/Graphics/SVG/1.1/DTD/svg11.dtd">
<!-- Generated by graphviz version 2.44.1 (20200629.0846)
 -->
<!-- Title: G Pages: 1 -->
<svg width="1281pt" height="922pt"
 viewBox="0.00 0.00 1281.00 921.59" xmlns="http://www.w3.org/2000/svg" xmlns:xlink="http://www.w3.org/1999/xlink">
<g id="graph0" class="graph" transform="scale(1 1) rotate(0) translate(4 917.59)">
<title>G</title><style>.edge>path:hover{stroke-width:8}</style>
<polygon fill="white" stroke="transparent" points="-4,4 -4,-917.59 1277,-917.59 1277,4 -4,4"/>
<g id="clust2" class="cluster">
<title>cluster_data</title><style>.edge>path:hover{stroke-width:8}</style>
<polygon fill="none" stroke="black" points="283,-625.95 283,-700.95 455,-700.95 455,-625.95 283,-625.95"/>
<text text-anchor="middle" x="369" y="-685.75" font-family="Times New Roman,serif" font-size="14.00">data</text>
</g>
<g id="clust3" class="cluster">
<title>cluster_devices</title><style>.edge>path:hover{stroke-width:8}</style>
<polygon fill="none" stroke="black" points="795,-520.97 795,-617.95 1177,-617.95 1177,-520.97 795,-520.97"/>
<text text-anchor="middle" x="986" y="-602.75" font-family="Times New Roman,serif" font-size="14.00">devices</text>
</g>
<g id="clust1" class="cluster">
<title>cluster_controllers</title><style>.edge>path:hover{stroke-width:8}</style>
<polygon fill="none" stroke="black" points="8,-8 8,-704.16 275,-704.16 275,-8 8,-8"/>
<text text-anchor="middle" x="141.5" y="-688.96" font-family="Times New Roman,serif" font-size="14.00">controllers</text>
</g>
<g id="clust7" class="cluster">
<title>cluster_utils</title><style>.edge>path:hover{stroke-width:8}</style>
<polygon fill="none" stroke="black" points="463,-531.96 463,-700.95 717,-700.95 717,-531.96 463,-531.96"/>
<text text-anchor="middle" x="590" y="-685.75" font-family="Times New Roman,serif" font-size="14.00">utils</text>
</g>
<g id="clust4" class="cluster">
<title>cluster_flask</title><style>.edge>path:hover{stroke-width:8}</style>
<polygon fill="none" stroke="black" points="702,-827.37 702,-902.37 772,-902.37 772,-827.37 702,-827.37"/>
<text text-anchor="middle" x="737" y="-887.17" font-family="Times New Roman,serif" font-size="14.00">flask</text>
</g>
<g id="clust8" class="cluster">
<title>cluster_werkzeug</title><style>.edge>path:hover{stroke-width:8}</style>
<polygon fill="none" stroke="black" points="780,-824.16 780,-905.59 882,-905.59 882,-824.16 780,-824.16"/>
<text text-anchor="middle" x="831" y="-890.39" font-family="Times New Roman,serif" font-size="14.00">werkzeug</text>
</g>
<g id="clust6" class="cluster">
<title>cluster_services</title><style>.edge>path:hover{stroke-width:8}</style>
<polygon fill="none" stroke="black" points="757,-625.95 757,-700.95 997,-700.95 997,-625.95 757,-625.95"/>
<text text-anchor="middle" x="877" y="-685.75" font-family="Times New Roman,serif" font-size="14.00">services</text>
</g>
<g id="clust9" class="cluster">
<title>cluster_yaml</title><style>.edge>path:hover{stroke-width:8}</style>
<polygon fill="none" stroke="black" points="644,-741.16 644,-816.16 714,-816.16 714,-741.16 644,-741.16"/>
<text text-anchor="middle" x="679" y="-800.96" font-family="Times New Roman,serif" font-size="14.00">yaml</text>
</g>
<g id="clust5" class="cluster">
<title>cluster_requests</title><style>.edge>path:hover{stroke-width:8}</style>
<polygon fill="none" stroke="black" points="1185,-531.96 1185,-606.96 1265,-606.96 1265,-531.96 1185,-531.96"/>
<text text-anchor="middle" x="1225" y="-591.76" font-family="Times New Roman,serif" font-size="14.00">requests</text>
</g>
<!-- controllers_base_controller -->
<g id="node1" class="node">
<title>controllers_base_controller</title><style>.edge>path:hover{stroke-width:8}</style>
<ellipse fill="#813737" stroke="black" cx="206" cy="-474.97" rx="48.72" ry="18"/>
<text text-anchor="middle" x="206" y="-472.47" font-family="Helvetica,sans-Serif" font-size="10.00" fill="#ffffff">base_controller</text>
</g>
<!-- controllers_unipi_evok_evok -->
<g id="node3" class="node">
<title>controllers_unipi_evok_evok</title><style>.edge>path:hover{stroke-width:8}</style>
<ellipse fill="#732626" stroke="black" cx="237" cy="-260.99" rx="28.07" ry="28.98"/>
<text text-anchor="middle" x="237" y="-269.49" font-family="Helvetica,sans-Serif" font-size="10.00" fill="#ffffff">unipi.</text>
<text text-anchor="middle" x="237" y="-258.49" font-family="Helvetica,sans-Serif" font-size="10.00" fill="#ffffff">evok.</text>
<text text-anchor="middle" x="237" y="-247.49" font-family="Helvetica,sans-Serif" font-size="10.00" fill="#ffffff">evok</text>
</g>
<!-- controllers_base_controller&#45;&gt;controllers_unipi_evok_evok -->
<g id="edge1" class="edge">
<title>controllers_base_controller&#45;&gt;controllers_unipi_evok_evok</title><style>.edge>path:hover{stroke-width:8}</style>
<path fill="none" stroke="black" d="M201.53,-456.71C195.04,-428.68 185.14,-371.81 198,-325.98 201.29,-314.26 207.39,-302.56 213.8,-292.42"/>
<polygon fill="#000000" stroke="black" points="216.81,-294.22 219.45,-283.96 210.99,-290.33 216.81,-294.22"/>
</g>
<!-- controllers_unipi_evok -->
<g id="node2" class="node">
<title>controllers_unipi_evok</title><style>.edge>path:hover{stroke-width:8}</style>
<ellipse fill="#c24747" stroke="black" cx="232" cy="-178" rx="34.96" ry="18"/>
<text text-anchor="middle" x="232" y="-175.5" font-family="Helvetica,sans-Serif" font-size="10.00" fill="#ffffff">unipi.evok</text>
</g>
<!-- controllers_unipi_neuron -->
<g id="node6" class="node">
<title>controllers_unipi_neuron</title><style>.edge>path:hover{stroke-width:8}</style>
<ellipse fill="#9d4343" stroke="black" cx="202" cy="-106" rx="40.74" ry="18"/>
<text text-anchor="middle" x="202" y="-103.5" font-family="Helvetica,sans-Serif" font-size="10.00" fill="#ffffff">unipi.neuron</text>
</g>
<!-- controllers_unipi_evok&#45;&gt;controllers_unipi_neuron -->
<g id="edge2" class="edge">
<title>controllers_unipi_evok&#45;&gt;controllers_unipi_neuron</title><style>.edge>path:hover{stroke-width:8}</style>
<path fill="none" stroke="black" d="M224.74,-160.05C221.27,-151.97 217.05,-142.12 213.19,-133.11"/>
<polygon fill="#000000" stroke="black" points="216.35,-131.6 209.2,-123.79 209.92,-134.36 216.35,-131.6"/>
</g>
<!-- controllers_unipi_evok_evok&#45;&gt;controllers_unipi_neuron -->
<g id="edge3" class="edge">
<title>controllers_unipi_evok_evok&#45;&gt;controllers_unipi_neuron</title><style>.edge>path:hover{stroke-width:8}</style>
<path fill="none" stroke="black" d="M216.56,-240.44C205.81,-228.71 193.7,-212.83 188,-196 181.09,-175.6 185.66,-151.39 191.37,-133.37"/>
<polygon fill="#000000" stroke="black" points="194.72,-134.4 194.69,-123.81 188.1,-132.11 194.72,-134.4"/>
</g>
<!-- controllers_unipi_evok_server -->
<g id="node4" class="node">
<title>controllers_unipi_evok_server</title><style>.edge>path:hover{stroke-width:8}</style>
<ellipse fill="#993333" stroke="black" cx="237" cy="-354.97" rx="29.9" ry="28.98"/>
<text text-anchor="middle" x="237" y="-363.47" font-family="Helvetica,sans-Serif" font-size="10.00" fill="#ffffff">unipi.</text>
<text text-anchor="middle" x="237" y="-352.47" font-family="Helvetica,sans-Serif" font-size="10.00" fill="#ffffff">evok.</text>
<text text-anchor="middle" x="237" y="-341.47" font-family="Helvetica,sans-Serif" font-size="10.00" fill="#ffffff">server</text>
</g>
<!-- controllers_unipi_evok_server&#45;&gt;controllers_unipi_evok_evok -->
<g id="edge4" class="edge">
<title>controllers_unipi_evok_server&#45;&gt;controllers_unipi_evok_evok</title><style>.edge>path:hover{stroke-width:8}</style>
<path fill="none" stroke="black" d="M237,-325.88C237,-317.84 237,-308.94 237,-300.39"/>
<polygon fill="#000000" stroke="black" points="240.5,-300.23 237,-290.23 233.5,-300.23 240.5,-300.23"/>
</g>
<!-- controllers_unipi_m503 -->
<g id="node5" class="node">
<title>controllers_unipi_m503</title><style>.edge>path:hover{stroke-width:8}</style>
<ellipse fill="#a44646" stroke="black" cx="202" cy="-34" rx="37.85" ry="18"/>
<text text-anchor="middle" x="202" y="-31.5" font-family="Helvetica,sans-Serif" font-size="10.00" fill="#ffffff">unipi.m503</text>
</g>
<!-- controllers_unipi_neuron&#45;&gt;controllers_unipi_m503 -->
<g id="edge5" class="edge">
<title>controllers_unipi_neuron&#45;&gt;controllers_unipi_m503</title><style>.edge>path:hover{stroke-width:8}</style>
<path fill="none" stroke="black" d="M202,-87.7C202,-79.98 202,-70.71 202,-62.11"/>
<polygon fill="#000000" stroke="black" points="205.5,-62.1 202,-52.1 198.5,-62.1 205.5,-62.1"/>
</g>
<!-- controllers_utils -->
<g id="node7" class="node">
<title>controllers_utils</title><style>.edge>path:hover{stroke-width:8}</style>
<ellipse fill="#b65353" stroke="black" cx="240" cy="-557.96" rx="27" ry="18"/>
<text text-anchor="middle" x="240" y="-555.46" font-family="Helvetica,sans-Serif" font-size="10.00" fill="#ffffff">utils</text>
</g>
<!-- controllers_utils&#45;&gt;controllers_base_controller -->
<g id="edge6" class="edge">
<title>controllers_utils&#45;&gt;controllers_base_controller</title><style>.edge>path:hover{stroke-width:8}</style>
<path fill="none" stroke="black" d="M232.96,-540.18C228.38,-529.28 222.32,-514.85 217.11,-502.43"/>
<polygon fill="#000000" stroke="black" points="220.25,-500.87 213.15,-493 213.8,-503.58 220.25,-500.87"/>
</g>
<!-- controllers_utils_pin_modes -->
<g id="node8" class="node">
<title>controllers_utils_pin_modes</title><style>.edge>path:hover{stroke-width:8}</style>
<ellipse fill="#b65353" stroke="black" cx="222" cy="-651.95" rx="45.01" ry="21.43"/>
<text text-anchor="middle" x="222" y="-654.95" font-family="Helvetica,sans-Serif" font-size="10.00" fill="#ffffff">utils.</text>
<text text-anchor="middle" x="222" y="-643.95" font-family="Helvetica,sans-Serif" font-size="10.00" fill="#ffffff">pin_modes</text>
</g>
<!-- controllers_utils_pin_modes&#45;&gt;controllers_base_controller -->
<g id="edge7" class="edge">
<title>controllers_utils_pin_modes&#45;&gt;controllers_base_controller</title><style>.edge>path:hover{stroke-width:8}</style>
<path fill="none" stroke="black" d="M209.27,-631.37C207.09,-627.1 205.16,-622.5 204,-617.95 194.12,-579.19 197.57,-532.52 201.42,-503.54"/>
<polygon fill="#000000" stroke="black" points="204.92,-503.75 202.89,-493.35 197.99,-502.75 204.92,-503.75"/>
</g>
<!-- controllers_utils_resource_identifiers -->
<g id="node9" class="node">
<title>controllers_utils_resource_identifiers</title><style>.edge>path:hover{stroke-width:8}</style>
<ellipse fill="#b65353" stroke="black" cx="87" cy="-651.95" rx="71.34" ry="21.43"/>
<text text-anchor="middle" x="87" y="-654.95" font-family="Helvetica,sans-Serif" font-size="10.00" fill="#ffffff">utils.</text>
<text text-anchor="middle" x="87" y="-643.95" font-family="Helvetica,sans-Serif" font-size="10.00" fill="#ffffff">resource_identifiers</text>
</g>
<!-- controllers_utils_resource_identifiers&#45;&gt;controllers_base_controller -->
<g id="edge8" class="edge">
<title>controllers_utils_resource_identifiers&#45;&gt;controllers_base_controller</title><style>.edge>path:hover{stroke-width:8}</style>
<path fill="none" stroke="black" d="M100.65,-630.88C122.4,-598.9 164.87,-536.45 188.71,-501.39"/>
<polygon fill="#000000" stroke="black" points="191.89,-502.93 194.62,-492.69 186.11,-498.99 191.89,-502.93"/>
</g>
<!-- data -->
<g id="node10" class="node">
<title>data</title><style>.edge>path:hover{stroke-width:8}</style>
<ellipse fill="#b69553" stroke="black" cx="420" cy="-651.95" rx="27" ry="18"/>
<text text-anchor="middle" x="420" y="-649.45" font-family="Helvetica,sans-Serif" font-size="10.00" fill="#000000">data</text>
</g>
<!-- data&#45;&gt;controllers_base_controller -->
<g id="edge9" class="edge">
<title>data&#45;&gt;controllers_base_controller</title><style>.edge>path:hover{stroke-width:8}</style>
<path fill="none" stroke="black" d="M394.88,-625.95C368.65,-600.38 325.51,-559.81 283.13,-526.51"/>
<polygon fill="#000000" stroke="black" points="285.05,-523.56 275,-520.2 280.76,-529.1 285.05,-523.56"/>
</g>
<!-- data_verbal_const -->
<g id="node11" class="node">
<title>data_verbal_const</title><style>.edge>path:hover{stroke-width:8}</style>
<ellipse fill="#b69553" stroke="black" cx="333" cy="-651.95" rx="41.59" ry="18"/>
<text text-anchor="middle" x="333" y="-649.45" font-family="Helvetica,sans-Serif" font-size="10.00" fill="#000000">verbal_const</text>
</g>
<!-- devices -->
<g id="node12" class="node">
<title>devices</title><style>.edge>path:hover{stroke-width:8}</style>
<ellipse fill="#95b653" stroke="black" cx="1140" cy="-557.96" rx="28.69" ry="18"/>
<text text-anchor="middle" x="1140" y="-555.46" font-family="Helvetica,sans-Serif" font-size="10.00" fill="#000000">devices</text>
</g>
<!-- devices&#45;&gt;controllers_unipi_evok_evok -->
<g id="edge10" class="edge">
<title>devices&#45;&gt;controllers_unipi_evok_evok</title><style>.edge>path:hover{stroke-width:8}</style>
<path fill="none" stroke="black" d="M1102,-520.97C811.32,-352.71 401.3,-284.69 275.31,-266.98"/>
<polygon fill="#000000" stroke="black" points="283.77,-272.51 275,-266.56 278.15,-276.68 283.77,-272.51"/>
</g>
<!-- devices_drivers -->
<g id="node13" class="node">
<title>devices_drivers</title><style>.edge>path:hover{stroke-width:8}</style>
<ellipse fill="#95b653" stroke="black" cx="1066" cy="-557.96" rx="27" ry="18"/>
<text text-anchor="middle" x="1066" y="-555.46" font-family="Helvetica,sans-Serif" font-size="10.00" fill="#000000">drivers</text>
</g>
<!-- devices_drivers_modbus -->
<g id="node14" class="node">
<title>devices_drivers_modbus</title><style>.edge>path:hover{stroke-width:8}</style>
<ellipse fill="#95b653" stroke="black" cx="973" cy="-557.96" rx="48.04" ry="18"/>
<text text-anchor="middle" x="973" y="-555.46" font-family="Helvetica,sans-Serif" font-size="10.00" fill="#000000">drivers.modbus</text>
</g>
<!-- devices_drivers_modbus_register_type -->
<g id="node15" class="node">
<title>devices_drivers_modbus_register_type</title><style>.edge>path:hover{stroke-width:8}</style>
<ellipse fill="#95b653" stroke="black" cx="855" cy="-557.96" rx="51.74" ry="28.98"/>
<text text-anchor="middle" x="855" y="-566.46" font-family="Helvetica,sans-Serif" font-size="10.00" fill="#000000">drivers.</text>
<text text-anchor="middle" x="855" y="-555.46" font-family="Helvetica,sans-Serif" font-size="10.00" fill="#000000">modbus.</text>
<text text-anchor="middle" x="855" y="-544.46" font-family="Helvetica,sans-Serif" font-size="10.00" fill="#000000">register_type</text>
</g>
<!-- flask -->
<g id="node16" class="node">
<title>flask</title><style>.edge>path:hover{stroke-width:8}</style>
<ellipse fill="#47c247" stroke="black" cx="737" cy="-853.37" rx="27" ry="18"/>
<text text-anchor="middle" x="737" y="-850.87" font-family="Helvetica,sans-Serif" font-size="10.00" fill="#000000">flask</text>
</g>
<!-- flask&#45;&gt;controllers_unipi_evok_server -->
<g id="edge11" class="edge">
<title>flask&#45;&gt;controllers_unipi_evok_server</title><style>.edge>path:hover{stroke-width:8}</style>
<path fill="none" stroke="black" d="M737,-827.38C737,-799.52 737,-753.11 737,-713.16 737,-713.16 737,-713.16 737,-473.97 737,-379.6 395.35,-360.62 276.88,-356.87"/>
<polygon fill="#000000" stroke="black" points="285.43,-354.69 275,-356.58 284.33,-361.6 285.43,-354.69"/>
</g>
<!-- services_http_server -->
<g id="node20" class="node">
<title>services_http_server</title><style>.edge>path:hover{stroke-width:8}</style>
<ellipse fill="#3d8fb8" stroke="black" cx="801" cy="-651.95" rx="36.49" ry="18"/>
<text text-anchor="middle" x="801" y="-649.45" font-family="Helvetica,sans-Serif" font-size="10.00" fill="#ffffff">http.server</text>
</g>
<!-- flask&#45;&gt;services_http_server -->
<g id="edge12" class="edge">
<title>flask&#45;&gt;services_http_server</title><style>.edge>path:hover{stroke-width:8}</style>
<path fill="none" stroke="black" d="M746.93,-827.38C748.34,-823.64 749.74,-819.81 751,-816.16 763,-781.49 775.08,-742.18 784.37,-710.83"/>
<polygon fill="#000000" stroke="black" points="787.81,-711.53 787.28,-700.95 781.1,-709.55 787.81,-711.53"/>
</g>
<!-- requests -->
<g id="node17" class="node">
<title>requests</title><style>.edge>path:hover{stroke-width:8}</style>
<ellipse fill="#53b695" stroke="black" cx="1225" cy="-557.96" rx="31.58" ry="18"/>
<text text-anchor="middle" x="1225" y="-555.46" font-family="Helvetica,sans-Serif" font-size="10.00" fill="#000000">requests</text>
</g>
<!-- requests&#45;&gt;controllers_unipi_evok_evok -->
<g id="edge13" class="edge">
<title>requests&#45;&gt;controllers_unipi_evok_evok</title><style>.edge>path:hover{stroke-width:8}</style>
<path fill="none" stroke="black" d="M1196.88,-531.96C1191.78,-528.02 1186.37,-524.18 1181,-520.97 1117.42,-482.87 1095.67,-484.86 1027,-456.97 880.8,-397.58 849.57,-366.25 697,-325.98 543.86,-285.57 354.9,-269.5 275.25,-264.21"/>
<polygon fill="#000000" stroke="black" points="281.91,-271.59 275,-263.56 275.39,-274.15 281.91,-271.59"/>
</g>
<!-- services -->
<g id="node18" class="node">
<title>services</title><style>.edge>path:hover{stroke-width:8}</style>
<ellipse fill="#5395b6" stroke="black" cx="958" cy="-651.95" rx="30.72" ry="18"/>
<text text-anchor="middle" x="958" y="-649.45" font-family="Helvetica,sans-Serif" font-size="10.00" fill="#000000">services</text>
</g>
<!-- services&#45;&gt;controllers_unipi_evok_server -->
<g id="edge14" class="edge">
<title>services&#45;&gt;controllers_unipi_evok_server</title><style>.edge>path:hover{stroke-width:8}</style>
<path fill="none" stroke="black" d="M918,-625.95C904.54,-621.62 801.66,-627.24 791,-617.95 723.34,-558.95 816.83,-481 751,-419.97 716.31,-387.8 391.35,-365.28 276.76,-358.28"/>
<polygon fill="#000000" stroke="black" points="285.59,-357.63 275,-357.67 283.31,-364.24 285.59,-357.63"/>
</g>
<!-- services_http -->
<g id="node19" class="node">
<title>services_http</title><style>.edge>path:hover{stroke-width:8}</style>
<ellipse fill="#5395b6" stroke="black" cx="882" cy="-651.95" rx="27" ry="18"/>
<text text-anchor="middle" x="882" y="-649.45" font-family="Helvetica,sans-Serif" font-size="10.00" fill="#000000">http</text>
</g>
<!-- utils -->
<g id="node21" class="node">
<title>utils</title><style>.edge>path:hover{stroke-width:8}</style>
<ellipse fill="#2f2fdb" stroke="black" cx="498" cy="-651.95" rx="27" ry="18"/>
<text text-anchor="middle" x="498" y="-649.45" font-family="Helvetica,sans-Serif" font-size="10.00" fill="#ffffff">utils</text>
</g>
<!-- utils&#45;&gt;controllers_base_controller -->
<g id="edge15" class="edge">
<title>utils&#45;&gt;controllers_base_controller</title><style>.edge>path:hover{stroke-width:8}</style>
<path fill="none" stroke="black" d="M463,-614.14C433.81,-585.3 389.88,-545.99 345,-520.97 326.34,-510.56 304.92,-502.13 284.57,-495.51"/>
<polygon fill="#000000" stroke="black" points="285.59,-492.16 275,-492.49 283.48,-498.84 285.59,-492.16"/>
</g>
<!-- utils_configuarable -->
<g id="node22" class="node">
<title>utils_configuarable</title><style>.edge>path:hover{stroke-width:8}</style>
<ellipse fill="#5353b6" stroke="black" cx="587" cy="-651.95" rx="43.62" ry="18"/>
<text text-anchor="middle" x="587" y="-649.45" font-family="Helvetica,sans-Serif" font-size="10.00" fill="#ffffff">configuarable</text>
</g>
<!-- utils_logger -->
<g id="node23" class="node">
<title>utils_logger</title><style>.edge>path:hover{stroke-width:8}</style>
<ellipse fill="#3d3db8" stroke="black" cx="679" cy="-557.96" rx="27" ry="18"/>
<text text-anchor="middle" x="679" y="-555.46" font-family="Helvetica,sans-Serif" font-size="10.00" fill="#ffffff">logger</text>
</g>
<!-- utils_settings -->
<g id="node24" class="node">
<title>utils_settings</title><style>.edge>path:hover{stroke-width:8}</style>
<ellipse fill="#4040c0" stroke="black" cx="679" cy="-651.95" rx="30.04" ry="18"/>
<text text-anchor="middle" x="679" y="-649.45" font-family="Helvetica,sans-Serif" font-size="10.00" fill="#ffffff">settings</text>
</g>
<!-- utils_settings&#45;&gt;utils_logger -->
<g id="edge16" class="edge">
<title>utils_settings&#45;&gt;utils_logger</title><style>.edge>path:hover{stroke-width:8}</style>
<path fill="none" stroke="black" d="M679,-633.65C679,-620.41 679,-601.9 679,-586.62"/>
<polygon fill="#000000" stroke="black" points="682.5,-586.18 679,-576.18 675.5,-586.18 682.5,-586.18"/>
</g>
<!-- werkzeug_serving -->
<g id="node25" class="node">
<title>werkzeug_serving</title><style>.edge>path:hover{stroke-width:8}</style>
<ellipse fill="#9553b6" stroke="black" cx="831" cy="-853.37" rx="43.27" ry="21.43"/>
<text text-anchor="middle" x="831" y="-856.37" font-family="Helvetica,sans-Serif" font-size="10.00" fill="#ffffff">werkzeug.</text>
<text text-anchor="middle" x="831" y="-845.37" font-family="Helvetica,sans-Serif" font-size="10.00" fill="#ffffff">serving</text>
</g>
<!-- werkzeug_serving&#45;&gt;services_http_server -->
<g id="edge17" class="edge">
<title>werkzeug_serving&#45;&gt;services_http_server</title><style>.edge>path:hover{stroke-width:8}</style>
<path fill="none" stroke="black" d="M826.76,-824.17C822.35,-794.89 815.34,-748.26 809.74,-711.06"/>
<polygon fill="#000000" stroke="black" points="813.17,-710.31 808.22,-700.95 806.25,-711.35 813.17,-710.31"/>
</g>
<!-- yaml -->
<g id="node26" class="node">
<title>yaml</title><style>.edge>path:hover{stroke-width:8}</style>
<ellipse fill="#b65395" stroke="black" cx="679" cy="-767.16" rx="27" ry="18"/>
<text text-anchor="middle" x="679" y="-764.66" font-family="Helvetica,sans-Serif" font-size="10.00" fill="#ffffff">yaml</text>
</g>
<!-- yaml&#45;&gt;utils_settings -->
<g id="edge18" class="edge">
<title>yaml&#45;&gt;utils_settings</title><style>.edge>path:hover{stroke-width:8}</style>
<path fill="none" stroke="black" d="M679,-741.17C679,-732.18 679,-721.64 679,-711.02"/>
<polygon fill="#000000" stroke="black" points="682.5,-710.94 679,-700.94 675.5,-710.94 682.5,-710.94"/>
</g>
</g>
</svg>
