<?xml version="1.0" encoding="UTF-8" standalone="no"?>
<!DOCTYPE svg PUBLIC "-//W3C//DTD SVG 1.1//EN"
 "http://www.w3.org/Graphics/SVG/1.1/DTD/svg11.dtd">
<!-- Generated by graphviz version 2.50.0 (20211204.2007)
 -->
<!-- Title: G Pages: 1 -->
<svg width="1037pt" height="516pt"
 viewBox="0.00 0.00 1037.44 515.84" xmlns="http://www.w3.org/2000/svg" xmlns:xlink="http://www.w3.org/1999/xlink">
<g id="graph0" class="graph" transform="scale(1 1) rotate(0) translate(4 511.84)">
<title>G</title><style>.edge>path:hover{stroke-width:8}</style>
<polygon fill="white" stroke="transparent" points="-4,4 -4,-511.84 1033.44,-511.84 1033.44,4 -4,4"/>
<g id="clust3" class="cluster">
<title>cluster_plugins</title><style>.edge>path:hover{stroke-width:8}</style>
<polygon fill="none" stroke="black" points="474,-8 474,-308.64 570,-308.64 570,-8 474,-8"/>
<text text-anchor="middle" x="522" y="-293.44" font-family="Times New Roman,serif" font-size="14.00">plugins</text>
</g>
<g id="clust1" class="cluster">
<title>cluster_data</title><style>.edge>path:hover{stroke-width:8}</style>
<polygon fill="none" stroke="black" points="132,-424.84 132,-499.84 470,-499.84 470,-424.84 132,-424.84"/>
<text text-anchor="middle" x="301" y="-484.64" font-family="Times New Roman,serif" font-size="14.00">data</text>
</g>
<g id="clust2" class="cluster">
<title>cluster_devices</title><style>.edge>path:hover{stroke-width:8}</style>
<polygon fill="none" stroke="black" points="610,-319.85 610,-416.84 998,-416.84 998,-319.85 610,-319.85"/>
<text text-anchor="middle" x="804" y="-401.64" font-family="Times New Roman,serif" font-size="14.00">devices</text>
</g>
<g id="clust4" class="cluster">
<title>cluster_services</title><style>.edge>path:hover{stroke-width:8}</style>
<polygon fill="none" stroke="black" points="8,-152 8,-311.85 396,-311.85 396,-152 8,-152"/>
<text text-anchor="middle" x="202" y="-296.65" font-family="Times New Roman,serif" font-size="14.00">services</text>
</g>
<!-- data -->
<g id="node1" class="node">
<title>data</title><style>.edge>path:hover{stroke-width:8}</style>
<ellipse fill="#c24747" stroke="black" cx="435" cy="-450.84" rx="27" ry="18"/>
<text text-anchor="middle" x="435" y="-448.34" font-family="Helvetica,sans-Serif" font-size="10.00" fill="#ffffff">data</text>
</g>
<!-- plugins_ac_zone -->
<g id="node9" class="node">
<title>plugins_ac_zone</title><style>.edge>path:hover{stroke-width:8}</style>
<ellipse fill="#267345" stroke="black" cx="532" cy="-106" rx="30.04" ry="18"/>
<text text-anchor="middle" x="532" y="-103.5" font-family="Helvetica,sans-Serif" font-size="10.00" fill="#ffffff">ac.zone</text>
</g>
<!-- data&#45;&gt;plugins_ac_zone -->
<g id="edge1" class="edge">
<title>data&#45;&gt;plugins_ac_zone</title><style>.edge>path:hover{stroke-width:8}</style>
<path fill="none" stroke="black" d="M439.14,-424.84C446.89,-378.34 463.49,-280.16 471.52,-244.97"/>
<polygon fill="#000000" stroke="black" points="474.92,-245.79 474,-235.23 468.14,-244.06 474.92,-245.79"/>
</g>
<!-- services_global_error_handler_global_error_handler -->
<g id="node14" class="node">
<title>services_global_error_handler_global_error_handler</title><style>.edge>path:hover{stroke-width:8}</style>
<ellipse fill="#3560a1" stroke="black" cx="312" cy="-181.21" rx="75.82" ry="21.43"/>
<text text-anchor="middle" x="312" y="-184.21" font-family="Helvetica,sans-Serif" font-size="10.00" fill="#ffffff">global_error_handler.</text>
<text text-anchor="middle" x="312" y="-173.21" font-family="Helvetica,sans-Serif" font-size="10.00" fill="#ffffff">global_error_handler</text>
</g>
<!-- data&#45;&gt;services_global_error_handler_global_error_handler -->
<g id="edge2" class="edge">
<title>data&#45;&gt;services_global_error_handler_global_error_handler</title><style>.edge>path:hover{stroke-width:8}</style>
<path fill="none" stroke="black" d="M436.56,-424.84C437.88,-384.78 435.56,-304.78 401.4,-245.69"/>
<polygon fill="#000000" stroke="black" points="404.23,-243.62 396,-236.94 398.27,-247.29 404.23,-243.62"/>
</g>
<!-- data_card_state -->
<g id="node2" class="node">
<title>data_card_state</title><style>.edge>path:hover{stroke-width:8}</style>
<ellipse fill="#b65353" stroke="black" cx="354" cy="-450.84" rx="36.49" ry="18"/>
<text text-anchor="middle" x="354" y="-448.34" font-family="Helvetica,sans-Serif" font-size="10.00" fill="#ffffff">card_state</text>
</g>
<!-- data_register -->
<g id="node3" class="node">
<title>data_register</title><style>.edge>path:hover{stroke-width:8}</style>
<ellipse fill="#b65353" stroke="black" cx="271" cy="-450.84" rx="28.69" ry="18"/>
<text text-anchor="middle" x="271" y="-448.34" font-family="Helvetica,sans-Serif" font-size="10.00" fill="#ffffff">register</text>
</g>
<!-- data_verbal_const -->
<g id="node4" class="node">
<title>data_verbal_const</title><style>.edge>path:hover{stroke-width:8}</style>
<ellipse fill="#b65353" stroke="black" cx="182" cy="-450.84" rx="41.59" ry="18"/>
<text text-anchor="middle" x="182" y="-448.34" font-family="Helvetica,sans-Serif" font-size="10.00" fill="#ffffff">verbal_const</text>
</g>
<!-- devices -->
<g id="node5" class="node">
<title>devices</title><style>.edge>path:hover{stroke-width:8}</style>
<ellipse fill="#a2b653" stroke="black" cx="961" cy="-356.84" rx="28.69" ry="18"/>
<text text-anchor="middle" x="961" y="-354.34" font-family="Helvetica,sans-Serif" font-size="10.00" fill="#000000">devices</text>
</g>
<!-- devices&#45;&gt;plugins_ac_zone -->
<g id="edge3" class="edge">
<title>devices&#45;&gt;plugins_ac_zone</title><style>.edge>path:hover{stroke-width:8}</style>
<path fill="none" stroke="black" d="M923,-319.85C807.56,-235.97 655.27,-162.37 579.32,-127.85"/>
<polygon fill="#000000" stroke="black" points="580.55,-124.57 570,-123.64 577.67,-130.95 580.55,-124.57"/>
</g>
<!-- devices_factories_card_readers_card_reader_factory -->
<g id="node6" class="node">
<title>devices_factories_card_readers_card_reader_factory</title><style>.edge>path:hover{stroke-width:8}</style>
<ellipse fill="#a2b653" stroke="black" cx="842" cy="-356.84" rx="72.25" ry="28.98"/>
<text text-anchor="middle" x="842" y="-365.34" font-family="Helvetica,sans-Serif" font-size="10.00" fill="#000000">factories.</text>
<text text-anchor="middle" x="842" y="-354.34" font-family="Helvetica,sans-Serif" font-size="10.00" fill="#000000">card_readers.</text>
<text text-anchor="middle" x="842" y="-343.34" font-family="Helvetica,sans-Serif" font-size="10.00" fill="#000000">card_reader_factory</text>
</g>
<!-- devices_factories_card_readers_card_reader_state -->
<g id="node7" class="node">
<title>devices_factories_card_readers_card_reader_state</title><style>.edge>path:hover{stroke-width:8}</style>
<ellipse fill="#a2b653" stroke="black" cx="685" cy="-356.84" rx="67.35" ry="28.98"/>
<text text-anchor="middle" x="685" y="-365.34" font-family="Helvetica,sans-Serif" font-size="10.00" fill="#000000">factories.</text>
<text text-anchor="middle" x="685" y="-354.34" font-family="Helvetica,sans-Serif" font-size="10.00" fill="#000000">card_readers.</text>
<text text-anchor="middle" x="685" y="-343.34" font-family="Helvetica,sans-Serif" font-size="10.00" fill="#000000">card_reader_state</text>
</g>
<!-- plugins_ac_ac -->
<g id="node8" class="node">
<title>plugins_ac_ac</title><style>.edge>path:hover{stroke-width:8}</style>
<ellipse fill="#2e6b46" stroke="black" cx="532" cy="-34" rx="27" ry="18"/>
<text text-anchor="middle" x="532" y="-31.5" font-family="Helvetica,sans-Serif" font-size="10.00" fill="#ffffff">ac.ac</text>
</g>
<!-- plugins_ac_zone&#45;&gt;plugins_ac_ac -->
<g id="edge4" class="edge">
<title>plugins_ac_zone&#45;&gt;plugins_ac_ac</title><style>.edge>path:hover{stroke-width:8}</style>
<path fill="none" stroke="black" d="M532,-87.7C532,-79.98 532,-70.71 532,-62.11"/>
<polygon fill="#000000" stroke="black" points="535.5,-62.1 532,-52.1 528.5,-62.1 535.5,-62.1"/>
</g>
<!-- plugins_base_plugin -->
<g id="node10" class="node">
<title>plugins_base_plugin</title><style>.edge>path:hover{stroke-width:8}</style>
<ellipse fill="#3ab069" stroke="black" cx="522" cy="-259.64" rx="40.06" ry="18"/>
<text text-anchor="middle" x="522" y="-257.14" font-family="Helvetica,sans-Serif" font-size="10.00" fill="#000000">base_plugin</text>
</g>
<!-- plugins_base_plugin&#45;&gt;plugins_ac_ac -->
<g id="edge5" class="edge">
<title>plugins_base_plugin&#45;&gt;plugins_ac_ac</title><style>.edge>path:hover{stroke-width:8}</style>
<path fill="none" stroke="black" d="M513.88,-241.77C500.05,-210.68 475.1,-142.53 493,-88 496.71,-76.7 503.85,-65.82 511.02,-56.89"/>
<polygon fill="#000000" stroke="black" points="513.69,-59.17 517.52,-49.29 508.36,-54.62 513.69,-59.17"/>
</g>
<!-- plugins_base_plugin&#45;&gt;plugins_ac_zone -->
<g id="edge6" class="edge">
<title>plugins_base_plugin&#45;&gt;plugins_ac_zone</title><style>.edge>path:hover{stroke-width:8}</style>
<path fill="none" stroke="black" d="M523.13,-241.54C524.85,-215.49 528.14,-165.6 530.19,-134.44"/>
<polygon fill="#000000" stroke="black" points="533.7,-134.48 530.86,-124.27 526.71,-134.02 533.7,-134.48"/>
</g>
<!-- services -->
<g id="node11" class="node">
<title>services</title><style>.edge>path:hover{stroke-width:8}</style>
<ellipse fill="#3b76ce" stroke="black" cx="47" cy="-259.64" rx="30.72" ry="18"/>
<text text-anchor="middle" x="47" y="-257.14" font-family="Helvetica,sans-Serif" font-size="10.00" fill="#ffffff">services</text>
</g>
<!-- services&#45;&gt;plugins_ac_ac -->
<g id="edge7" class="edge">
<title>services&#45;&gt;plugins_ac_ac</title><style>.edge>path:hover{stroke-width:8}</style>
<path fill="none" stroke="black" d="M227,-152C306.23,-113.67 401.49,-78.82 464.22,-57.31"/>
<polygon fill="#000000" stroke="black" points="465.67,-60.51 474,-53.97 463.41,-53.89 465.67,-60.51"/>
</g>
<!-- services_global_error_handler -->
<g id="node12" class="node">
<title>services_global_error_handler</title><style>.edge>path:hover{stroke-width:8}</style>
<ellipse fill="#3b76ce" stroke="black" cx="157" cy="-259.64" rx="61.44" ry="18"/>
<text text-anchor="middle" x="157" y="-257.14" font-family="Helvetica,sans-Serif" font-size="10.00" fill="#ffffff">global_error_handler</text>
</g>
<!-- services_global_error_handler_error_codes -->
<g id="node13" class="node">
<title>services_global_error_handler_error_codes</title><style>.edge>path:hover{stroke-width:8}</style>
<ellipse fill="#537bb6" stroke="black" cx="312" cy="-259.64" rx="75.82" ry="21.43"/>
<text text-anchor="middle" x="312" y="-262.64" font-family="Helvetica,sans-Serif" font-size="10.00" fill="#ffffff">global_error_handler.</text>
<text text-anchor="middle" x="312" y="-251.64" font-family="Helvetica,sans-Serif" font-size="10.00" fill="#ffffff">error_codes</text>
</g>
<!-- services_global_error_handler_error_codes&#45;&gt;services_global_error_handler_global_error_handler -->
<g id="edge8" class="edge">
<title>services_global_error_handler_error_codes&#45;&gt;services_global_error_handler_global_error_handler</title><style>.edge>path:hover{stroke-width:8}</style>
<path fill="none" stroke="black" d="M312,-238.16C312,-230.3 312,-221.16 312,-212.57"/>
<polygon fill="#000000" stroke="black" points="315.5,-212.49 312,-202.49 308.5,-212.49 315.5,-212.49"/>
</g>
<!-- utils -->
<g id="node15" class="node">
<title>utils</title><style>.edge>path:hover{stroke-width:8}</style>
<polygon fill="#b82fdb" stroke="black" points="617,-468.84 614,-472.84 593,-472.84 590,-468.84 563,-468.84 563,-432.84 617,-432.84 617,-468.84"/>
<text text-anchor="middle" x="590" y="-448.34" font-family="Helvetica,sans-Serif" font-size="10.00" fill="#ffffff">utils</text>
</g>
<!-- utils&#45;&gt;plugins_ac_ac -->
<g id="edge9" class="edge">
<title>utils&#45;&gt;plugins_ac_ac</title><style>.edge>path:hover{stroke-width:8}</style>
<path fill="none" stroke="black" d="M617.11,-449.63C704.46,-448.72 974.52,-443.71 1002,-416.84 1051.89,-368.04 1018,-330.42 1018,-260.64 1018,-260.64 1018,-260.64 1018,-180.21 1018,-89.48 703.06,-50.72 580.23,-39.06"/>
<polygon fill="#b82fdb" stroke="black" points="580.28,-35.55 570,-38.11 579.63,-42.52 580.28,-35.55"/>
</g>
<!-- utils&#45;&gt;plugins_ac_zone -->
<g id="edge10" class="edge">
<title>utils&#45;&gt;plugins_ac_zone</title><style>.edge>path:hover{stroke-width:8}</style>
<path fill="none" stroke="black" d="M589.61,-432.69C588.59,-398.04 584.97,-317.09 571.83,-243.26"/>
<polygon fill="#b82fdb" stroke="black" points="575.26,-242.56 570,-233.37 568.38,-243.84 575.26,-242.56"/>
</g>
<!-- utils&#45;&gt;plugins_base_plugin -->
<g id="edge11" class="edge">
<title>utils&#45;&gt;plugins_base_plugin</title><style>.edge>path:hover{stroke-width:8}</style>
<path fill="none" stroke="black" d="M582.51,-432.8C580.34,-427.69 578.01,-422.06 576,-416.84 563.58,-384.54 550.88,-348 540.92,-318.4"/>
<polygon fill="#b82fdb" stroke="black" points="544.14,-317.01 537.65,-308.64 537.51,-319.23 544.14,-317.01"/>
</g>
</g>
</svg>
