<?xml version="1.0" encoding="UTF-8" standalone="no"?>
<!DOCTYPE svg PUBLIC "-//W3C//DTD SVG 1.1//EN"
 "http://www.w3.org/Graphics/SVG/1.1/DTD/svg11.dtd">
<!-- Generated by graphviz version 2.44.1 (20200629.0846)
 -->
<!-- Title: G Pages: 1 -->
<svg width="1949pt" height="639pt"
 viewBox="0.00 0.00 1949.00 638.85" xmlns="http://www.w3.org/2000/svg" xmlns:xlink="http://www.w3.org/1999/xlink">
<g id="graph0" class="graph" transform="scale(1 1) rotate(0) translate(4 634.85)">
<title>G</title><style>.edge>path:hover{stroke-width:8}</style>
<polygon fill="white" stroke="transparent" points="-4,4 -4,-634.85 1945,-634.85 1945,4 -4,4"/>
<g id="clust1" class="cluster">
<title>cluster_bgERP</title><style>.edge>path:hover{stroke-width:8}</style>
<polygon fill="none" stroke="black" points="864,-91 864,-335.21 1012,-335.21 1012,-91 864,-91"/>
<text text-anchor="middle" x="938" y="-320.01" font-family="Times New Roman,serif" font-size="14.00">bgERP</text>
</g>
<g id="clust4" class="cluster">
<title>cluster_flask</title><style>.edge>path:hover{stroke-width:8}</style>
<polygon fill="none" stroke="black" points="73,-544.64 73,-619.64 143,-619.64 143,-544.64 73,-544.64"/>
<text text-anchor="middle" x="108" y="-604.44" font-family="Times New Roman,serif" font-size="14.00">flask</text>
</g>
<g id="clust3" class="cluster">
<title>cluster_data</title><style>.edge>path:hover{stroke-width:8}</style>
<polygon fill="none" stroke="black" points="1166,-174 1166,-335.21 1312,-335.21 1312,-174 1166,-174"/>
<text text-anchor="middle" x="1239" y="-320.01" font-family="Times New Roman,serif" font-size="14.00">data</text>
</g>
<g id="clust2" class="cluster">
<title>cluster_controllers</title><style>.edge>path:hover{stroke-width:8}</style>
<polygon fill="none" stroke="black" points="1556,-174 1556,-249 1770,-249 1770,-174 1556,-174"/>
<text text-anchor="middle" x="1663" y="-233.8" font-family="Times New Roman,serif" font-size="14.00">controllers</text>
</g>
<g id="clust10" class="cluster">
<title>cluster_utils</title><style>.edge>path:hover{stroke-width:8}</style>
<polygon fill="none" stroke="black" points="1350,-260.21 1350,-421.43 1933,-421.43 1933,-260.21 1350,-260.21"/>
<text text-anchor="middle" x="1641.5" y="-406.23" font-family="Times New Roman,serif" font-size="14.00">utils</text>
</g>
<g id="clust5" class="cluster">
<title>cluster_main</title><style>.edge>path:hover{stroke-width:8}</style>
<polygon fill="none" stroke="black" points="1770,-8 1770,-83 1840,-83 1840,-8 1770,-8"/>
<text text-anchor="middle" x="1805" y="-67.8" font-family="Times New Roman,serif" font-size="14.00">main</text>
</g>
<g id="clust8" class="cluster">
<title>cluster_services</title><style>.edge>path:hover{stroke-width:8}</style>
<polygon fill="none" stroke="black" points="128,-257 128,-421.43 856,-421.43 856,-257 128,-257"/>
<text text-anchor="middle" x="492" y="-406.23" font-family="Times New Roman,serif" font-size="14.00">services</text>
</g>
<g id="clust11" class="cluster">
<title>cluster_werkzeug</title><style>.edge>path:hover{stroke-width:8}</style>
<polygon fill="none" stroke="black" points="151,-541.43 151,-622.85 253,-622.85 253,-541.43 151,-541.43"/>
<text text-anchor="middle" x="202" y="-607.65" font-family="Times New Roman,serif" font-size="14.00">werkzeug</text>
</g>
<g id="clust7" class="cluster">
<title>cluster_requests</title><style>.edge>path:hover{stroke-width:8}</style>
<polygon fill="none" stroke="black" points="8,-343.21 8,-418.21 88,-418.21 88,-343.21 8,-343.21"/>
<text text-anchor="middle" x="48" y="-403.01" font-family="Times New Roman,serif" font-size="14.00">requests</text>
</g>
<g id="clust6" class="cluster">
<title>cluster_plugins</title><style>.edge>path:hover{stroke-width:8}</style>
<polygon fill="none" stroke="black" points="1320,-174 1320,-249 1516,-249 1516,-174 1320,-174"/>
<text text-anchor="middle" x="1418" y="-233.8" font-family="Times New Roman,serif" font-size="14.00">plugins</text>
</g>
<g id="clust9" class="cluster">
<title>cluster_setproctitle</title><style>.edge>path:hover{stroke-width:8}</style>
<polygon fill="none" stroke="black" points="1825,-91 1825,-166 1917,-166 1917,-91 1825,-91"/>
<text text-anchor="middle" x="1871" y="-150.8" font-family="Times New Roman,serif" font-size="14.00">setproctitle</text>
</g>
<g id="clust13" class="cluster">
<title>cluster_zone</title><style>.edge>path:hover{stroke-width:8}</style>
<polygon fill="none" stroke="black" points="1445,-91 1445,-166 1515,-166 1515,-91 1445,-91"/>
<text text-anchor="middle" x="1480" y="-150.8" font-family="Times New Roman,serif" font-size="14.00">zone</text>
</g>
<g id="clust12" class="cluster">
<title>cluster_yaml</title><style>.edge>path:hover{stroke-width:8}</style>
<polygon fill="none" stroke="black" points="1353,-458.43 1353,-533.43 1423,-533.43 1423,-458.43 1353,-458.43"/>
<text text-anchor="middle" x="1388" y="-518.23" font-family="Times New Roman,serif" font-size="14.00">yaml</text>
</g>
<!-- bgERP -->
<g id="node1" class="node">
<title>bgERP</title><style>.edge>path:hover{stroke-width:8}</style>
<ellipse fill="#db2f2f" stroke="black" cx="976" cy="-286.21" rx="27.84" ry="18"/>
<text text-anchor="middle" x="976" y="-283.71" font-family="Helvetica,sans-Serif" font-size="10.00" fill="#ffffff">bgERP</text>
</g>
<!-- zone -->
<g id="node34" class="node">
<title>zone</title><style>.edge>path:hover{stroke-width:8}</style>
<ellipse fill="#6b2e4a" stroke="black" cx="1480" cy="-117" rx="27" ry="18"/>
<text text-anchor="middle" x="1480" y="-114.5" font-family="Helvetica,sans-Serif" font-size="10.00" fill="#ffffff">zone</text>
</g>
<!-- bgERP&#45;&gt;zone -->
<g id="edge1" class="edge">
<title>bgERP&#45;&gt;zone</title><style>.edge>path:hover{stroke-width:8}</style>
<path fill="none" stroke="black" d="M1012,-241.15C1027.57,-213.81 1020.8,-193.55 1050,-174 1114.02,-131.15 1350.47,-121.02 1442.76,-118.68"/>
<polygon fill="#000000" stroke="black" points="1435.44,-123 1445,-118.44 1434.68,-116.04 1435.44,-123"/>
</g>
<!-- bgERP_bgERP -->
<g id="node2" class="node">
<title>bgERP_bgERP</title><style>.edge>path:hover{stroke-width:8}</style>
<ellipse fill="#964040" stroke="black" cx="971" cy="-117" rx="27.84" ry="18"/>
<text text-anchor="middle" x="971" y="-114.5" font-family="Helvetica,sans-Serif" font-size="10.00" fill="#ffffff">bgERP</text>
</g>
<!-- bgERP_client -->
<g id="node3" class="node">
<title>bgERP_client</title><style>.edge>path:hover{stroke-width:8}</style>
<ellipse fill="#a13535" stroke="black" cx="899" cy="-200" rx="27" ry="18"/>
<text text-anchor="middle" x="899" y="-197.5" font-family="Helvetica,sans-Serif" font-size="10.00" fill="#ffffff">client</text>
</g>
<!-- bgERP_client&#45;&gt;bgERP_bgERP -->
<g id="edge2" class="edge">
<title>bgERP_client&#45;&gt;bgERP_bgERP</title><style>.edge>path:hover{stroke-width:8}</style>
<path fill="none" stroke="black" d="M912.21,-184.14C923,-172 938.43,-154.64 950.78,-140.75"/>
<polygon fill="#000000" stroke="black" points="953.61,-142.84 957.63,-133.04 948.37,-138.19 953.61,-142.84"/>
</g>
<!-- bgERP_server -->
<g id="node4" class="node">
<title>bgERP_server</title><style>.edge>path:hover{stroke-width:8}</style>
<ellipse fill="#8a2e2e" stroke="black" cx="971" cy="-200" rx="27" ry="18"/>
<text text-anchor="middle" x="971" y="-197.5" font-family="Helvetica,sans-Serif" font-size="10.00" fill="#ffffff">server</text>
</g>
<!-- bgERP_server&#45;&gt;bgERP_bgERP -->
<g id="edge3" class="edge">
<title>bgERP_server&#45;&gt;bgERP_bgERP</title><style>.edge>path:hover{stroke-width:8}</style>
<path fill="none" stroke="black" d="M971,-181.82C971,-171.19 971,-157.31 971,-145.2"/>
<polygon fill="#000000" stroke="black" points="974.5,-145.15 971,-135.15 967.5,-145.15 974.5,-145.15"/>
</g>
<!-- bgERP_session -->
<g id="node5" class="node">
<title>bgERP_session</title><style>.edge>path:hover{stroke-width:8}</style>
<ellipse fill="#b83d3d" stroke="black" cx="901" cy="-286.21" rx="29.37" ry="18"/>
<text text-anchor="middle" x="901" y="-283.71" font-family="Helvetica,sans-Serif" font-size="10.00" fill="#ffffff">session</text>
</g>
<!-- bgERP_session&#45;&gt;bgERP_client -->
<g id="edge4" class="edge">
<title>bgERP_session&#45;&gt;bgERP_client</title><style>.edge>path:hover{stroke-width:8}</style>
<path fill="none" stroke="black" d="M900.6,-268.17C900.32,-256.76 899.96,-241.48 899.65,-228.38"/>
<polygon fill="#000000" stroke="black" points="903.14,-227.93 899.4,-218.02 896.14,-228.1 903.14,-227.93"/>
</g>
<!-- bgERP_session&#45;&gt;bgERP_server -->
<g id="edge5" class="edge">
<title>bgERP_session&#45;&gt;bgERP_server</title><style>.edge>path:hover{stroke-width:8}</style>
<path fill="none" stroke="black" d="M915.61,-270.4C921.76,-263.97 928.9,-256.26 935,-249 941.49,-241.27 948.23,-232.51 954.1,-224.61"/>
<polygon fill="#000000" stroke="black" points="956.98,-226.6 960.07,-216.47 951.33,-222.46 956.98,-226.6"/>
</g>
<!-- controllers -->
<g id="node6" class="node">
<title>controllers</title><style>.edge>path:hover{stroke-width:8}</style>
<ellipse fill="#b68153" stroke="black" cx="1726" cy="-200" rx="36.49" ry="18"/>
<text text-anchor="middle" x="1726" y="-197.5" font-family="Helvetica,sans-Serif" font-size="10.00" fill="#000000">controllers</text>
</g>
<!-- controllers&#45;&gt;zone -->
<g id="edge6" class="edge">
<title>controllers&#45;&gt;zone</title><style>.edge>path:hover{stroke-width:8}</style>
<path fill="none" stroke="black" d="M1681,-174C1625.04,-151.04 1556.58,-134.21 1515.72,-125.28"/>
<polygon fill="#000000" stroke="black" points="1523.28,-130.74 1515,-124.13 1517.35,-134.46 1523.28,-130.74"/>
</g>
<!-- controllers_controller_factory -->
<g id="node7" class="node">
<title>controllers_controller_factory</title><style>.edge>path:hover{stroke-width:8}</style>
<ellipse fill="#b68153" stroke="black" cx="1618" cy="-200" rx="53.64" ry="18"/>
<text text-anchor="middle" x="1618" y="-197.5" font-family="Helvetica,sans-Serif" font-size="10.00" fill="#000000">controller_factory</text>
</g>
<!-- data -->
<g id="node8" class="node">
<title>data</title><style>.edge>path:hover{stroke-width:8}</style>
<ellipse fill="#cec33b" stroke="black" cx="1277" cy="-286.21" rx="27" ry="18"/>
<text text-anchor="middle" x="1277" y="-283.71" font-family="Helvetica,sans-Serif" font-size="10.00" fill="#000000">data</text>
</g>
<!-- services_global_error_handler_global_error_handler -->
<g id="node21" class="node">
<title>services_global_error_handler_global_error_handler</title><style>.edge>path:hover{stroke-width:8}</style>
<ellipse fill="#2b8eac" stroke="black" cx="772" cy="-286.21" rx="75.82" ry="21.43"/>
<text text-anchor="middle" x="772" y="-289.21" font-family="Helvetica,sans-Serif" font-size="10.00" fill="#ffffff">global_error_handler.</text>
<text text-anchor="middle" x="772" y="-278.21" font-family="Helvetica,sans-Serif" font-size="10.00" fill="#ffffff">global_error_handler</text>
</g>
<!-- data&#45;&gt;services_global_error_handler_global_error_handler -->
<g id="edge7" class="edge">
<title>data&#45;&gt;services_global_error_handler_global_error_handler</title><style>.edge>path:hover{stroke-width:8}</style>
<path fill="none" stroke="black" d="M1242.41,-335.21C1239.17,-337.04 1235.7,-338.43 1232,-339.21 1212.27,-343.4 888.73,-343.4 869,-339.21 867.92,-338.98 866.83,-338.74 865.74,-338.47"/>
<polygon fill="#000000" stroke="black" points="866.57,-335.07 856,-335.71 864.66,-341.8 866.57,-335.07"/>
</g>
<!-- data&#45;&gt;zone -->
<g id="edge8" class="edge">
<title>data&#45;&gt;zone</title><style>.edge>path:hover{stroke-width:8}</style>
<path fill="none" stroke="black" d="M1312,-178.26C1313.28,-176.79 1314.62,-175.37 1316,-174 1350.32,-139.97 1406.14,-126.59 1442.97,-121.35"/>
<polygon fill="#000000" stroke="black" points="1435.68,-126.07 1445,-121.03 1434.57,-119.16 1435.68,-126.07"/>
</g>
<!-- data_register -->
<g id="node9" class="node">
<title>data_register</title><style>.edge>path:hover{stroke-width:8}</style>
<ellipse fill="#cec33b" stroke="black" cx="1203" cy="-286.21" rx="28.69" ry="18"/>
<text text-anchor="middle" x="1203" y="-283.71" font-family="Helvetica,sans-Serif" font-size="10.00" fill="#000000">register</text>
</g>
<!-- data_registers -->
<g id="node10" class="node">
<title>data_registers</title><style>.edge>path:hover{stroke-width:8}</style>
<ellipse fill="#88823a" stroke="black" cx="1206" cy="-200" rx="31.58" ry="18"/>
<text text-anchor="middle" x="1206" y="-197.5" font-family="Helvetica,sans-Serif" font-size="10.00" fill="#ffffff">registers</text>
</g>
<!-- data_register&#45;&gt;data_registers -->
<g id="edge9" class="edge">
<title>data_register&#45;&gt;data_registers</title><style>.edge>path:hover{stroke-width:8}</style>
<path fill="none" stroke="black" d="M1203.61,-268.17C1204.01,-256.76 1204.56,-241.48 1205.02,-228.38"/>
<polygon fill="#000000" stroke="black" points="1208.54,-228.13 1205.39,-218.02 1201.54,-227.89 1208.54,-228.13"/>
</g>
<!-- flask -->
<g id="node11" class="node">
<title>flask</title><style>.edge>path:hover{stroke-width:8}</style>
<ellipse fill="#93c247" stroke="black" cx="108" cy="-570.64" rx="27" ry="18"/>
<text text-anchor="middle" x="108" y="-568.14" font-family="Helvetica,sans-Serif" font-size="10.00" fill="#000000">flask</text>
</g>
<!-- flask&#45;&gt;bgERP_server -->
<g id="edge10" class="edge">
<title>flask&#45;&gt;bgERP_server</title><style>.edge>path:hover{stroke-width:8}</style>
<path fill="none" stroke="black" d="M108,-544.64C108,-516.78 108,-470.38 108,-430.43 108,-430.43 108,-430.43 108,-368.21 108,-318.28 86.42,-289.89 124,-257 137.77,-244.95 651.03,-253.91 853.99,-252.25"/>
<polygon fill="#000000" stroke="black" points="854.04,-255.75 864,-252.15 853.97,-248.75 854.04,-255.75"/>
</g>
<!-- services_http_server -->
<g id="node23" class="node">
<title>services_http_server</title><style>.edge>path:hover{stroke-width:8}</style>
<ellipse fill="#3d9bb8" stroke="black" cx="172" cy="-369.21" rx="36.49" ry="18"/>
<text text-anchor="middle" x="172" y="-366.71" font-family="Helvetica,sans-Serif" font-size="10.00" fill="#000000">http.server</text>
</g>
<!-- flask&#45;&gt;services_http_server -->
<g id="edge11" class="edge">
<title>flask&#45;&gt;services_http_server</title><style>.edge>path:hover{stroke-width:8}</style>
<path fill="none" stroke="black" d="M117.93,-544.64C119.34,-540.9 120.74,-537.07 122,-533.43 133.61,-499.88 145.3,-461.99 154.46,-431.17"/>
<polygon fill="#000000" stroke="black" points="157.86,-432.01 157.34,-421.42 151.15,-430.02 157.86,-432.01"/>
</g>
<!-- main -->
<g id="node12" class="node">
<title>main</title><style>.edge>path:hover{stroke-width:8}</style>
<ellipse fill="#4d9640" stroke="black" cx="1805" cy="-34" rx="27" ry="18"/>
<text text-anchor="middle" x="1805" y="-31.5" font-family="Helvetica,sans-Serif" font-size="10.00" fill="#ffffff">main</text>
</g>
<!-- plugins -->
<g id="node13" class="node">
<title>plugins</title><style>.edge>path:hover{stroke-width:8}</style>
<ellipse fill="#53b672" stroke="black" cx="1480" cy="-200" rx="27.84" ry="18"/>
<text text-anchor="middle" x="1480" y="-197.5" font-family="Helvetica,sans-Serif" font-size="10.00" fill="#000000">plugins</text>
</g>
<!-- plugins&#45;&gt;zone -->
<g id="edge12" class="edge">
<title>plugins&#45;&gt;zone</title><style>.edge>path:hover{stroke-width:8}</style>
<path fill="none" stroke="black" d="M1480,-174C1480,-172 1480,-170 1480,-168"/>
<polygon fill="#000000" stroke="black" points="1483.5,-176 1480,-166 1476.5,-176 1483.5,-176"/>
</g>
<!-- plugins_plugins_manager -->
<g id="node14" class="node">
<title>plugins_plugins_manager</title><style>.edge>path:hover{stroke-width:8}</style>
<ellipse fill="#40965a" stroke="black" cx="1381" cy="-200" rx="52.96" ry="18"/>
<text text-anchor="middle" x="1381" y="-197.5" font-family="Helvetica,sans-Serif" font-size="10.00" fill="#ffffff">plugins_manager</text>
</g>
<!-- requests -->
<g id="node15" class="node">
<title>requests</title><style>.edge>path:hover{stroke-width:8}</style>
<ellipse fill="#53b69f" stroke="black" cx="48" cy="-369.21" rx="31.58" ry="18"/>
<text text-anchor="middle" x="48" y="-366.71" font-family="Helvetica,sans-Serif" font-size="10.00" fill="#000000">requests</text>
</g>
<!-- requests&#45;&gt;bgERP_client -->
<g id="edge13" class="edge">
<title>requests&#45;&gt;bgERP_client</title><style>.edge>path:hover{stroke-width:8}</style>
<path fill="none" stroke="black" d="M50.78,-343.21C55.13,-317.04 66.19,-277.02 94,-257 156.87,-211.73 712.07,-202.88 861.89,-201.31"/>
<polygon fill="#000000" stroke="black" points="854.18,-205.19 864,-201.21 853.84,-198.19 854.18,-205.19"/>
</g>
<!-- services -->
<g id="node16" class="node">
<title>services</title><style>.edge>path:hover{stroke-width:8}</style>
<ellipse fill="#22bae7" stroke="black" cx="817" cy="-369.21" rx="30.72" ry="18"/>
<text text-anchor="middle" x="817" y="-366.71" font-family="Helvetica,sans-Serif" font-size="10.00" fill="#000000">services</text>
</g>
<!-- services&#45;&gt;bgERP_server -->
<g id="edge14" class="edge">
<title>services&#45;&gt;bgERP_server</title><style>.edge>path:hover{stroke-width:8}</style>
<path fill="none" stroke="black" d="M687,-257C693,-250.81 783.71,-251.72 853.82,-251.72"/>
<polygon fill="#000000" stroke="black" points="854.01,-255.22 864,-251.71 854,-248.22 854.01,-255.22"/>
</g>
<!-- services&#45;&gt;data_registers -->
<g id="edge15" class="edge">
<title>services&#45;&gt;data_registers</title><style>.edge>path:hover{stroke-width:8}</style>
<path fill="none" stroke="black" d="M856,-365.37C912.28,-360.79 1013.12,-350.71 1046,-335.21 1092.73,-313.18 1092.25,-290 1132,-257 1140.27,-250.13 1149.26,-243.04 1158.04,-236.3"/>
<polygon fill="#000000" stroke="black" points="1160.17,-239.08 1166,-230.23 1155.93,-233.51 1160.17,-239.08"/>
</g>
<!-- services&#45;&gt;plugins_plugins_manager -->
<g id="edge16" class="edge">
<title>services&#45;&gt;plugins_plugins_manager</title><style>.edge>path:hover{stroke-width:8}</style>
<path fill="none" stroke="black" d="M856,-368.02C967.05,-367.14 1279.31,-362.26 1316,-335.21 1343.63,-314.85 1331.7,-293.88 1345.96,-258.35"/>
<polygon fill="#000000" stroke="black" points="1349.26,-259.55 1350.19,-249 1342.88,-256.67 1349.26,-259.55"/>
</g>
<!-- services&#45;&gt;zone -->
<g id="edge17" class="edge">
<title>services&#45;&gt;zone</title><style>.edge>path:hover{stroke-width:8}</style>
<path fill="none" stroke="black" d="M856,-366.28C906.84,-363.01 992.1,-354.72 1016,-335.21 1044.85,-311.67 1023.23,-286.46 1046,-257 1084.77,-206.84 1103.55,-198.55 1162,-174 1257.8,-133.76 1381.6,-122.43 1442.62,-119.25"/>
<polygon fill="#000000" stroke="black" points="1435.91,-124.2 1445,-118.76 1434.5,-117.34 1435.91,-124.2"/>
</g>
<!-- services_evok -->
<g id="node17" class="node">
<title>services_evok</title><style>.edge>path:hover{stroke-width:8}</style>
<ellipse fill="#539fb6" stroke="black" cx="741" cy="-369.21" rx="27" ry="18"/>
<text text-anchor="middle" x="741" y="-366.71" font-family="Helvetica,sans-Serif" font-size="10.00" fill="#000000">evok</text>
</g>
<!-- services_evok_settings -->
<g id="node18" class="node">
<title>services_evok_settings</title><style>.edge>path:hover{stroke-width:8}</style>
<ellipse fill="#539fb6" stroke="black" cx="652" cy="-369.21" rx="43.62" ry="18"/>
<text text-anchor="middle" x="652" y="-366.71" font-family="Helvetica,sans-Serif" font-size="10.00" fill="#000000">evok.settings</text>
</g>
<!-- services_global_error_handler -->
<g id="node19" class="node">
<title>services_global_error_handler</title><style>.edge>path:hover{stroke-width:8}</style>
<ellipse fill="#2fb3db" stroke="black" cx="529" cy="-369.21" rx="61.44" ry="18"/>
<text text-anchor="middle" x="529" y="-366.71" font-family="Helvetica,sans-Serif" font-size="10.00" fill="#000000">global_error_handler</text>
</g>
<!-- services_global_error_handler_error_codes -->
<g id="node20" class="node">
<title>services_global_error_handler_error_codes</title><style>.edge>path:hover{stroke-width:8}</style>
<ellipse fill="#539fb6" stroke="black" cx="374" cy="-369.21" rx="75.82" ry="21.43"/>
<text text-anchor="middle" x="374" y="-372.21" font-family="Helvetica,sans-Serif" font-size="10.00" fill="#000000">global_error_handler.</text>
<text text-anchor="middle" x="374" y="-361.21" font-family="Helvetica,sans-Serif" font-size="10.00" fill="#000000">error_codes</text>
</g>
<!-- services_global_error_handler_error_codes&#45;&gt;services_global_error_handler_global_error_handler -->
<g id="edge18" class="edge">
<title>services_global_error_handler_error_codes&#45;&gt;services_global_error_handler_global_error_handler</title><style>.edge>path:hover{stroke-width:8}</style>
<path fill="none" stroke="black" d="M422.75,-352.89C434.55,-349.45 447.17,-346 459,-343.21 539.33,-324.27 632.58,-308.36 696.27,-298.39"/>
<polygon fill="#000000" stroke="black" points="696.89,-301.84 706.23,-296.84 695.81,-294.92 696.89,-301.84"/>
</g>
<!-- services_http -->
<g id="node22" class="node">
<title>services_http</title><style>.edge>path:hover{stroke-width:8}</style>
<ellipse fill="#539fb6" stroke="black" cx="253" cy="-369.21" rx="27" ry="18"/>
<text text-anchor="middle" x="253" y="-366.71" font-family="Helvetica,sans-Serif" font-size="10.00" fill="#000000">http</text>
</g>
<!-- setproctitle -->
<g id="node24" class="node">
<title>setproctitle</title><style>.edge>path:hover{stroke-width:8}</style>
<ellipse fill="#5372b6" stroke="black" cx="1871" cy="-117" rx="38.03" ry="18"/>
<text text-anchor="middle" x="1871" y="-114.5" font-family="Helvetica,sans-Serif" font-size="10.00" fill="#ffffff">setproctitle</text>
</g>
<!-- setproctitle&#45;&gt;main -->
<g id="edge19" class="edge">
<title>setproctitle&#45;&gt;main</title><style>.edge>path:hover{stroke-width:8}</style>
<path fill="none" stroke="black" d="M1850.63,-91C1849.3,-89.36 1847.93,-87.68 1846.54,-85.98"/>
<polygon fill="#000000" stroke="black" points="1849.03,-83.49 1840,-77.95 1843.6,-87.92 1849.03,-83.49"/>
</g>
<!-- utils -->
<g id="node25" class="node">
<title>utils</title><style>.edge>path:hover{stroke-width:8}</style>
<ellipse fill="#3410f9" stroke="black" cx="1898" cy="-369.21" rx="27" ry="18"/>
<text text-anchor="middle" x="1898" y="-366.71" font-family="Helvetica,sans-Serif" font-size="10.00" fill="#ffffff">utils</text>
</g>
<!-- utils&#45;&gt;bgERP_bgERP -->
<g id="edge20" class="edge">
<title>utils&#45;&gt;bgERP_bgERP</title><style>.edge>path:hover{stroke-width:8}</style>
<path fill="none" stroke="black" d="M1350,-342.27C1243.44,-342.54 1159.31,-341.17 1147,-335.21 1113.7,-319.11 1057.66,-245.17 1017.76,-187.98"/>
<polygon fill="#000000" stroke="black" points="1020.57,-185.9 1012,-179.68 1014.82,-189.89 1020.57,-185.9"/>
</g>
<!-- utils&#45;&gt;data_registers -->
<g id="edge21" class="edge">
<title>utils&#45;&gt;data_registers</title><style>.edge>path:hover{stroke-width:8}</style>
<path fill="none" stroke="black" d="M1350,-342.11C1247.64,-341.59 1169.57,-339.84 1165,-335.21 1142.85,-312.81 1151.98,-293.91 1162.67,-263.85"/>
<polygon fill="#000000" stroke="black" points="1166.06,-264.75 1166,-254.15 1159.44,-262.47 1166.06,-264.75"/>
</g>
<!-- utils&#45;&gt;main -->
<g id="edge22" class="edge">
<title>utils&#45;&gt;main</title><style>.edge>path:hover{stroke-width:8}</style>
<path fill="none" stroke="black" d="M1851.35,-260.21C1839.9,-230.18 1828.73,-197.22 1821,-166 1815.19,-142.53 1811.45,-116.16 1809.06,-93.25"/>
<polygon fill="#000000" stroke="black" points="1812.52,-92.61 1808.06,-83 1805.55,-93.29 1812.52,-92.61"/>
</g>
<!-- utils&#45;&gt;plugins_plugins_manager -->
<g id="edge23" class="edge">
<title>utils&#45;&gt;plugins_plugins_manager</title><style>.edge>path:hover{stroke-width:8}</style>
<path fill="none" stroke="black" d="M1434.89,-260.22C1433.67,-258.94 1432.45,-257.67 1431.25,-256.4"/>
<polygon fill="#000000" stroke="black" points="1433.67,-253.87 1424.27,-249 1428.58,-258.68 1433.67,-253.87"/>
</g>
<!-- utils&#45;&gt;zone -->
<g id="edge24" class="edge">
<title>utils&#45;&gt;zone</title><style>.edge>path:hover{stroke-width:8}</style>
<path fill="none" stroke="black" d="M1564.38,-260.22C1560.34,-256.72 1556.22,-252.98 1552,-249 1527.71,-226.06 1536.09,-208.53 1519.73,-174.57"/>
<polygon fill="#000000" stroke="black" points="1522.75,-172.79 1515,-165.56 1516.55,-176.04 1522.75,-172.79"/>
</g>
<!-- utils_logger -->
<g id="node26" class="node">
<title>utils_logger</title><style>.edge>path:hover{stroke-width:8}</style>
<ellipse fill="#2a06ef" stroke="black" cx="1388" cy="-286.21" rx="27" ry="18"/>
<text text-anchor="middle" x="1388" y="-283.71" font-family="Helvetica,sans-Serif" font-size="10.00" fill="#ffffff">logger</text>
</g>
<!-- utils_logic -->
<g id="node27" class="node">
<title>utils_logic</title><style>.edge>path:hover{stroke-width:8}</style>
<ellipse fill="#6353b6" stroke="black" cx="1826" cy="-369.21" rx="27" ry="18"/>
<text text-anchor="middle" x="1826" y="-366.71" font-family="Helvetica,sans-Serif" font-size="10.00" fill="#ffffff">logic</text>
</g>
<!-- utils_logic_state_machine -->
<g id="node28" class="node">
<title>utils_logic_state_machine</title><style>.edge>path:hover{stroke-width:8}</style>
<ellipse fill="#6353b6" stroke="black" cx="1724" cy="-369.21" rx="56.64" ry="21.43"/>
<text text-anchor="middle" x="1724" y="-372.21" font-family="Helvetica,sans-Serif" font-size="10.00" fill="#ffffff">logic.</text>
<text text-anchor="middle" x="1724" y="-361.21" font-family="Helvetica,sans-Serif" font-size="10.00" fill="#ffffff">state_machine</text>
</g>
<!-- utils_logic_timer -->
<g id="node29" class="node">
<title>utils_logic_timer</title><style>.edge>path:hover{stroke-width:8}</style>
<ellipse fill="#6353b6" stroke="black" cx="1613" cy="-369.21" rx="36.49" ry="18"/>
<text text-anchor="middle" x="1613" y="-366.71" font-family="Helvetica,sans-Serif" font-size="10.00" fill="#ffffff">logic.timer</text>
</g>
<!-- utils_performance_profiler -->
<g id="node30" class="node">
<title>utils_performance_profiler</title><style>.edge>path:hover{stroke-width:8}</style>
<ellipse fill="#6353b6" stroke="black" cx="1497" cy="-369.21" rx="61.44" ry="18"/>
<text text-anchor="middle" x="1497" y="-366.71" font-family="Helvetica,sans-Serif" font-size="10.00" fill="#ffffff">performance_profiler</text>
</g>
<!-- utils_settings -->
<g id="node31" class="node">
<title>utils_settings</title><style>.edge>path:hover{stroke-width:8}</style>
<ellipse fill="#4126d9" stroke="black" cx="1388" cy="-369.21" rx="30.04" ry="18"/>
<text text-anchor="middle" x="1388" y="-366.71" font-family="Helvetica,sans-Serif" font-size="10.00" fill="#ffffff">settings</text>
</g>
<!-- utils_settings&#45;&gt;utils_logger -->
<g id="edge25" class="edge">
<title>utils_settings&#45;&gt;utils_logger</title><style>.edge>path:hover{stroke-width:8}</style>
<path fill="none" stroke="black" d="M1388,-351.04C1388,-340.4 1388,-326.52 1388,-314.42"/>
<polygon fill="#000000" stroke="black" points="1391.5,-314.37 1388,-304.37 1384.5,-314.37 1391.5,-314.37"/>
</g>
<!-- werkzeug_serving -->
<g id="node32" class="node">
<title>werkzeug_serving</title><style>.edge>path:hover{stroke-width:8}</style>
<ellipse fill="#9053b6" stroke="black" cx="202" cy="-570.64" rx="43.27" ry="21.43"/>
<text text-anchor="middle" x="202" y="-573.64" font-family="Helvetica,sans-Serif" font-size="10.00" fill="#ffffff">werkzeug.</text>
<text text-anchor="middle" x="202" y="-562.64" font-family="Helvetica,sans-Serif" font-size="10.00" fill="#ffffff">serving</text>
</g>
<!-- werkzeug_serving&#45;&gt;services_http_server -->
<g id="edge26" class="edge">
<title>werkzeug_serving&#45;&gt;services_http_server</title><style>.edge>path:hover{stroke-width:8}</style>
<path fill="none" stroke="black" d="M197.76,-541.43C193.47,-512.96 186.73,-468.1 181.21,-431.44"/>
<polygon fill="#000000" stroke="black" points="184.65,-430.79 179.7,-421.43 177.73,-431.83 184.65,-430.79"/>
</g>
<!-- yaml -->
<g id="node33" class="node">
<title>yaml</title><style>.edge>path:hover{stroke-width:8}</style>
<ellipse fill="#b653ae" stroke="black" cx="1388" cy="-484.43" rx="27" ry="18"/>
<text text-anchor="middle" x="1388" y="-481.93" font-family="Helvetica,sans-Serif" font-size="10.00" fill="#ffffff">yaml</text>
</g>
<!-- yaml&#45;&gt;utils_settings -->
<g id="edge27" class="edge">
<title>yaml&#45;&gt;utils_settings</title><style>.edge>path:hover{stroke-width:8}</style>
<path fill="none" stroke="black" d="M1388,-458.43C1388,-450.39 1388,-441.11 1388,-431.65"/>
<polygon fill="#000000" stroke="black" points="1391.5,-431.43 1388,-421.43 1384.5,-431.43 1391.5,-431.43"/>
</g>
<!-- zone&#45;&gt;main -->
<g id="edge28" class="edge">
<title>zone&#45;&gt;main</title><style>.edge>path:hover{stroke-width:8}</style>
<path fill="none" stroke="black" d="M1515,-107.28C1574.38,-92.48 1694.79,-62.47 1760.23,-46.16"/>
<polygon fill="#000000" stroke="black" points="1761.14,-49.54 1770,-43.72 1759.45,-42.75 1761.14,-49.54"/>
</g>
</g>
</svg>
