<?xml version="1.0" encoding="UTF-8" standalone="no"?>
<!DOCTYPE svg PUBLIC "-//W3C//DTD SVG 1.1//EN"
 "http://www.w3.org/Graphics/SVG/1.1/DTD/svg11.dtd">
<!-- Generated by graphviz version 2.50.0 (20211204.2007)
 -->
<!-- Title: G Pages: 1 -->
<svg width="776pt" height="829pt"
 viewBox="0.00 0.00 776.21 829.28" xmlns="http://www.w3.org/2000/svg" xmlns:xlink="http://www.w3.org/1999/xlink">
<g id="graph0" class="graph" transform="scale(1 1) rotate(0) translate(4 825.28)">
<title>G</title><style>.edge>path:hover{stroke-width:8}</style>
<polygon fill="white" stroke="transparent" points="-4,4 -4,-825.28 772.21,-825.28 772.21,4 -4,4"/>
<g id="clust1" class="cluster">
<title>cluster_collections</title><style>.edge>path:hover{stroke-width:8}</style>
<polygon fill="none" stroke="black" points="600.21,-272 600.21,-353.43 710.21,-353.43 710.21,-272 600.21,-272"/>
<text text-anchor="middle" x="655.21" y="-338.23" font-family="Times New Roman,serif" font-size="14.00">collections</text>
</g>
<g id="clust4" class="cluster">
<title>cluster_services</title><style>.edge>path:hover{stroke-width:8}</style>
<polygon fill="none" stroke="black" points="96.21,-462.43 96.21,-622.28 484.21,-622.28 484.21,-462.43 96.21,-462.43"/>
<text text-anchor="middle" x="290.21" y="-607.08" font-family="Times New Roman,serif" font-size="14.00">services</text>
</g>
<g id="clust3" class="cluster">
<title>cluster_plugins</title><style>.edge>path:hover{stroke-width:8}</style>
<polygon fill="none" stroke="black" points="552.21,-8 552.21,-264 658.21,-264 658.21,-8 552.21,-8"/>
<text text-anchor="middle" x="605.21" y="-248.8" font-family="Times New Roman,serif" font-size="14.00">plugins</text>
</g>
<g id="clust2" class="cluster">
<title>cluster_data</title><style>.edge>path:hover{stroke-width:8}</style>
<polygon fill="none" stroke="black" points="58.21,-630.28 58.21,-777.28 416.21,-777.28 416.21,-630.28 58.21,-630.28"/>
<text text-anchor="middle" x="237.21" y="-762.08" font-family="Times New Roman,serif" font-size="14.00">data</text>
</g>
<!-- collections_deque -->
<g id="node1" class="node">
<title>collections_deque</title><style>.edge>path:hover{stroke-width:8}</style>
<ellipse fill="#b65353" stroke="black" cx="655.21" cy="-301.21" rx="46.84" ry="21.43"/>
<text text-anchor="middle" x="655.21" y="-304.21" font-family="Helvetica,sans-Serif" font-size="10.00" fill="#ffffff">collections.</text>
<text text-anchor="middle" x="655.21" y="-293.21" font-family="Helvetica,sans-Serif" font-size="10.00" fill="#ffffff">deque</text>
</g>
<!-- plugins_hvac_zone -->
<g id="node9" class="node">
<title>plugins_hvac_zone</title><style>.edge>path:hover{stroke-width:8}</style>
<ellipse fill="#267373" stroke="black" cx="595.21" cy="-106" rx="35.14" ry="18"/>
<text text-anchor="middle" x="595.21" y="-103.5" font-family="Helvetica,sans-Serif" font-size="10.00" fill="#ffffff">hvac.zone</text>
</g>
<!-- collections_deque&#45;&gt;plugins_hvac_zone -->
<g id="edge1" class="edge">
<title>collections_deque&#45;&gt;plugins_hvac_zone</title><style>.edge>path:hover{stroke-width:8}</style>
<path fill="none" stroke="black" d="M661.4,-272C664.42,-253.34 666.39,-228.08 660.87,-203.8"/>
<polygon fill="#000000" stroke="black" points="664.21,-202.73 658.2,-194.01 657.46,-204.58 664.21,-202.73"/>
</g>
<!-- data -->
<g id="node2" class="node">
<title>data</title><style>.edge>path:hover{stroke-width:8}</style>
<ellipse fill="#dbdb2f" stroke="black" cx="381.21" cy="-728.28" rx="27" ry="18"/>
<text text-anchor="middle" x="381.21" y="-725.78" font-family="Helvetica,sans-Serif" font-size="10.00" fill="#000000">data</text>
</g>
<!-- data&#45;&gt;plugins_hvac_zone -->
<g id="edge3" class="edge">
<title>data&#45;&gt;plugins_hvac_zone</title><style>.edge>path:hover{stroke-width:8}</style>
<path fill="none" stroke="black" d="M416.2,-712.27C463.56,-689.33 542.21,-640.75 542.21,-571.07 542.21,-571.07 542.21,-571.07 542.21,-214 542.21,-202.59 544.66,-191.15 548.5,-180.21"/>
<polygon fill="#000000" stroke="black" points="551.82,-181.32 552.21,-170.73 545.3,-178.77 551.82,-181.32"/>
</g>
<!-- services_global_error_handler_global_error_handler -->
<g id="node13" class="node">
<title>services_global_error_handler_global_error_handler</title><style>.edge>path:hover{stroke-width:8}</style>
<ellipse fill="#3535a1" stroke="black" cx="400.21" cy="-491.64" rx="75.82" ry="21.43"/>
<text text-anchor="middle" x="400.21" y="-494.64" font-family="Helvetica,sans-Serif" font-size="10.00" fill="#ffffff">global_error_handler.</text>
<text text-anchor="middle" x="400.21" y="-483.64" font-family="Helvetica,sans-Serif" font-size="10.00" fill="#ffffff">global_error_handler</text>
</g>
<!-- data&#45;&gt;services_global_error_handler_global_error_handler -->
<g id="edge4" class="edge">
<title>data&#45;&gt;services_global_error_handler_global_error_handler</title><style>.edge>path:hover{stroke-width:8}</style>
<path fill="none" stroke="black" d="M416.2,-703.6C440.65,-684.8 471.3,-656.09 485.21,-622.28 496.31,-595.28 499.91,-580.83 488.77,-556.22"/>
<polygon fill="#000000" stroke="black" points="491.8,-554.44 484.2,-547.05 485.53,-557.57 491.8,-554.44"/>
</g>
<!-- devices -->
<g id="node14" class="node">
<title>devices</title><style>.edge>path:hover{stroke-width:8}</style>
<polygon fill="#3bce3b" stroke="black" points="84.21,-397.43 81.21,-401.43 60.21,-401.43 57.21,-397.43 30.21,-397.43 30.21,-361.43 84.21,-361.43 84.21,-397.43"/>
<text text-anchor="middle" x="57.21" y="-376.93" font-family="Helvetica,sans-Serif" font-size="10.00" fill="#000000">devices</text>
</g>
<!-- data&#45;&gt;devices -->
<g id="edge2" class="edge">
<title>data&#45;&gt;devices</title><style>.edge>path:hover{stroke-width:8}</style>
<path fill="none" stroke="black" d="M139.21,-630.28C118.78,-624.64 107,-637.45 92.21,-622.28 77.39,-607.09 64.36,-467.95 59.37,-407.86"/>
<polygon fill="#000000" stroke="black" points="62.83,-407.29 58.53,-397.61 55.86,-407.86 62.83,-407.29"/>
</g>
<!-- data_register -->
<g id="node3" class="node">
<title>data_register</title><style>.edge>path:hover{stroke-width:8}</style>
<ellipse fill="#c2c247" stroke="black" cx="307.21" cy="-728.28" rx="28.69" ry="18"/>
<text text-anchor="middle" x="307.21" y="-725.78" font-family="Helvetica,sans-Serif" font-size="10.00" fill="#000000">register</text>
</g>
<!-- data_registers -->
<g id="node4" class="node">
<title>data_registers</title><style>.edge>path:hover{stroke-width:8}</style>
<ellipse fill="#88883a" stroke="black" cx="98.21" cy="-656.28" rx="31.58" ry="18"/>
<text text-anchor="middle" x="98.21" y="-653.78" font-family="Helvetica,sans-Serif" font-size="10.00" fill="#ffffff">registers</text>
</g>
<!-- data_register&#45;&gt;data_registers -->
<g id="edge5" class="edge">
<title>data_register&#45;&gt;data_registers</title><style>.edge>path:hover{stroke-width:8}</style>
<path fill="none" stroke="black" d="M284.92,-716.68C279.81,-714.43 274.37,-712.17 269.21,-710.28 214.91,-690.43 199.14,-692.31 144.21,-674.28 140.68,-673.12 137.03,-671.87 133.38,-670.58"/>
<polygon fill="#000000" stroke="black" points="134.47,-667.25 123.88,-667.15 132.09,-673.84 134.47,-667.25"/>
</g>
<!-- data_registers&#45;&gt;devices -->
<g id="edge6" class="edge">
<title>data_registers&#45;&gt;devices</title><style>.edge>path:hover{stroke-width:8}</style>
<path fill="none" stroke="black" d="M66.98,-630.28C65.11,-627.76 63.48,-625.09 62.21,-622.28 29.69,-550.39 42.21,-453.77 51.17,-407.43"/>
<polygon fill="#000000" stroke="black" points="54.62,-408.04 53.18,-397.55 47.76,-406.65 54.62,-408.04"/>
</g>
<!-- data_thermal_mode -->
<g id="node5" class="node">
<title>data_thermal_mode</title><style>.edge>path:hover{stroke-width:8}</style>
<ellipse fill="#b6b653" stroke="black" cx="214.21" cy="-728.28" rx="45.83" ry="18"/>
<text text-anchor="middle" x="214.21" y="-725.78" font-family="Helvetica,sans-Serif" font-size="10.00" fill="#000000">thermal_mode</text>
</g>
<!-- data_verbal_const -->
<g id="node6" class="node">
<title>data_verbal_const</title><style>.edge>path:hover{stroke-width:8}</style>
<ellipse fill="#b6b653" stroke="black" cx="108.21" cy="-728.28" rx="41.59" ry="18"/>
<text text-anchor="middle" x="108.21" y="-725.78" font-family="Helvetica,sans-Serif" font-size="10.00" fill="#000000">verbal_const</text>
</g>
<!-- plugins_base_plugin -->
<g id="node7" class="node">
<title>plugins_base_plugin</title><style>.edge>path:hover{stroke-width:8}</style>
<ellipse fill="#3ab0b0" stroke="black" cx="610.21" cy="-215" rx="40.06" ry="18"/>
<text text-anchor="middle" x="610.21" y="-212.5" font-family="Helvetica,sans-Serif" font-size="10.00" fill="#000000">base_plugin</text>
</g>
<!-- plugins_hvac_hvac -->
<g id="node8" class="node">
<title>plugins_hvac_hvac</title><style>.edge>path:hover{stroke-width:8}</style>
<ellipse fill="#3d8f8f" stroke="black" cx="605.21" cy="-34" rx="34.96" ry="18"/>
<text text-anchor="middle" x="605.21" y="-31.5" font-family="Helvetica,sans-Serif" font-size="10.00" fill="#ffffff">hvac.hvac</text>
</g>
<!-- plugins_base_plugin&#45;&gt;plugins_hvac_hvac -->
<g id="edge8" class="edge">
<title>plugins_base_plugin&#45;&gt;plugins_hvac_hvac</title><style>.edge>path:hover{stroke-width:8}</style>
<path fill="none" stroke="black" d="M619.57,-197.12C631.83,-172.8 650.51,-126.56 639.21,-88 636.24,-77.88 630.68,-67.86 624.9,-59.3"/>
<polygon fill="#000000" stroke="black" points="627.59,-57.04 618.9,-50.97 621.91,-61.13 627.59,-57.04"/>
</g>
<!-- plugins_base_plugin&#45;&gt;plugins_hvac_zone -->
<g id="edge9" class="edge">
<title>plugins_base_plugin&#45;&gt;plugins_hvac_zone</title><style>.edge>path:hover{stroke-width:8}</style>
<path fill="none" stroke="black" d="M607.8,-196.81C605.42,-179.88 601.76,-153.78 599,-134.07"/>
<polygon fill="#000000" stroke="black" points="602.47,-133.57 597.61,-124.15 595.53,-134.54 602.47,-133.57"/>
</g>
<!-- plugins_hvac_zone&#45;&gt;plugins_hvac_hvac -->
<g id="edge10" class="edge">
<title>plugins_hvac_zone&#45;&gt;plugins_hvac_hvac</title><style>.edge>path:hover{stroke-width:8}</style>
<path fill="none" stroke="black" d="M597.68,-87.7C598.78,-79.98 600.11,-70.71 601.33,-62.11"/>
<polygon fill="#000000" stroke="black" points="604.81,-62.5 602.76,-52.1 597.88,-61.51 604.81,-62.5"/>
</g>
<!-- services -->
<g id="node10" class="node">
<title>services</title><style>.edge>path:hover{stroke-width:8}</style>
<ellipse fill="#3b3bce" stroke="black" cx="135.21" cy="-570.07" rx="30.72" ry="18"/>
<text text-anchor="middle" x="135.21" y="-567.57" font-family="Helvetica,sans-Serif" font-size="10.00" fill="#ffffff">services</text>
</g>
<!-- services&#45;&gt;data_registers -->
<g id="edge11" class="edge">
<title>services&#45;&gt;data_registers</title><style>.edge>path:hover{stroke-width:8}</style>
<path fill="none" stroke="black" d="M112.71,-622.27C111.65,-624.68 110.61,-627.04 109.61,-629.32"/>
<polygon fill="#000000" stroke="black" points="113.75,-621.07 108.52,-630.28 118.35,-626.34 113.75,-621.07"/>
</g>
<!-- services&#45;&gt;plugins_hvac_zone -->
<g id="edge12" class="edge">
<title>services&#45;&gt;plugins_hvac_zone</title><style>.edge>path:hover{stroke-width:8}</style>
<path fill="none" stroke="black" d="M211.17,-462.43C213.73,-453.28 215.21,-443.9 215.21,-434.43 215.21,-434.43 215.21,-434.43 215.21,-214 215.21,-145.07 449.77,-118.41 550.32,-110.14"/>
<polygon fill="#000000" stroke="black" points="544.4,-116.49 552.21,-109.33 541.64,-110.06 544.4,-116.49"/>
</g>
<!-- services_global_error_handler -->
<g id="node11" class="node">
<title>services_global_error_handler</title><style>.edge>path:hover{stroke-width:8}</style>
<ellipse fill="#3b3bce" stroke="black" cx="245.21" cy="-570.07" rx="61.44" ry="18"/>
<text text-anchor="middle" x="245.21" y="-567.57" font-family="Helvetica,sans-Serif" font-size="10.00" fill="#ffffff">global_error_handler</text>
</g>
<!-- services_global_error_handler_error_codes -->
<g id="node12" class="node">
<title>services_global_error_handler_error_codes</title><style>.edge>path:hover{stroke-width:8}</style>
<ellipse fill="#5353b6" stroke="black" cx="400.21" cy="-570.07" rx="75.82" ry="21.43"/>
<text text-anchor="middle" x="400.21" y="-573.07" font-family="Helvetica,sans-Serif" font-size="10.00" fill="#ffffff">global_error_handler.</text>
<text text-anchor="middle" x="400.21" y="-562.07" font-family="Helvetica,sans-Serif" font-size="10.00" fill="#ffffff">error_codes</text>
</g>
<!-- services_global_error_handler_error_codes&#45;&gt;services_global_error_handler_global_error_handler -->
<g id="edge13" class="edge">
<title>services_global_error_handler_error_codes&#45;&gt;services_global_error_handler_global_error_handler</title><style>.edge>path:hover{stroke-width:8}</style>
<path fill="none" stroke="black" d="M400.21,-548.59C400.21,-540.73 400.21,-531.58 400.21,-522.99"/>
<polygon fill="#000000" stroke="black" points="403.71,-522.91 400.21,-512.91 396.71,-522.91 403.71,-522.91"/>
</g>
<!-- devices&#45;&gt;plugins_hvac_zone -->
<g id="edge7" class="edge">
<title>devices&#45;&gt;plugins_hvac_zone</title><style>.edge>path:hover{stroke-width:8}</style>
<path fill="none" stroke="black" d="M62.91,-361.15C77.89,-318.72 122.74,-209.28 201.21,-160 258.48,-124.03 458.99,-112.07 549.85,-108.44"/>
<polygon fill="#3bce3b" stroke="black" points="542.92,-113.14 552.21,-108.05 541.77,-106.24 542.92,-113.14"/>
</g>
<!-- utils -->
<g id="node15" class="node">
<title>utils</title><style>.edge>path:hover{stroke-width:8}</style>
<polygon fill="#f910f9" stroke="black" points="607.21,-821.28 604.21,-825.28 583.21,-825.28 580.21,-821.28 553.21,-821.28 553.21,-785.28 607.21,-785.28 607.21,-821.28"/>
<text text-anchor="middle" x="580.21" y="-800.78" font-family="Helvetica,sans-Serif" font-size="10.00" fill="#ffffff">utils</text>
</g>
<!-- utils&#45;&gt;data_registers -->
<g id="edge14" class="edge">
<title>utils&#45;&gt;data_registers</title><style>.edge>path:hover{stroke-width:8}</style>
<path fill="none" stroke="black" d="M553.11,-802.01C448.31,-800.83 74.46,-795.37 57.21,-777.28 38.91,-758.08 45.57,-742.29 54.75,-717.23"/>
<polygon fill="#f910f9" stroke="black" points="58.14,-718.15 58.21,-707.55 51.55,-715.79 58.14,-718.15"/>
</g>
<!-- utils&#45;&gt;plugins_base_plugin -->
<g id="edge16" class="edge">
<title>utils&#45;&gt;plugins_base_plugin</title><style>.edge>path:hover{stroke-width:8}</style>
<path fill="none" stroke="black" d="M580.21,-784.87C580.21,-757.65 580.21,-703.35 580.21,-657.28 580.21,-657.28 580.21,-657.28 580.21,-378.43 580.21,-343.42 587.03,-304.87 594.16,-274.11"/>
<polygon fill="#f910f9" stroke="black" points="597.66,-274.54 596.59,-264 590.85,-272.91 597.66,-274.54"/>
</g>
<!-- utils&#45;&gt;plugins_hvac_hvac -->
<g id="edge17" class="edge">
<title>utils&#45;&gt;plugins_hvac_hvac</title><style>.edge>path:hover{stroke-width:8}</style>
<path fill="none" stroke="black" d="M607.29,-801.49C630.59,-799.61 664.15,-793.92 688.21,-777.28 740.92,-740.82 768.21,-721.38 768.21,-657.28 768.21,-657.28 768.21,-657.28 768.21,-160 768.21,-107.15 713.57,-73.59 667.57,-54.71"/>
<polygon fill="#f910f9" stroke="black" points="668.79,-51.43 658.2,-51.01 666.22,-57.94 668.79,-51.43"/>
</g>
<!-- utils&#45;&gt;plugins_hvac_zone -->
<g id="edge18" class="edge">
<title>utils&#45;&gt;plugins_hvac_zone</title><style>.edge>path:hover{stroke-width:8}</style>
<path fill="none" stroke="black" d="M607.37,-790.96C650.6,-770.91 730.21,-724.83 730.21,-657.28 730.21,-657.28 730.21,-657.28 730.21,-214 730.21,-177.45 699.44,-151.41 667.29,-134.18"/>
<polygon fill="#f910f9" stroke="black" points="668.7,-130.97 658.2,-129.55 665.52,-137.21 668.7,-130.97"/>
</g>
<!-- utils&#45;&gt;devices -->
<g id="edge15" class="edge">
<title>utils&#45;&gt;devices</title><style>.edge>path:hover{stroke-width:8}</style>
<path fill="none" stroke="black" d="M552.87,-801.85C446.2,-800.08 62.85,-792.66 42.21,-777.28 -3.11,-743.52 0.21,-713.78 0.21,-657.28 0.21,-657.28 0.21,-657.28 0.21,-490.64 0.21,-458.69 19.34,-426.77 35.43,-405.57"/>
<polygon fill="#f910f9" stroke="black" points="38.18,-407.73 41.63,-397.71 32.69,-403.39 38.18,-407.73"/>
</g>
</g>
</svg>
