<?xml version="1.0" encoding="UTF-8" standalone="no"?>
<!DOCTYPE svg PUBLIC "-//W3C//DTD SVG 1.1//EN"
 "http://www.w3.org/Graphics/SVG/1.1/DTD/svg11.dtd">
<!-- Generated by graphviz version 2.50.0 (20211204.2007)
 -->
<!-- Title: G Pages: 1 -->
<svg width="1017pt" height="516pt"
 viewBox="0.00 0.00 1017.34 515.84" xmlns="http://www.w3.org/2000/svg" xmlns:xlink="http://www.w3.org/1999/xlink">
<g id="graph0" class="graph" transform="scale(1 1) rotate(0) translate(4 511.84)">
<title>G</title><style>.edge>path:hover{stroke-width:8}</style>
<polygon fill="white" stroke="transparent" points="-4,4 -4,-511.84 1013.34,-511.84 1013.34,4 -4,4"/>
<g id="clust2" class="cluster">
<title>cluster_devices</title><style>.edge>path:hover{stroke-width:8}</style>
<polygon fill="none" stroke="black" points="546.34,-319.85 546.34,-416.84 934.34,-416.84 934.34,-319.85 546.34,-319.85"/>
<text text-anchor="middle" x="740.34" y="-401.64" font-family="Times New Roman,serif" font-size="14.00">devices</text>
</g>
<g id="clust3" class="cluster">
<title>cluster_plugins</title><style>.edge>path:hover{stroke-width:8}</style>
<polygon fill="none" stroke="black" points="410.34,-8 410.34,-308.64 506.34,-308.64 506.34,-8 410.34,-8"/>
<text text-anchor="middle" x="458.34" y="-293.44" font-family="Times New Roman,serif" font-size="14.00">plugins</text>
</g>
<g id="clust1" class="cluster">
<title>cluster_data</title><style>.edge>path:hover{stroke-width:8}</style>
<polygon fill="none" stroke="black" points="119.34,-424.84 119.34,-499.84 457.34,-499.84 457.34,-424.84 119.34,-424.84"/>
<text text-anchor="middle" x="288.34" y="-484.64" font-family="Times New Roman,serif" font-size="14.00">data</text>
</g>
<g id="clust4" class="cluster">
<title>cluster_services</title><style>.edge>path:hover{stroke-width:8}</style>
<polygon fill="none" stroke="black" points="14.34,-152 14.34,-311.85 402.34,-311.85 402.34,-152 14.34,-152"/>
<text text-anchor="middle" x="208.34" y="-296.65" font-family="Times New Roman,serif" font-size="14.00">services</text>
</g>
<g id="clust5" class="cluster">
<title>cluster_utils</title><style>.edge>path:hover{stroke-width:8}</style>
<polygon fill="none" stroke="black" points="584.34,-155.21 584.34,-308.64 1001.34,-308.64 1001.34,-155.21 584.34,-155.21"/>
<text text-anchor="middle" x="792.84" y="-293.44" font-family="Times New Roman,serif" font-size="14.00">utils</text>
</g>
<!-- data -->
<g id="node1" class="node">
<title>data</title><style>.edge>path:hover{stroke-width:8}</style>
<ellipse fill="#c24747" stroke="black" cx="422.34" cy="-450.84" rx="27" ry="18"/>
<text text-anchor="middle" x="422.34" y="-448.34" font-family="Helvetica,sans-Serif" font-size="10.00" fill="#ffffff">data</text>
</g>
<!-- plugins_ac_zone -->
<g id="node9" class="node">
<title>plugins_ac_zone</title><style>.edge>path:hover{stroke-width:8}</style>
<ellipse fill="#267345" stroke="black" cx="468.34" cy="-106" rx="30.04" ry="18"/>
<text text-anchor="middle" x="468.34" y="-103.5" font-family="Helvetica,sans-Serif" font-size="10.00" fill="#ffffff">ac.zone</text>
</g>
<!-- data&#45;&gt;plugins_ac_zone -->
<g id="edge1" class="edge">
<title>data&#45;&gt;plugins_ac_zone</title><style>.edge>path:hover{stroke-width:8}</style>
<path fill="none" stroke="black" d="M443.74,-424.84C464.63,-398.67 495,-355.38 507.34,-311.85 515.79,-282 514.22,-249.17 508.37,-218.71"/>
<polygon fill="#000000" stroke="black" points="511.8,-217.98 506.34,-208.9 504.95,-219.41 511.8,-217.98"/>
</g>
<!-- services_global_error_handler_global_error_handler -->
<g id="node14" class="node">
<title>services_global_error_handler_global_error_handler</title><style>.edge>path:hover{stroke-width:8}</style>
<ellipse fill="#3560a1" stroke="black" cx="98.34" cy="-181.21" rx="75.82" ry="21.43"/>
<text text-anchor="middle" x="98.34" y="-184.21" font-family="Helvetica,sans-Serif" font-size="10.00" fill="#ffffff">global_error_handler.</text>
<text text-anchor="middle" x="98.34" y="-173.21" font-family="Helvetica,sans-Serif" font-size="10.00" fill="#ffffff">global_error_handler</text>
</g>
<!-- data&#45;&gt;services_global_error_handler_global_error_handler -->
<g id="edge2" class="edge">
<title>data&#45;&gt;services_global_error_handler_global_error_handler</title><style>.edge>path:hover{stroke-width:8}</style>
<path fill="none" stroke="black" d="M386.34,-424.84C230.41,-349.41 116.55,-450.96 13.34,-311.85 -4.13,-288.31 -2.69,-271 9.72,-245.58"/>
<polygon fill="#000000" stroke="black" points="12.87,-247.12 14.34,-236.63 6.65,-243.91 12.87,-247.12"/>
</g>
<!-- data_card_state -->
<g id="node2" class="node">
<title>data_card_state</title><style>.edge>path:hover{stroke-width:8}</style>
<ellipse fill="#b65353" stroke="black" cx="341.34" cy="-450.84" rx="36.49" ry="18"/>
<text text-anchor="middle" x="341.34" y="-448.34" font-family="Helvetica,sans-Serif" font-size="10.00" fill="#ffffff">card_state</text>
</g>
<!-- data_register -->
<g id="node3" class="node">
<title>data_register</title><style>.edge>path:hover{stroke-width:8}</style>
<ellipse fill="#b65353" stroke="black" cx="258.34" cy="-450.84" rx="28.69" ry="18"/>
<text text-anchor="middle" x="258.34" y="-448.34" font-family="Helvetica,sans-Serif" font-size="10.00" fill="#ffffff">register</text>
</g>
<!-- data_verbal_const -->
<g id="node4" class="node">
<title>data_verbal_const</title><style>.edge>path:hover{stroke-width:8}</style>
<ellipse fill="#b65353" stroke="black" cx="169.34" cy="-450.84" rx="41.59" ry="18"/>
<text text-anchor="middle" x="169.34" y="-448.34" font-family="Helvetica,sans-Serif" font-size="10.00" fill="#ffffff">verbal_const</text>
</g>
<!-- devices -->
<g id="node5" class="node">
<title>devices</title><style>.edge>path:hover{stroke-width:8}</style>
<ellipse fill="#a2b653" stroke="black" cx="897.34" cy="-356.84" rx="28.69" ry="18"/>
<text text-anchor="middle" x="897.34" y="-354.34" font-family="Helvetica,sans-Serif" font-size="10.00" fill="#000000">devices</text>
</g>
<!-- devices&#45;&gt;plugins_ac_zone -->
<g id="edge3" class="edge">
<title>devices&#45;&gt;plugins_ac_zone</title><style>.edge>path:hover{stroke-width:8}</style>
<path fill="none" stroke="black" d="M859.34,-319.85C845.01,-313.91 592.42,-321.57 580.34,-311.85 523.26,-265.97 583.41,-211.23 540.34,-152 533.7,-142.88 524.61,-135.19 515.11,-128.9"/>
<polygon fill="#000000" stroke="black" points="516.69,-125.76 506.34,-123.5 513.02,-131.72 516.69,-125.76"/>
</g>
<!-- devices_factories_card_readers_card_reader_factory -->
<g id="node6" class="node">
<title>devices_factories_card_readers_card_reader_factory</title><style>.edge>path:hover{stroke-width:8}</style>
<ellipse fill="#a2b653" stroke="black" cx="778.34" cy="-356.84" rx="72.25" ry="28.98"/>
<text text-anchor="middle" x="778.34" y="-365.34" font-family="Helvetica,sans-Serif" font-size="10.00" fill="#000000">factories.</text>
<text text-anchor="middle" x="778.34" y="-354.34" font-family="Helvetica,sans-Serif" font-size="10.00" fill="#000000">card_readers.</text>
<text text-anchor="middle" x="778.34" y="-343.34" font-family="Helvetica,sans-Serif" font-size="10.00" fill="#000000">card_reader_factory</text>
</g>
<!-- devices_factories_card_readers_card_reader_state -->
<g id="node7" class="node">
<title>devices_factories_card_readers_card_reader_state</title><style>.edge>path:hover{stroke-width:8}</style>
<ellipse fill="#a2b653" stroke="black" cx="621.34" cy="-356.84" rx="67.35" ry="28.98"/>
<text text-anchor="middle" x="621.34" y="-365.34" font-family="Helvetica,sans-Serif" font-size="10.00" fill="#000000">factories.</text>
<text text-anchor="middle" x="621.34" y="-354.34" font-family="Helvetica,sans-Serif" font-size="10.00" fill="#000000">card_readers.</text>
<text text-anchor="middle" x="621.34" y="-343.34" font-family="Helvetica,sans-Serif" font-size="10.00" fill="#000000">card_reader_state</text>
</g>
<!-- plugins_ac_ac -->
<g id="node8" class="node">
<title>plugins_ac_ac</title><style>.edge>path:hover{stroke-width:8}</style>
<ellipse fill="#2e6b46" stroke="black" cx="468.34" cy="-34" rx="27" ry="18"/>
<text text-anchor="middle" x="468.34" y="-31.5" font-family="Helvetica,sans-Serif" font-size="10.00" fill="#ffffff">ac.ac</text>
</g>
<!-- plugins_ac_zone&#45;&gt;plugins_ac_ac -->
<g id="edge4" class="edge">
<title>plugins_ac_zone&#45;&gt;plugins_ac_ac</title><style>.edge>path:hover{stroke-width:8}</style>
<path fill="none" stroke="black" d="M468.34,-87.7C468.34,-79.98 468.34,-70.71 468.34,-62.11"/>
<polygon fill="#000000" stroke="black" points="471.84,-62.1 468.34,-52.1 464.84,-62.1 471.84,-62.1"/>
</g>
<!-- plugins_base_plugin -->
<g id="node10" class="node">
<title>plugins_base_plugin</title><style>.edge>path:hover{stroke-width:8}</style>
<ellipse fill="#3ab069" stroke="black" cx="458.34" cy="-259.64" rx="40.06" ry="18"/>
<text text-anchor="middle" x="458.34" y="-257.14" font-family="Helvetica,sans-Serif" font-size="10.00" fill="#000000">base_plugin</text>
</g>
<!-- plugins_base_plugin&#45;&gt;plugins_ac_ac -->
<g id="edge5" class="edge">
<title>plugins_base_plugin&#45;&gt;plugins_ac_ac</title><style>.edge>path:hover{stroke-width:8}</style>
<path fill="none" stroke="black" d="M450.21,-241.77C436.39,-210.68 411.43,-142.53 429.34,-88 433.05,-76.7 440.19,-65.82 447.36,-56.89"/>
<polygon fill="#000000" stroke="black" points="450.02,-59.17 453.86,-49.29 444.7,-54.62 450.02,-59.17"/>
</g>
<!-- plugins_base_plugin&#45;&gt;plugins_ac_zone -->
<g id="edge6" class="edge">
<title>plugins_base_plugin&#45;&gt;plugins_ac_zone</title><style>.edge>path:hover{stroke-width:8}</style>
<path fill="none" stroke="black" d="M459.46,-241.54C461.18,-215.49 464.47,-165.6 466.53,-134.44"/>
<polygon fill="#000000" stroke="black" points="470.03,-134.48 467.2,-124.27 463.05,-134.02 470.03,-134.48"/>
</g>
<!-- services -->
<g id="node11" class="node">
<title>services</title><style>.edge>path:hover{stroke-width:8}</style>
<ellipse fill="#3b76ce" stroke="black" cx="363.34" cy="-259.64" rx="30.72" ry="18"/>
<text text-anchor="middle" x="363.34" y="-257.14" font-family="Helvetica,sans-Serif" font-size="10.00" fill="#ffffff">services</text>
</g>
<!-- services&#45;&gt;plugins_ac_ac -->
<g id="edge7" class="edge">
<title>services&#45;&gt;plugins_ac_ac</title><style>.edge>path:hover{stroke-width:8}</style>
<path fill="none" stroke="black" d="M389.63,-152C394.32,-138.48 399.71,-124.78 405.88,-111.67"/>
<polygon fill="#000000" stroke="black" points="409.08,-113.1 410.34,-102.58 402.79,-110.02 409.08,-113.1"/>
</g>
<!-- services_global_error_handler -->
<g id="node12" class="node">
<title>services_global_error_handler</title><style>.edge>path:hover{stroke-width:8}</style>
<ellipse fill="#3b76ce" stroke="black" cx="253.34" cy="-259.64" rx="61.44" ry="18"/>
<text text-anchor="middle" x="253.34" y="-257.14" font-family="Helvetica,sans-Serif" font-size="10.00" fill="#ffffff">global_error_handler</text>
</g>
<!-- services_global_error_handler_error_codes -->
<g id="node13" class="node">
<title>services_global_error_handler_error_codes</title><style>.edge>path:hover{stroke-width:8}</style>
<ellipse fill="#537bb6" stroke="black" cx="98.34" cy="-259.64" rx="75.82" ry="21.43"/>
<text text-anchor="middle" x="98.34" y="-262.64" font-family="Helvetica,sans-Serif" font-size="10.00" fill="#ffffff">global_error_handler.</text>
<text text-anchor="middle" x="98.34" y="-251.64" font-family="Helvetica,sans-Serif" font-size="10.00" fill="#ffffff">error_codes</text>
</g>
<!-- services_global_error_handler_error_codes&#45;&gt;services_global_error_handler_global_error_handler -->
<g id="edge8" class="edge">
<title>services_global_error_handler_error_codes&#45;&gt;services_global_error_handler_global_error_handler</title><style>.edge>path:hover{stroke-width:8}</style>
<path fill="none" stroke="black" d="M98.34,-238.16C98.34,-230.3 98.34,-221.16 98.34,-212.57"/>
<polygon fill="#000000" stroke="black" points="101.84,-212.49 98.34,-202.49 94.84,-212.49 101.84,-212.49"/>
</g>
<!-- utils -->
<g id="node15" class="node">
<title>utils</title><style>.edge>path:hover{stroke-width:8}</style>
<ellipse fill="#b82fdb" stroke="black" cx="966.34" cy="-259.64" rx="27" ry="18"/>
<text text-anchor="middle" x="966.34" y="-257.14" font-family="Helvetica,sans-Serif" font-size="10.00" fill="#ffffff">utils</text>
</g>
<!-- utils&#45;&gt;plugins_ac_ac -->
<g id="edge9" class="edge">
<title>utils&#45;&gt;plugins_ac_ac</title><style>.edge>path:hover{stroke-width:8}</style>
<path fill="none" stroke="black" d="M753.11,-155.21C657.32,-112.44 567.88,-75.33 515.65,-54.05"/>
<polygon fill="#000000" stroke="black" points="516.92,-50.79 506.33,-50.27 514.28,-57.27 516.92,-50.79"/>
</g>
<!-- utils_configuarable -->
<g id="node16" class="node">
<title>utils_configuarable</title><style>.edge>path:hover{stroke-width:8}</style>
<ellipse fill="#a253b6" stroke="black" cx="877.34" cy="-259.64" rx="43.62" ry="18"/>
<text text-anchor="middle" x="877.34" y="-257.14" font-family="Helvetica,sans-Serif" font-size="10.00" fill="#ffffff">configuarable</text>
</g>
<!-- utils_logger -->
<g id="node17" class="node">
<title>utils_logger</title><style>.edge>path:hover{stroke-width:8}</style>
<ellipse fill="#a731c4" stroke="black" cx="622.34" cy="-181.21" rx="27" ry="18"/>
<text text-anchor="middle" x="622.34" y="-178.71" font-family="Helvetica,sans-Serif" font-size="10.00" fill="#ffffff">logger</text>
</g>
<!-- utils_logic -->
<g id="node18" class="node">
<title>utils_logic</title><style>.edge>path:hover{stroke-width:8}</style>
<ellipse fill="#a947c2" stroke="black" cx="788.34" cy="-259.64" rx="27" ry="18"/>
<text text-anchor="middle" x="788.34" y="-257.14" font-family="Helvetica,sans-Serif" font-size="10.00" fill="#ffffff">logic</text>
</g>
<!-- utils_logic_timer -->
<g id="node19" class="node">
<title>utils_logic_timer</title><style>.edge>path:hover{stroke-width:8}</style>
<ellipse fill="#a947c2" stroke="black" cx="707.34" cy="-259.64" rx="36.49" ry="18"/>
<text text-anchor="middle" x="707.34" y="-257.14" font-family="Helvetica,sans-Serif" font-size="10.00" fill="#ffffff">logic.timer</text>
</g>
<!-- utils_settings -->
<g id="node20" class="node">
<title>utils_settings</title><style>.edge>path:hover{stroke-width:8}</style>
<ellipse fill="#a253b6" stroke="black" cx="622.34" cy="-259.64" rx="30.04" ry="18"/>
<text text-anchor="middle" x="622.34" y="-257.14" font-family="Helvetica,sans-Serif" font-size="10.00" fill="#ffffff">settings</text>
</g>
<!-- utils_settings&#45;&gt;utils_logger -->
<g id="edge10" class="edge">
<title>utils_settings&#45;&gt;utils_logger</title><style>.edge>path:hover{stroke-width:8}</style>
<path fill="none" stroke="black" d="M622.34,-241.3C622.34,-231.85 622.34,-219.95 622.34,-209.31"/>
<polygon fill="#000000" stroke="black" points="625.84,-209.22 622.34,-199.22 618.84,-209.22 625.84,-209.22"/>
</g>
</g>
</svg>
