<?xml version="1.0" encoding="UTF-8" standalone="no"?>
<!DOCTYPE svg PUBLIC "-//W3C//DTD SVG 1.1//EN"
 "http://www.w3.org/Graphics/SVG/1.1/DTD/svg11.dtd">
<!-- Generated by graphviz version 2.50.0 (20211204.2007)
 -->
<!-- Title: G Pages: 1 -->
<svg width="676pt" height="291pt"
 viewBox="0.00 0.00 676.00 291.00" xmlns="http://www.w3.org/2000/svg" xmlns:xlink="http://www.w3.org/1999/xlink">
<g id="graph0" class="graph" transform="scale(1 1) rotate(0) translate(4 287)">
<title>G</title><style>.edge>path:hover{stroke-width:8}</style>
<polygon fill="white" stroke="transparent" points="-4,4 -4,-287 672,-287 672,4 -4,4"/>
<g id="clust1" class="cluster">
<title>cluster_data</title><style>.edge>path:hover{stroke-width:8}</style>
<polygon fill="none" stroke="black" points="8,-200 8,-275 154,-275 154,-200 8,-200"/>
<text text-anchor="middle" x="81" y="-259.8" font-family="Times New Roman,serif" font-size="14.00">data</text>
</g>
<g id="clust3" class="cluster">
<title>cluster_utils</title><style>.edge>path:hover{stroke-width:8}</style>
<polygon fill="none" stroke="black" points="243,-117 243,-275 660,-275 660,-117 243,-117"/>
<text text-anchor="middle" x="451.5" y="-259.8" font-family="Times New Roman,serif" font-size="14.00">utils</text>
</g>
<g id="clust2" class="cluster">
<title>cluster_plugins</title><style>.edge>path:hover{stroke-width:8}</style>
<polygon fill="none" stroke="black" points="139,-8 139,-192 235,-192 235,-8 139,-8"/>
<text text-anchor="middle" x="187" y="-176.8" font-family="Times New Roman,serif" font-size="14.00">plugins</text>
</g>
<!-- data -->
<g id="node1" class="node">
<title>data</title><style>.edge>path:hover{stroke-width:8}</style>
<ellipse fill="#b65353" stroke="black" cx="119" cy="-226" rx="27" ry="18"/>
<text text-anchor="middle" x="119" y="-223.5" font-family="Helvetica,sans-Serif" font-size="10.00" fill="#ffffff">data</text>
</g>
<!-- plugins_alarm_alarm -->
<g id="node3" class="node">
<title>plugins_alarm_alarm</title><style>.edge>path:hover{stroke-width:8}</style>
<ellipse fill="#378137" stroke="black" cx="187" cy="-34" rx="40.06" ry="18"/>
<text text-anchor="middle" x="187" y="-31.5" font-family="Helvetica,sans-Serif" font-size="10.00" fill="#ffffff">alarm.alarm</text>
</g>
<!-- data&#45;&gt;plugins_alarm_alarm -->
<g id="edge1" class="edge">
<title>data&#45;&gt;plugins_alarm_alarm</title><style>.edge>path:hover{stroke-width:8}</style>
<path fill="none" stroke="black" d="M120.81,-200C122.8,-179.99 126.93,-151.01 135.71,-123.86"/>
<polygon fill="#000000" stroke="black" points="139.02,-124.98 139,-114.38 132.41,-122.68 139.02,-124.98"/>
</g>
<!-- data_register -->
<g id="node2" class="node">
<title>data_register</title><style>.edge>path:hover{stroke-width:8}</style>
<ellipse fill="#b65353" stroke="black" cx="45" cy="-226" rx="28.69" ry="18"/>
<text text-anchor="middle" x="45" y="-223.5" font-family="Helvetica,sans-Serif" font-size="10.00" fill="#ffffff">register</text>
</g>
<!-- plugins_base_plugin -->
<g id="node4" class="node">
<title>plugins_base_plugin</title><style>.edge>path:hover{stroke-width:8}</style>
<ellipse fill="#46a446" stroke="black" cx="187" cy="-143" rx="40.06" ry="18"/>
<text text-anchor="middle" x="187" y="-140.5" font-family="Helvetica,sans-Serif" font-size="10.00" fill="#ffffff">base_plugin</text>
</g>
<!-- plugins_base_plugin&#45;&gt;plugins_alarm_alarm -->
<g id="edge2" class="edge">
<title>plugins_base_plugin&#45;&gt;plugins_alarm_alarm</title><style>.edge>path:hover{stroke-width:8}</style>
<path fill="none" stroke="black" d="M187,-124.81C187,-107.96 187,-82.02 187,-62.34"/>
<polygon fill="#000000" stroke="black" points="190.5,-62.15 187,-52.15 183.5,-62.15 190.5,-62.15"/>
</g>
<!-- utils -->
<g id="node5" class="node">
<title>utils</title><style>.edge>path:hover{stroke-width:8}</style>
<ellipse fill="#3b3bce" stroke="black" cx="625" cy="-226" rx="27" ry="18"/>
<text text-anchor="middle" x="625" y="-223.5" font-family="Helvetica,sans-Serif" font-size="10.00" fill="#ffffff">utils</text>
</g>
<!-- utils&#45;&gt;plugins_alarm_alarm -->
<g id="edge3" class="edge">
<title>utils&#45;&gt;plugins_alarm_alarm</title><style>.edge>path:hover{stroke-width:8}</style>
<path fill="none" stroke="black" d="M411.32,-117C346.68,-90.41 286.55,-68.66 244.86,-54.26"/>
<polygon fill="#000000" stroke="black" points="245.59,-50.81 235,-50.88 243.32,-57.43 245.59,-50.81"/>
</g>
<!-- utils_configuarable -->
<g id="node6" class="node">
<title>utils_configuarable</title><style>.edge>path:hover{stroke-width:8}</style>
<ellipse fill="#5353b6" stroke="black" cx="536" cy="-226" rx="43.62" ry="18"/>
<text text-anchor="middle" x="536" y="-223.5" font-family="Helvetica,sans-Serif" font-size="10.00" fill="#ffffff">configuarable</text>
</g>
<!-- utils_logger -->
<g id="node7" class="node">
<title>utils_logger</title><style>.edge>path:hover{stroke-width:8}</style>
<ellipse fill="#3d3db8" stroke="black" cx="281" cy="-143" rx="27" ry="18"/>
<text text-anchor="middle" x="281" y="-140.5" font-family="Helvetica,sans-Serif" font-size="10.00" fill="#ffffff">logger</text>
</g>
<!-- utils_logic -->
<g id="node8" class="node">
<title>utils_logic</title><style>.edge>path:hover{stroke-width:8}</style>
<ellipse fill="#5353b6" stroke="black" cx="447" cy="-226" rx="27" ry="18"/>
<text text-anchor="middle" x="447" y="-223.5" font-family="Helvetica,sans-Serif" font-size="10.00" fill="#ffffff">logic</text>
</g>
<!-- utils_logic_timer -->
<g id="node9" class="node">
<title>utils_logic_timer</title><style>.edge>path:hover{stroke-width:8}</style>
<ellipse fill="#5353b6" stroke="black" cx="366" cy="-226" rx="36.49" ry="18"/>
<text text-anchor="middle" x="366" y="-223.5" font-family="Helvetica,sans-Serif" font-size="10.00" fill="#ffffff">logic.timer</text>
</g>
<!-- utils_settings -->
<g id="node10" class="node">
<title>utils_settings</title><style>.edge>path:hover{stroke-width:8}</style>
<ellipse fill="#5353b6" stroke="black" cx="281" cy="-226" rx="30.04" ry="18"/>
<text text-anchor="middle" x="281" y="-223.5" font-family="Helvetica,sans-Serif" font-size="10.00" fill="#ffffff">settings</text>
</g>
<!-- utils_settings&#45;&gt;utils_logger -->
<g id="edge4" class="edge">
<title>utils_settings&#45;&gt;utils_logger</title><style>.edge>path:hover{stroke-width:8}</style>
<path fill="none" stroke="black" d="M281,-207.82C281,-197.19 281,-183.31 281,-171.2"/>
<polygon fill="#000000" stroke="black" points="284.5,-171.15 281,-161.15 277.5,-171.15 284.5,-171.15"/>
</g>
</g>
</svg>
