<?xml version="1.0" encoding="UTF-8" standalone="no"?>
<!DOCTYPE svg PUBLIC "-//W3C//DTD SVG 1.1//EN"
 "http://www.w3.org/Graphics/SVG/1.1/DTD/svg11.dtd">
<!-- Generated by graphviz version 2.50.0 (20211204.2007)
 -->
<!-- Title: G Pages: 1 -->
<svg width="1494pt" height="875pt"
 viewBox="0.00 0.00 1494.00 875.26" xmlns="http://www.w3.org/2000/svg" xmlns:xlink="http://www.w3.org/1999/xlink">
<g id="graph0" class="graph" transform="scale(1 1) rotate(0) translate(4 871.26)">
<title>G</title><style>.edge>path:hover{stroke-width:8}</style>
<polygon fill="white" stroke="transparent" points="-4,4 -4,-871.26 1490,-871.26 1490,4 -4,4"/>
<g id="clust1" class="cluster">
<title>cluster_System</title><style>.edge>path:hover{stroke-width:8}</style>
<polygon fill="none" stroke="black" points="8,-762.28 8,-859.26 175,-859.26 175,-762.28 8,-762.28"/>
<text text-anchor="middle" x="91.5" y="-844.06" font-family="Times New Roman,serif" font-size="14.00">System</text>
</g>
<g id="clust2" class="cluster">
<title>cluster_ctypes</title><style>.edge>path:hover{stroke-width:8}</style>
<polygon fill="none" stroke="black" points="138,-672.85 138,-754.28 1117,-754.28 1117,-672.85 138,-672.85"/>
<text text-anchor="middle" x="627.5" y="-739.08" font-family="Times New Roman,serif" font-size="14.00">ctypes</text>
</g>
<g id="clust3" class="cluster">
<title>cluster_data</title><style>.edge>path:hover{stroke-width:8}</style>
<polygon fill="none" stroke="black" points="838,-405.85 838,-480.85 1086,-480.85 1086,-405.85 838,-405.85"/>
<text text-anchor="middle" x="962" y="-465.65" font-family="Times New Roman,serif" font-size="14.00">data</text>
</g>
<g id="clust4" class="cluster">
<title>cluster_plugins</title><style>.edge>path:hover{stroke-width:8}</style>
<polygon fill="none" stroke="black" points="750,-8 750,-236.64 1012,-236.64 1012,-8 750,-8"/>
<text text-anchor="middle" x="881" y="-221.44" font-family="Times New Roman,serif" font-size="14.00">plugins</text>
</g>
<g id="clust7" class="cluster">
<title>cluster_utils</title><style>.edge>path:hover{stroke-width:8}</style>
<polygon fill="none" stroke="black" points="510,-244.64 510,-397.85 999,-397.85 999,-244.64 510,-244.64"/>
<text text-anchor="middle" x="754.5" y="-382.65" font-family="Times New Roman,serif" font-size="14.00">utils</text>
</g>
<g id="clust5" class="cluster">
<title>cluster_psutil</title><style>.edge>path:hover{stroke-width:8}</style>
<polygon fill="none" stroke="black" points="542,-488.85 542,-563.85 612,-563.85 612,-488.85 542,-488.85"/>
<text text-anchor="middle" x="577" y="-548.65" font-family="Times New Roman,serif" font-size="14.00">psutil</text>
</g>
<g id="clust6" class="cluster">
<title>cluster_services</title><style>.edge>path:hover{stroke-width:8}</style>
<polygon fill="none" stroke="black" points="1090,-158.43 1090,-322.85 1478,-322.85 1478,-158.43 1090,-158.43"/>
<text text-anchor="middle" x="1284" y="-307.65" font-family="Times New Roman,serif" font-size="14.00">services</text>
</g>
<!-- System -->
<g id="node1" class="node">
<title>System</title><style>.edge>path:hover{stroke-width:8}</style>
<ellipse fill="#b65353" stroke="black" cx="45" cy="-799.27" rx="29.37" ry="18"/>
<text text-anchor="middle" x="45" y="-796.77" font-family="Helvetica,sans-Serif" font-size="10.00" fill="#ffffff">System</text>
</g>
<!-- serial -->
<g id="node32" class="node">
<title>serial</title><style>.edge>path:hover{stroke-width:8}</style>
<polygon fill="#0535c7" stroke="black" points="549,-607.85 546,-611.85 525,-611.85 522,-607.85 495,-607.85 495,-571.85 549,-571.85 549,-607.85"/>
<text text-anchor="middle" x="522" y="-587.35" font-family="Helvetica,sans-Serif" font-size="10.00" fill="#ffffff">serial</text>
</g>
<!-- System&#45;&gt;serial -->
<g id="edge1" class="edge">
<title>System&#45;&gt;serial</title><style>.edge>path:hover{stroke-width:8}</style>
<path fill="none" stroke="black" d="M57.36,-762.28C68.34,-734.82 86.73,-697.61 113,-672.85 166.74,-622.21 394.39,-600.22 484.79,-593.36"/>
<polygon fill="#000000" stroke="black" points="485.14,-596.85 494.86,-592.62 484.63,-589.87 485.14,-596.85"/>
</g>
<!-- System_IO_Ports -->
<g id="node2" class="node">
<title>System_IO_Ports</title><style>.edge>path:hover{stroke-width:8}</style>
<ellipse fill="#b65353" stroke="black" cx="130" cy="-799.27" rx="37.45" ry="28.98"/>
<text text-anchor="middle" x="130" y="-807.77" font-family="Helvetica,sans-Serif" font-size="10.00" fill="#ffffff">System.</text>
<text text-anchor="middle" x="130" y="-796.77" font-family="Helvetica,sans-Serif" font-size="10.00" fill="#ffffff">IO.</text>
<text text-anchor="middle" x="130" y="-785.77" font-family="Helvetica,sans-Serif" font-size="10.00" fill="#ffffff">Ports</text>
</g>
<!-- System_IO_Ports&#45;&gt;serial -->
<g id="edge2" class="edge">
<title>System_IO_Ports&#45;&gt;serial</title><style>.edge>path:hover{stroke-width:8}</style>
<path fill="none" stroke="black" d="M120.28,-762.28C115.15,-734.67 113.56,-697.26 134,-672.85 178.87,-619.28 396.55,-599.11 484.76,-593.05"/>
<polygon fill="#000000" stroke="black" points="485.11,-596.54 494.86,-592.38 484.65,-589.55 485.11,-596.54"/>
</g>
<!-- ctypes_POINTER -->
<g id="node3" class="node">
<title>ctypes_POINTER</title><style>.edge>path:hover{stroke-width:8}</style>
<ellipse fill="#b69d53" stroke="black" cx="200" cy="-702.07" rx="53.64" ry="18"/>
<text text-anchor="middle" x="200" y="-699.57" font-family="Helvetica,sans-Serif" font-size="10.00" fill="#000000">ctypes.POINTER</text>
</g>
<!-- ctypes_POINTER&#45;&gt;serial -->
<g id="edge3" class="edge">
<title>ctypes_POINTER&#45;&gt;serial</title><style>.edge>path:hover{stroke-width:8}</style>
<path fill="none" stroke="black" d="M262,-672.85C339.93,-642.96 433.87,-615.34 484.79,-601.05"/>
<polygon fill="#000000" stroke="black" points="485.99,-604.34 494.68,-598.28 484.11,-597.6 485.99,-604.34"/>
</g>
<!-- ctypes_Structure -->
<g id="node4" class="node">
<title>ctypes_Structure</title><style>.edge>path:hover{stroke-width:8}</style>
<ellipse fill="#b69d53" stroke="black" cx="311" cy="-702.07" rx="39.7" ry="21.43"/>
<text text-anchor="middle" x="311" y="-705.07" font-family="Helvetica,sans-Serif" font-size="10.00" fill="#000000">ctypes.</text>
<text text-anchor="middle" x="311" y="-694.07" font-family="Helvetica,sans-Serif" font-size="10.00" fill="#000000">Structure</text>
</g>
<!-- ctypes_Structure&#45;&gt;serial -->
<g id="edge4" class="edge">
<title>ctypes_Structure&#45;&gt;serial</title><style>.edge>path:hover{stroke-width:8}</style>
<path fill="none" stroke="black" d="M359,-672.85C401.92,-649.48 452.3,-624.5 485.57,-608.33"/>
<polygon fill="#000000" stroke="black" points="487.42,-611.32 494.9,-603.82 484.37,-605.03 487.42,-611.32"/>
</g>
<!-- ctypes_Union -->
<g id="node5" class="node">
<title>ctypes_Union</title><style>.edge>path:hover{stroke-width:8}</style>
<ellipse fill="#b69d53" stroke="black" cx="412" cy="-702.07" rx="43.62" ry="18"/>
<text text-anchor="middle" x="412" y="-699.57" font-family="Helvetica,sans-Serif" font-size="10.00" fill="#000000">ctypes.Union</text>
</g>
<!-- ctypes_Union&#45;&gt;serial -->
<g id="edge5" class="edge">
<title>ctypes_Union&#45;&gt;serial</title><style>.edge>path:hover{stroke-width:8}</style>
<path fill="none" stroke="black" d="M440.16,-672.86C457.94,-655.03 480.7,-632.24 497.7,-615.2"/>
<polygon fill="#000000" stroke="black" points="500.23,-617.62 504.82,-608.07 495.28,-612.67 500.23,-617.62"/>
</g>
<!-- ctypes_WinDLL -->
<g id="node6" class="node">
<title>ctypes_WinDLL</title><style>.edge>path:hover{stroke-width:8}</style>
<ellipse fill="#b69d53" stroke="black" cx="522" cy="-702.07" rx="48.72" ry="18"/>
<text text-anchor="middle" x="522" y="-699.57" font-family="Helvetica,sans-Serif" font-size="10.00" fill="#000000">ctypes.WinDLL</text>
</g>
<!-- ctypes_WinDLL&#45;&gt;serial -->
<g id="edge6" class="edge">
<title>ctypes_WinDLL&#45;&gt;serial</title><style>.edge>path:hover{stroke-width:8}</style>
<path fill="none" stroke="black" d="M522,-672.86C522,-655.98 522,-634.65 522,-617.98"/>
<polygon fill="#000000" stroke="black" points="525.5,-617.95 522,-607.95 518.5,-617.95 525.5,-617.95"/>
</g>
<!-- ctypes_c_char -->
<g id="node7" class="node">
<title>ctypes_c_char</title><style>.edge>path:hover{stroke-width:8}</style>
<ellipse fill="#b69d53" stroke="black" cx="635" cy="-702.07" rx="45.83" ry="18"/>
<text text-anchor="middle" x="635" y="-699.57" font-family="Helvetica,sans-Serif" font-size="10.00" fill="#000000">ctypes.c_char</text>
</g>
<!-- ctypes_c_char&#45;&gt;serial -->
<g id="edge7" class="edge">
<title>ctypes_c_char&#45;&gt;serial</title><style>.edge>path:hover{stroke-width:8}</style>
<path fill="none" stroke="black" d="M606.07,-672.85C587.72,-654.96 564.23,-632.04 546.74,-614.99"/>
<polygon fill="#000000" stroke="black" points="549.09,-612.38 539.49,-607.91 544.2,-617.4 549.09,-612.38"/>
</g>
<!-- ctypes_c_int64 -->
<g id="node8" class="node">
<title>ctypes_c_int64</title><style>.edge>path:hover{stroke-width:8}</style>
<ellipse fill="#b69d53" stroke="black" cx="746" cy="-702.07" rx="47.19" ry="18"/>
<text text-anchor="middle" x="746" y="-699.57" font-family="Helvetica,sans-Serif" font-size="10.00" fill="#000000">ctypes.c_int64</text>
</g>
<!-- ctypes_c_int64&#45;&gt;serial -->
<g id="edge8" class="edge">
<title>ctypes_c_int64&#45;&gt;serial</title><style>.edge>path:hover{stroke-width:8}</style>
<path fill="none" stroke="black" d="M690,-672.85C644.69,-650.38 592.28,-624.88 558.21,-608.37"/>
<polygon fill="#000000" stroke="black" points="559.64,-605.17 549.11,-603.96 556.59,-611.47 559.64,-605.17"/>
</g>
<!-- ctypes_c_ulong -->
<g id="node9" class="node">
<title>ctypes_c_ulong</title><style>.edge>path:hover{stroke-width:8}</style>
<ellipse fill="#b69d53" stroke="black" cx="860" cy="-702.07" rx="48.72" ry="18"/>
<text text-anchor="middle" x="860" y="-699.57" font-family="Helvetica,sans-Serif" font-size="10.00" fill="#000000">ctypes.c_ulong</text>
</g>
<!-- ctypes_c_ulong&#45;&gt;serial -->
<g id="edge9" class="edge">
<title>ctypes_c_ulong&#45;&gt;serial</title><style>.edge>path:hover{stroke-width:8}</style>
<path fill="none" stroke="black" d="M802,-672.85C717,-640 613.19,-612.83 558.98,-599.57"/>
<polygon fill="#000000" stroke="black" points="559.68,-596.14 549.14,-597.19 558.03,-602.94 559.68,-596.14"/>
</g>
<!-- ctypes_c_void_p -->
<g id="node10" class="node">
<title>ctypes_c_void_p</title><style>.edge>path:hover{stroke-width:8}</style>
<ellipse fill="#b69d53" stroke="black" cx="965" cy="-702.07" rx="38.37" ry="21.43"/>
<text text-anchor="middle" x="965" y="-705.07" font-family="Helvetica,sans-Serif" font-size="10.00" fill="#000000">ctypes.</text>
<text text-anchor="middle" x="965" y="-694.07" font-family="Helvetica,sans-Serif" font-size="10.00" fill="#000000">c_void_p</text>
</g>
<!-- ctypes_c_void_p&#45;&gt;serial -->
<g id="edge10" class="edge">
<title>ctypes_c_void_p&#45;&gt;serial</title><style>.edge>path:hover{stroke-width:8}</style>
<path fill="none" stroke="black" d="M918,-672.85C792.04,-623.65 631.45,-602.07 559.64,-594.4"/>
<polygon fill="#000000" stroke="black" points="559.61,-590.87 549.31,-593.32 558.89,-597.84 559.61,-590.87"/>
</g>
<!-- ctypes_sizeof -->
<g id="node11" class="node">
<title>ctypes_sizeof</title><style>.edge>path:hover{stroke-width:8}</style>
<ellipse fill="#b69d53" stroke="black" cx="1065" cy="-702.07" rx="43.62" ry="18"/>
<text text-anchor="middle" x="1065" y="-699.57" font-family="Helvetica,sans-Serif" font-size="10.00" fill="#000000">ctypes.sizeof</text>
</g>
<!-- ctypes_sizeof&#45;&gt;serial -->
<g id="edge11" class="edge">
<title>ctypes_sizeof&#45;&gt;serial</title><style>.edge>path:hover{stroke-width:8}</style>
<path fill="none" stroke="black" d="M1012,-672.85C849.24,-617 642.57,-598.4 559.28,-592.91"/>
<polygon fill="#000000" stroke="black" points="559.25,-589.4 549.05,-592.26 558.81,-596.39 559.25,-589.4"/>
</g>
<!-- data -->
<g id="node12" class="node">
<title>data</title><style>.edge>path:hover{stroke-width:8}</style>
<ellipse fill="#85c247" stroke="black" cx="1051" cy="-431.85" rx="27" ry="18"/>
<text text-anchor="middle" x="1051" y="-429.35" font-family="Helvetica,sans-Serif" font-size="10.00" fill="#000000">data</text>
</g>
<!-- plugins_sys_sys -->
<g id="node19" class="node">
<title>plugins_sys_sys</title><style>.edge>path:hover{stroke-width:8}</style>
<ellipse fill="#2e6b3d" stroke="black" cx="923" cy="-34" rx="30.04" ry="18"/>
<text text-anchor="middle" x="923" y="-31.5" font-family="Helvetica,sans-Serif" font-size="10.00" fill="#ffffff">sys.sys</text>
</g>
<!-- data&#45;&gt;plugins_sys_sys -->
<g id="edge12" class="edge">
<title>data&#45;&gt;plugins_sys_sys</title><style>.edge>path:hover{stroke-width:8}</style>
<path fill="none" stroke="black" d="M1046.15,-405.86C1040.52,-374.6 1032,-319.37 1032,-271.64 1032,-271.64 1032,-271.64 1032,-186.64 1032,-152.62 1029.58,-135.21 1017.23,-113.57"/>
<polygon fill="#000000" stroke="black" points="1020.2,-111.72 1012,-105.02 1014.23,-115.38 1020.2,-111.72"/>
</g>
<!-- services_global_error_handler_global_error_handler -->
<g id="node24" class="node">
<title>services_global_error_handler_global_error_handler</title><style>.edge>path:hover{stroke-width:8}</style>
<ellipse fill="#6b4096" stroke="black" cx="1174" cy="-187.64" rx="75.82" ry="21.43"/>
<text text-anchor="middle" x="1174" y="-190.64" font-family="Helvetica,sans-Serif" font-size="10.00" fill="#ffffff">global_error_handler.</text>
<text text-anchor="middle" x="1174" y="-179.64" font-family="Helvetica,sans-Serif" font-size="10.00" fill="#ffffff">global_error_handler</text>
</g>
<!-- data&#45;&gt;services_global_error_handler_global_error_handler -->
<g id="edge13" class="edge">
<title>data&#45;&gt;services_global_error_handler_global_error_handler</title><style>.edge>path:hover{stroke-width:8}</style>
<path fill="none" stroke="black" d="M1050.26,-405.86C1050.32,-369.87 1054.82,-302.28 1084.59,-251.76"/>
<polygon fill="#000000" stroke="black" points="1087.62,-253.52 1090,-243.19 1081.7,-249.78 1087.62,-253.52"/>
</g>
<!-- data_register -->
<g id="node13" class="node">
<title>data_register</title><style>.edge>path:hover{stroke-width:8}</style>
<ellipse fill="#85b653" stroke="black" cx="977" cy="-431.85" rx="28.69" ry="18"/>
<text text-anchor="middle" x="977" y="-429.35" font-family="Helvetica,sans-Serif" font-size="10.00" fill="#000000">register</text>
</g>
<!-- data_verbal_const -->
<g id="node14" class="node">
<title>data_verbal_const</title><style>.edge>path:hover{stroke-width:8}</style>
<ellipse fill="#85b653" stroke="black" cx="888" cy="-431.85" rx="41.59" ry="18"/>
<text text-anchor="middle" x="888" y="-429.35" font-family="Helvetica,sans-Serif" font-size="10.00" fill="#000000">verbal_const</text>
</g>
<!-- plugins_base_plugin -->
<g id="node15" class="node">
<title>plugins_base_plugin</title><style>.edge>path:hover{stroke-width:8}</style>
<ellipse fill="#46a45e" stroke="black" cx="964" cy="-187.64" rx="40.06" ry="18"/>
<text text-anchor="middle" x="964" y="-185.14" font-family="Helvetica,sans-Serif" font-size="10.00" fill="#000000">base_plugin</text>
</g>
<!-- plugins_base_plugin&#45;&gt;plugins_sys_sys -->
<g id="edge14" class="edge">
<title>plugins_base_plugin&#45;&gt;plugins_sys_sys</title><style>.edge>path:hover{stroke-width:8}</style>
<path fill="none" stroke="black" d="M975.96,-170.28C989.08,-150.16 1006.59,-115.33 993,-88 984.96,-71.84 969.38,-59.29 954.96,-50.46"/>
<polygon fill="#000000" stroke="black" points="956.62,-47.38 946.2,-45.45 953.14,-53.46 956.62,-47.38"/>
</g>
<!-- plugins_sys_monitoring_level -->
<g id="node16" class="node">
<title>plugins_sys_monitoring_level</title><style>.edge>path:hover{stroke-width:8}</style>
<ellipse fill="#53b66c" stroke="black" cx="923" cy="-109.21" rx="60.62" ry="21.43"/>
<text text-anchor="middle" x="923" y="-112.21" font-family="Helvetica,sans-Serif" font-size="10.00" fill="#000000">sys.</text>
<text text-anchor="middle" x="923" y="-101.21" font-family="Helvetica,sans-Serif" font-size="10.00" fill="#000000">monitoring_level</text>
</g>
<!-- plugins_sys_monitoring_level&#45;&gt;plugins_sys_sys -->
<g id="edge15" class="edge">
<title>plugins_sys_monitoring_level&#45;&gt;plugins_sys_sys</title><style>.edge>path:hover{stroke-width:8}</style>
<path fill="none" stroke="black" d="M923,-87.82C923,-79.97 923,-70.86 923,-62.45"/>
<polygon fill="#000000" stroke="black" points="926.5,-62.31 923,-52.31 919.5,-62.31 926.5,-62.31"/>
</g>
<!-- plugins_sys_rule -->
<g id="node17" class="node">
<title>plugins_sys_rule</title><style>.edge>path:hover{stroke-width:8}</style>
<ellipse fill="#47c266" stroke="black" cx="817" cy="-187.64" rx="30.04" ry="18"/>
<text text-anchor="middle" x="817" y="-185.14" font-family="Helvetica,sans-Serif" font-size="10.00" fill="#000000">sys.rule</text>
</g>
<!-- plugins_sys_rules -->
<g id="node18" class="node">
<title>plugins_sys_rules</title><style>.edge>path:hover{stroke-width:8}</style>
<ellipse fill="#46a45e" stroke="black" cx="791" cy="-109.21" rx="32.93" ry="18"/>
<text text-anchor="middle" x="791" y="-106.71" font-family="Helvetica,sans-Serif" font-size="10.00" fill="#000000">sys.rules</text>
</g>
<!-- plugins_sys_rule&#45;&gt;plugins_sys_rules -->
<g id="edge16" class="edge">
<title>plugins_sys_rule&#45;&gt;plugins_sys_rules</title><style>.edge>path:hover{stroke-width:8}</style>
<path fill="none" stroke="black" d="M811.23,-169.68C807.93,-159.98 803.72,-147.61 800,-136.66"/>
<polygon fill="#000000" stroke="black" points="803.29,-135.47 796.75,-127.13 796.66,-137.72 803.29,-135.47"/>
</g>
<!-- plugins_sys_rule&#45;&gt;plugins_sys_sys -->
<g id="edge17" class="edge">
<title>plugins_sys_rule&#45;&gt;plugins_sys_sys</title><style>.edge>path:hover{stroke-width:8}</style>
<path fill="none" stroke="black" d="M821.93,-169.62C829.26,-145.08 843.2,-101.27 853,-88 863.55,-73.72 878.99,-61.46 892.69,-52.34"/>
<polygon fill="#000000" stroke="black" points="894.82,-55.14 901.37,-46.81 891.06,-49.23 894.82,-55.14"/>
</g>
<!-- plugins_sys_rules&#45;&gt;plugins_sys_sys -->
<g id="edge18" class="edge">
<title>plugins_sys_rules&#45;&gt;plugins_sys_sys</title><style>.edge>path:hover{stroke-width:8}</style>
<path fill="none" stroke="black" d="M813.39,-95.79C835.31,-83.64 868.83,-65.04 893.03,-51.62"/>
<polygon fill="#000000" stroke="black" points="894.76,-54.66 901.81,-46.75 891.37,-48.54 894.76,-54.66"/>
</g>
<!-- psutil -->
<g id="node20" class="node">
<title>psutil</title><style>.edge>path:hover{stroke-width:8}</style>
<ellipse fill="#53b6b6" stroke="black" cx="577" cy="-514.85" rx="27" ry="18"/>
<text text-anchor="middle" x="577" y="-512.35" font-family="Helvetica,sans-Serif" font-size="10.00" fill="#000000">psutil</text>
</g>
<!-- utils_utils -->
<g id="node31" class="node">
<title>utils_utils</title><style>.edge>path:hover{stroke-width:8}</style>
<ellipse fill="#a8388c" stroke="black" cx="545" cy="-348.85" rx="27" ry="18"/>
<text text-anchor="middle" x="545" y="-346.35" font-family="Helvetica,sans-Serif" font-size="10.00" fill="#ffffff">utils</text>
</g>
<!-- psutil&#45;&gt;utils_utils -->
<g id="edge19" class="edge">
<title>psutil&#45;&gt;utils_utils</title><style>.edge>path:hover{stroke-width:8}</style>
<path fill="none" stroke="black" d="M572.12,-488.86C567.93,-467.39 561.73,-435.62 556.32,-407.87"/>
<polygon fill="#000000" stroke="black" points="559.72,-407 554.37,-397.85 552.85,-408.34 559.72,-407"/>
</g>
<!-- services -->
<g id="node21" class="node">
<title>services</title><style>.edge>path:hover{stroke-width:8}</style>
<ellipse fill="#8547c2" stroke="black" cx="1439" cy="-270.64" rx="30.72" ry="18"/>
<text text-anchor="middle" x="1439" y="-268.14" font-family="Helvetica,sans-Serif" font-size="10.00" fill="#ffffff">services</text>
</g>
<!-- services&#45;&gt;plugins_sys_sys -->
<g id="edge21" class="edge">
<title>services&#45;&gt;plugins_sys_sys</title><style>.edge>path:hover{stroke-width:8}</style>
<path fill="none" stroke="black" d="M1259,-158.43C1181.74,-120.91 1089.96,-87.93 1021.87,-65.52"/>
<polygon fill="#000000" stroke="black" points="1022.59,-62.07 1012,-62.29 1020.42,-68.73 1022.59,-62.07"/>
</g>
<!-- services_global_error_handler -->
<g id="node22" class="node">
<title>services_global_error_handler</title><style>.edge>path:hover{stroke-width:8}</style>
<ellipse fill="#8547c2" stroke="black" cx="1329" cy="-270.64" rx="61.44" ry="18"/>
<text text-anchor="middle" x="1329" y="-268.14" font-family="Helvetica,sans-Serif" font-size="10.00" fill="#ffffff">global_error_handler</text>
</g>
<!-- services_global_error_handler_error_codes -->
<g id="node23" class="node">
<title>services_global_error_handler_error_codes</title><style>.edge>path:hover{stroke-width:8}</style>
<ellipse fill="#8553b6" stroke="black" cx="1174" cy="-270.64" rx="75.82" ry="21.43"/>
<text text-anchor="middle" x="1174" y="-273.64" font-family="Helvetica,sans-Serif" font-size="10.00" fill="#ffffff">global_error_handler.</text>
<text text-anchor="middle" x="1174" y="-262.64" font-family="Helvetica,sans-Serif" font-size="10.00" fill="#ffffff">error_codes</text>
</g>
<!-- services_global_error_handler_error_codes&#45;&gt;services_global_error_handler_global_error_handler -->
<g id="edge22" class="edge">
<title>services_global_error_handler_error_codes&#45;&gt;services_global_error_handler_global_error_handler</title><style>.edge>path:hover{stroke-width:8}</style>
<path fill="none" stroke="black" d="M1174,-249.2C1174,-240.09 1174,-229.16 1174,-219.11"/>
<polygon fill="#000000" stroke="black" points="1177.5,-219.07 1174,-209.07 1170.5,-219.07 1177.5,-219.07"/>
</g>
<!-- utils -->
<g id="node25" class="node">
<title>utils</title><style>.edge>path:hover{stroke-width:8}</style>
<ellipse fill="#ce3ba9" stroke="black" cx="964" cy="-348.85" rx="27" ry="18"/>
<text text-anchor="middle" x="964" y="-346.35" font-family="Helvetica,sans-Serif" font-size="10.00" fill="#ffffff">utils</text>
</g>
<!-- utils&#45;&gt;plugins_base_plugin -->
<g id="edge23" class="edge">
<title>utils&#45;&gt;plugins_base_plugin</title><style>.edge>path:hover{stroke-width:8}</style>
<path fill="none" stroke="black" d="M964,-244.64C964,-242.64 964,-240.64 964,-238.64"/>
<polygon fill="#000000" stroke="black" points="967.5,-246.64 964,-236.64 960.5,-246.64 967.5,-246.64"/>
</g>
<!-- utils_configuarable -->
<g id="node26" class="node">
<title>utils_configuarable</title><style>.edge>path:hover{stroke-width:8}</style>
<ellipse fill="#b6539d" stroke="black" cx="875" cy="-348.85" rx="43.62" ry="18"/>
<text text-anchor="middle" x="875" y="-346.35" font-family="Helvetica,sans-Serif" font-size="10.00" fill="#ffffff">configuarable</text>
</g>
<!-- utils_logger -->
<g id="node27" class="node">
<title>utils_logger</title><style>.edge>path:hover{stroke-width:8}</style>
<ellipse fill="#b83d99" stroke="black" cx="620" cy="-270.64" rx="27" ry="18"/>
<text text-anchor="middle" x="620" y="-268.14" font-family="Helvetica,sans-Serif" font-size="10.00" fill="#ffffff">logger</text>
</g>
<!-- utils_logic -->
<g id="node28" class="node">
<title>utils_logic</title><style>.edge>path:hover{stroke-width:8}</style>
<ellipse fill="#b6539d" stroke="black" cx="786" cy="-348.85" rx="27" ry="18"/>
<text text-anchor="middle" x="786" y="-346.35" font-family="Helvetica,sans-Serif" font-size="10.00" fill="#ffffff">logic</text>
</g>
<!-- utils_logic_timer -->
<g id="node29" class="node">
<title>utils_logic_timer</title><style>.edge>path:hover{stroke-width:8}</style>
<ellipse fill="#b6539d" stroke="black" cx="705" cy="-348.85" rx="36.49" ry="18"/>
<text text-anchor="middle" x="705" y="-346.35" font-family="Helvetica,sans-Serif" font-size="10.00" fill="#ffffff">logic.timer</text>
</g>
<!-- utils_settings -->
<g id="node30" class="node">
<title>utils_settings</title><style>.edge>path:hover{stroke-width:8}</style>
<ellipse fill="#b6539d" stroke="black" cx="620" cy="-348.85" rx="30.04" ry="18"/>
<text text-anchor="middle" x="620" y="-346.35" font-family="Helvetica,sans-Serif" font-size="10.00" fill="#ffffff">settings</text>
</g>
<!-- utils_settings&#45;&gt;utils_logger -->
<g id="edge24" class="edge">
<title>utils_settings&#45;&gt;utils_logger</title><style>.edge>path:hover{stroke-width:8}</style>
<path fill="none" stroke="black" d="M620,-330.56C620,-321.2 620,-309.44 620,-298.88"/>
<polygon fill="#000000" stroke="black" points="623.5,-298.87 620,-288.87 616.5,-298.87 623.5,-298.87"/>
</g>
<!-- serial&#45;&gt;utils_utils -->
<g id="edge20" class="edge">
<title>serial&#45;&gt;utils_utils</title><style>.edge>path:hover{stroke-width:8}</style>
<path fill="none" stroke="black" d="M523.65,-571.66C526.9,-537.91 534.25,-461.57 539.41,-407.92"/>
<polygon fill="#0535c7" stroke="black" points="542.91,-408.14 540.38,-397.85 535.94,-407.47 542.91,-408.14"/>
</g>
</g>
</svg>
