<?xml version="1.0" encoding="UTF-8" standalone="no"?>
<!DOCTYPE svg PUBLIC "-//W3C//DTD SVG 1.1//EN"
 "http://www.w3.org/Graphics/SVG/1.1/DTD/svg11.dtd">
<!-- Generated by graphviz version 2.50.0 (20211204.2007)
 -->
<!-- Title: G Pages: 1 -->
<svg width="1111pt" height="474pt"
 viewBox="0.00 0.00 1111.17 474.20" xmlns="http://www.w3.org/2000/svg" xmlns:xlink="http://www.w3.org/1999/xlink">
<g id="graph0" class="graph" transform="scale(1 1) rotate(0) translate(4 470.2)">
<title>G</title><style>.edge>path:hover{stroke-width:8}</style>
<polygon fill="white" stroke="transparent" points="-4,4 -4,-470.2 1107.17,-470.2 1107.17,4 -4,4"/>
<g id="clust3" class="cluster">
<title>cluster_plugins</title><style>.edge>path:hover{stroke-width:8}</style>
<polygon fill="none" stroke="black" points="468.17,-8 468.17,-195.21 564.17,-195.21 564.17,-8 468.17,-8"/>
<text text-anchor="middle" x="516.17" y="-180.01" font-family="Times New Roman,serif" font-size="14.00">plugins</text>
</g>
<g id="clust2" class="cluster">
<title>cluster_devices</title><style>.edge>path:hover{stroke-width:8}</style>
<polygon fill="none" stroke="black" points="871.17,-203.21 871.17,-300.2 1095.17,-300.2 1095.17,-203.21 871.17,-203.21"/>
<text text-anchor="middle" x="983.17" y="-285" font-family="Times New Roman,serif" font-size="14.00">devices</text>
</g>
<g id="clust1" class="cluster">
<title>cluster_data</title><style>.edge>path:hover{stroke-width:8}</style>
<polygon fill="none" stroke="black" points="167.17,-383.2 167.17,-458.2 313.17,-458.2 313.17,-383.2 167.17,-383.2"/>
<text text-anchor="middle" x="240.17" y="-443" font-family="Times New Roman,serif" font-size="14.00">data</text>
</g>
<g id="clust4" class="cluster">
<title>cluster_services</title><style>.edge>path:hover{stroke-width:8}</style>
<polygon fill="none" stroke="black" points="18.17,-117 18.17,-292.42 406.17,-292.42 406.17,-117 18.17,-117"/>
<text text-anchor="middle" x="212.17" y="-277.22" font-family="Times New Roman,serif" font-size="14.00">services</text>
</g>
<g id="clust5" class="cluster">
<title>cluster_utils</title><style>.edge>path:hover{stroke-width:8}</style>
<polygon fill="none" stroke="black" points="446.17,-214.2 446.17,-375.2 863.17,-375.2 863.17,-214.2 446.17,-214.2"/>
<text text-anchor="middle" x="654.67" y="-360" font-family="Times New Roman,serif" font-size="14.00">utils</text>
</g>
<!-- data -->
<g id="node1" class="node">
<title>data</title><style>.edge>path:hover{stroke-width:8}</style>
<ellipse fill="#c24747" stroke="black" cx="278.17" cy="-409.2" rx="27" ry="18"/>
<text text-anchor="middle" x="278.17" y="-406.7" font-family="Helvetica,sans-Serif" font-size="10.00" fill="#ffffff">data</text>
</g>
<!-- plugins_stat_stat -->
<g id="node6" class="node">
<title>plugins_stat_stat</title><style>.edge>path:hover{stroke-width:8}</style>
<ellipse fill="#2e6b46" stroke="black" cx="511.17" cy="-34" rx="31.4" ry="18"/>
<text text-anchor="middle" x="511.17" y="-31.5" font-family="Helvetica,sans-Serif" font-size="10.00" fill="#ffffff">stat.stat</text>
</g>
<!-- data&#45;&gt;plugins_stat_stat -->
<g id="edge1" class="edge">
<title>data&#45;&gt;plugins_stat_stat</title><style>.edge>path:hover{stroke-width:8}</style>
<path fill="none" stroke="black" d="M313.17,-388.25C343.25,-369.33 385.55,-338.19 410.17,-300.2 424.94,-277.4 426.17,-268.37 426.17,-241.2 426.17,-241.2 426.17,-241.2 426.17,-145.21 426.17,-118.12 442.47,-93.62 460.8,-74.64"/>
<polygon fill="#000000" stroke="black" points="463.5,-76.89 468.17,-67.38 458.59,-71.9 463.5,-76.89"/>
</g>
<!-- services_global_error_handler_global_error_handler -->
<g id="node10" class="node">
<title>services_global_error_handler_global_error_handler</title><style>.edge>path:hover{stroke-width:8}</style>
<ellipse fill="#406296" stroke="black" cx="102.17" cy="-146.21" rx="75.82" ry="21.43"/>
<text text-anchor="middle" x="102.17" y="-149.21" font-family="Helvetica,sans-Serif" font-size="10.00" fill="#ffffff">global_error_handler.</text>
<text text-anchor="middle" x="102.17" y="-138.21" font-family="Helvetica,sans-Serif" font-size="10.00" fill="#ffffff">global_error_handler</text>
</g>
<!-- data&#45;&gt;services_global_error_handler_global_error_handler -->
<g id="edge2" class="edge">
<title>data&#45;&gt;services_global_error_handler_global_error_handler</title><style>.edge>path:hover{stroke-width:8}</style>
<path fill="none" stroke="black" d="M242.17,-383.2C147.64,-333.96 78.12,-387.64 17.17,-300.2 -5.55,-267.6 -3.75,-244.93 13.47,-210.46"/>
<polygon fill="#000000" stroke="black" points="16.66,-211.91 18.17,-201.42 10.45,-208.68 16.66,-211.91"/>
</g>
<!-- data_register -->
<g id="node2" class="node">
<title>data_register</title><style>.edge>path:hover{stroke-width:8}</style>
<ellipse fill="#c24747" stroke="black" cx="204.17" cy="-409.2" rx="28.69" ry="18"/>
<text text-anchor="middle" x="204.17" y="-406.7" font-family="Helvetica,sans-Serif" font-size="10.00" fill="#ffffff">register</text>
</g>
<!-- devices -->
<g id="node3" class="node">
<title>devices</title><style>.edge>path:hover{stroke-width:8}</style>
<ellipse fill="#a2b653" stroke="black" cx="1058.17" cy="-240.2" rx="28.69" ry="18"/>
<text text-anchor="middle" x="1058.17" y="-237.7" font-family="Helvetica,sans-Serif" font-size="10.00" fill="#000000">devices</text>
</g>
<!-- devices&#45;&gt;plugins_stat_stat -->
<g id="edge3" class="edge">
<title>devices&#45;&gt;plugins_stat_stat</title><style>.edge>path:hover{stroke-width:8}</style>
<path fill="none" stroke="black" d="M1020.17,-203.21C873.03,-115.27 674.13,-66.79 574.12,-46.52"/>
<polygon fill="#000000" stroke="black" points="574.66,-43.06 564.17,-44.53 573.29,-49.93 574.66,-43.06"/>
</g>
<!-- devices_factories_luxmeters_luxmeters_factory -->
<g id="node4" class="node">
<title>devices_factories_luxmeters_luxmeters_factory</title><style>.edge>path:hover{stroke-width:8}</style>
<ellipse fill="#a2b653" stroke="black" cx="945.17" cy="-240.2" rx="66.44" ry="28.98"/>
<text text-anchor="middle" x="945.17" y="-248.7" font-family="Helvetica,sans-Serif" font-size="10.00" fill="#000000">factories.</text>
<text text-anchor="middle" x="945.17" y="-237.7" font-family="Helvetica,sans-Serif" font-size="10.00" fill="#000000">luxmeters.</text>
<text text-anchor="middle" x="945.17" y="-226.7" font-family="Helvetica,sans-Serif" font-size="10.00" fill="#000000">luxmeters_factory</text>
</g>
<!-- plugins_base_plugin -->
<g id="node5" class="node">
<title>plugins_base_plugin</title><style>.edge>path:hover{stroke-width:8}</style>
<ellipse fill="#46a46c" stroke="black" cx="516.17" cy="-146.21" rx="40.06" ry="18"/>
<text text-anchor="middle" x="516.17" y="-143.71" font-family="Helvetica,sans-Serif" font-size="10.00" fill="#000000">base_plugin</text>
</g>
<!-- plugins_base_plugin&#45;&gt;plugins_stat_stat -->
<g id="edge4" class="edge">
<title>plugins_base_plugin&#45;&gt;plugins_stat_stat</title><style>.edge>path:hover{stroke-width:8}</style>
<path fill="none" stroke="black" d="M515.39,-127.99C514.59,-110.36 513.33,-82.7 512.4,-62.12"/>
<polygon fill="#000000" stroke="black" points="515.9,-61.93 511.95,-52.1 508.9,-62.25 515.9,-61.93"/>
</g>
<!-- services -->
<g id="node7" class="node">
<title>services</title><style>.edge>path:hover{stroke-width:8}</style>
<ellipse fill="#4778c2" stroke="black" cx="367.17" cy="-240.2" rx="30.72" ry="18"/>
<text text-anchor="middle" x="367.17" y="-237.7" font-family="Helvetica,sans-Serif" font-size="10.00" fill="#ffffff">services</text>
</g>
<!-- services&#45;&gt;plugins_stat_stat -->
<g id="edge5" class="edge">
<title>services&#45;&gt;plugins_stat_stat</title><style>.edge>path:hover{stroke-width:8}</style>
<path fill="none" stroke="black" d="M393.96,-117C399.02,-106.62 405.03,-96.76 412.17,-88 424.36,-73.06 441.91,-61.75 458.86,-53.5"/>
<polygon fill="#000000" stroke="black" points="460.54,-56.58 468.17,-49.23 457.62,-50.21 460.54,-56.58"/>
</g>
<!-- services_global_error_handler -->
<g id="node8" class="node">
<title>services_global_error_handler</title><style>.edge>path:hover{stroke-width:8}</style>
<ellipse fill="#4778c2" stroke="black" cx="257.17" cy="-240.2" rx="61.44" ry="18"/>
<text text-anchor="middle" x="257.17" y="-237.7" font-family="Helvetica,sans-Serif" font-size="10.00" fill="#ffffff">global_error_handler</text>
</g>
<!-- services_global_error_handler_error_codes -->
<g id="node9" class="node">
<title>services_global_error_handler_error_codes</title><style>.edge>path:hover{stroke-width:8}</style>
<ellipse fill="#537bb6" stroke="black" cx="102.17" cy="-240.2" rx="75.82" ry="21.43"/>
<text text-anchor="middle" x="102.17" y="-243.2" font-family="Helvetica,sans-Serif" font-size="10.00" fill="#ffffff">global_error_handler.</text>
<text text-anchor="middle" x="102.17" y="-232.2" font-family="Helvetica,sans-Serif" font-size="10.00" fill="#ffffff">error_codes</text>
</g>
<!-- services_global_error_handler_error_codes&#45;&gt;services_global_error_handler_global_error_handler -->
<g id="edge6" class="edge">
<title>services_global_error_handler_error_codes&#45;&gt;services_global_error_handler_global_error_handler</title><style>.edge>path:hover{stroke-width:8}</style>
<path fill="none" stroke="black" d="M102.17,-218.79C102.17,-206.76 102.17,-191.31 102.17,-177.84"/>
<polygon fill="#000000" stroke="black" points="105.67,-177.57 102.17,-167.57 98.67,-177.57 105.67,-177.57"/>
</g>
<!-- utils -->
<g id="node11" class="node">
<title>utils</title><style>.edge>path:hover{stroke-width:8}</style>
<ellipse fill="#b13bce" stroke="black" cx="828.17" cy="-326.2" rx="27" ry="18"/>
<text text-anchor="middle" x="828.17" y="-323.7" font-family="Helvetica,sans-Serif" font-size="10.00" fill="#ffffff">utils</text>
</g>
<!-- utils&#45;&gt;plugins_base_plugin -->
<g id="edge7" class="edge">
<title>utils&#45;&gt;plugins_base_plugin</title><style>.edge>path:hover{stroke-width:8}</style>
<path fill="none" stroke="black" d="M633.61,-214.21C611.7,-201.71 590.87,-189.82 573,-179.63"/>
<polygon fill="#000000" stroke="black" points="574.59,-176.51 564.17,-174.59 571.12,-182.59 574.59,-176.51"/>
</g>
<!-- utils_configuarable -->
<g id="node12" class="node">
<title>utils_configuarable</title><style>.edge>path:hover{stroke-width:8}</style>
<ellipse fill="#a253b6" stroke="black" cx="739.17" cy="-326.2" rx="43.62" ry="18"/>
<text text-anchor="middle" x="739.17" y="-323.7" font-family="Helvetica,sans-Serif" font-size="10.00" fill="#ffffff">configuarable</text>
</g>
<!-- utils_logger -->
<g id="node13" class="node">
<title>utils_logger</title><style>.edge>path:hover{stroke-width:8}</style>
<ellipse fill="#9f3db8" stroke="black" cx="484.17" cy="-240.2" rx="27" ry="18"/>
<text text-anchor="middle" x="484.17" y="-237.7" font-family="Helvetica,sans-Serif" font-size="10.00" fill="#ffffff">logger</text>
</g>
<!-- utils_logic -->
<g id="node14" class="node">
<title>utils_logic</title><style>.edge>path:hover{stroke-width:8}</style>
<ellipse fill="#a253b6" stroke="black" cx="650.17" cy="-326.2" rx="27" ry="18"/>
<text text-anchor="middle" x="650.17" y="-323.7" font-family="Helvetica,sans-Serif" font-size="10.00" fill="#ffffff">logic</text>
</g>
<!-- utils_logic_timer -->
<g id="node15" class="node">
<title>utils_logic_timer</title><style>.edge>path:hover{stroke-width:8}</style>
<ellipse fill="#a253b6" stroke="black" cx="569.17" cy="-326.2" rx="36.49" ry="18"/>
<text text-anchor="middle" x="569.17" y="-323.7" font-family="Helvetica,sans-Serif" font-size="10.00" fill="#ffffff">logic.timer</text>
</g>
<!-- utils_settings -->
<g id="node16" class="node">
<title>utils_settings</title><style>.edge>path:hover{stroke-width:8}</style>
<ellipse fill="#a253b6" stroke="black" cx="484.17" cy="-326.2" rx="30.04" ry="18"/>
<text text-anchor="middle" x="484.17" y="-323.7" font-family="Helvetica,sans-Serif" font-size="10.00" fill="#ffffff">settings</text>
</g>
<!-- utils_settings&#45;&gt;utils_logger -->
<g id="edge8" class="edge">
<title>utils_settings&#45;&gt;utils_logger</title><style>.edge>path:hover{stroke-width:8}</style>
<path fill="none" stroke="black" d="M484.17,-307.79C484.17,-296.46 484.17,-281.43 484.17,-268.52"/>
<polygon fill="#000000" stroke="black" points="487.67,-268.3 484.17,-258.3 480.67,-268.3 487.67,-268.3"/>
</g>
</g>
</svg>
