<?xml version="1.0" encoding="UTF-8" standalone="no"?>
<!DOCTYPE svg PUBLIC "-//W3C//DTD SVG 1.1//EN"
 "http://www.w3.org/Graphics/SVG/1.1/DTD/svg11.dtd">
<!-- Generated by graphviz version 2.50.0 (20211204.2007)
 -->
<!-- Title: G Pages: 1 -->
<svg width="1342pt" height="875pt"
 viewBox="0.00 0.00 1342.29 874.71" xmlns="http://www.w3.org/2000/svg" xmlns:xlink="http://www.w3.org/1999/xlink">
<g id="graph0" class="graph" transform="scale(1 1) rotate(0) translate(4 870.71)">
<title>G</title><style>.edge>path:hover{stroke-width:8}</style>
<polygon fill="white" stroke="transparent" points="-4,4 -4,-870.71 1338.29,-870.71 1338.29,4 -4,4"/>
<g id="clust2" class="cluster">
<title>cluster_data</title><style>.edge>path:hover{stroke-width:8}</style>
<polygon fill="none" stroke="black" points="176.29,-630.28 176.29,-777.28 534.29,-777.28 534.29,-630.28 176.29,-630.28"/>
<text text-anchor="middle" x="355.29" y="-762.08" font-family="Times New Roman,serif" font-size="14.00">data</text>
</g>
<g id="clust3" class="cluster">
<title>cluster_plugins</title><style>.edge>path:hover{stroke-width:8}</style>
<polygon fill="none" stroke="black" points="726.29,-8 726.29,-264 832.29,-264 832.29,-8 726.29,-8"/>
<text text-anchor="middle" x="779.29" y="-248.8" font-family="Times New Roman,serif" font-size="14.00">plugins</text>
</g>
<g id="clust1" class="cluster">
<title>cluster_collections</title><style>.edge>path:hover{stroke-width:8}</style>
<polygon fill="none" stroke="black" points="302.29,-272 302.29,-353.43 412.29,-353.43 412.29,-272 302.29,-272"/>
<text text-anchor="middle" x="357.29" y="-338.23" font-family="Times New Roman,serif" font-size="14.00">collections</text>
</g>
<g id="clust5" class="cluster">
<title>cluster_utils</title><style>.edge>path:hover{stroke-width:8}</style>
<polygon fill="none" stroke="black" points="542.29,-702.28 542.29,-858.71 1326.29,-858.71 1326.29,-702.28 542.29,-702.28"/>
<text text-anchor="middle" x="934.29" y="-843.51" font-family="Times New Roman,serif" font-size="14.00">utils</text>
</g>
<g id="clust4" class="cluster">
<title>cluster_services</title><style>.edge>path:hover{stroke-width:8}</style>
<polygon fill="none" stroke="black" points="270.29,-462.43 270.29,-622.28 658.29,-622.28 658.29,-462.43 270.29,-462.43"/>
<text text-anchor="middle" x="464.29" y="-607.08" font-family="Times New Roman,serif" font-size="14.00">services</text>
</g>
<!-- collections_deque -->
<g id="node1" class="node">
<title>collections_deque</title><style>.edge>path:hover{stroke-width:8}</style>
<ellipse fill="#b65353" stroke="black" cx="357.29" cy="-301.21" rx="46.84" ry="21.43"/>
<text text-anchor="middle" x="357.29" y="-304.21" font-family="Helvetica,sans-Serif" font-size="10.00" fill="#ffffff">collections.</text>
<text text-anchor="middle" x="357.29" y="-293.21" font-family="Helvetica,sans-Serif" font-size="10.00" fill="#ffffff">deque</text>
</g>
<!-- plugins_hvac_zone -->
<g id="node9" class="node">
<title>plugins_hvac_zone</title><style>.edge>path:hover{stroke-width:8}</style>
<ellipse fill="#267373" stroke="black" cx="769.29" cy="-106" rx="35.14" ry="18"/>
<text text-anchor="middle" x="769.29" y="-103.5" font-family="Helvetica,sans-Serif" font-size="10.00" fill="#ffffff">hvac.zone</text>
</g>
<!-- collections_deque&#45;&gt;plugins_hvac_zone -->
<g id="edge1" class="edge">
<title>collections_deque&#45;&gt;plugins_hvac_zone</title><style>.edge>path:hover{stroke-width:8}</style>
<path fill="none" stroke="black" d="M361.34,-272C367.56,-239.57 382.76,-187.3 418.29,-160 465.33,-123.86 640.12,-112.1 723.92,-108.49"/>
<polygon fill="#000000" stroke="black" points="717.06,-113.26 726.29,-108.07 715.84,-106.37 717.06,-113.26"/>
</g>
<!-- data -->
<g id="node2" class="node">
<title>data</title><style>.edge>path:hover{stroke-width:8}</style>
<ellipse fill="#dbdb2f" stroke="black" cx="499.29" cy="-728.28" rx="27" ry="18"/>
<text text-anchor="middle" x="499.29" y="-725.78" font-family="Helvetica,sans-Serif" font-size="10.00" fill="#000000">data</text>
</g>
<!-- data&#45;&gt;plugins_hvac_zone -->
<g id="edge3" class="edge">
<title>data&#45;&gt;plugins_hvac_zone</title><style>.edge>path:hover{stroke-width:8}</style>
<path fill="none" stroke="black" d="M534.29,-704.24C535.63,-703.55 536.97,-702.9 538.29,-702.28 576.27,-684.59 592.65,-696.29 628.29,-674.28 679.58,-642.6 716.29,-631.35 716.29,-571.07 716.29,-571.07 716.29,-571.07 716.29,-214 716.29,-202.59 718.74,-191.15 722.59,-180.21"/>
<polygon fill="#000000" stroke="black" points="725.91,-181.32 726.3,-170.73 719.39,-178.77 725.91,-181.32"/>
</g>
<!-- services_global_error_handler_global_error_handler -->
<g id="node13" class="node">
<title>services_global_error_handler_global_error_handler</title><style>.edge>path:hover{stroke-width:8}</style>
<ellipse fill="#3535a1" stroke="black" cx="574.29" cy="-491.64" rx="75.82" ry="21.43"/>
<text text-anchor="middle" x="574.29" y="-494.64" font-family="Helvetica,sans-Serif" font-size="10.00" fill="#ffffff">global_error_handler.</text>
<text text-anchor="middle" x="574.29" y="-483.64" font-family="Helvetica,sans-Serif" font-size="10.00" fill="#ffffff">global_error_handler</text>
</g>
<!-- data&#45;&gt;services_global_error_handler_global_error_handler -->
<g id="edge4" class="edge">
<title>data&#45;&gt;services_global_error_handler_global_error_handler</title><style>.edge>path:hover{stroke-width:8}</style>
<path fill="none" stroke="black" d="M534.29,-704.6C581.11,-674.23 658.41,-623.91 659.29,-622.28 673.16,-596.59 674.58,-581.11 662.95,-556.26"/>
<polygon fill="#000000" stroke="black" points="665.93,-554.4 658.29,-547.05 659.68,-557.56 665.93,-554.4"/>
</g>
<!-- devices -->
<g id="node23" class="node">
<title>devices</title><style>.edge>path:hover{stroke-width:8}</style>
<polygon fill="#3bce3b" stroke="black" points="194.29,-397.43 191.29,-401.43 170.29,-401.43 167.29,-397.43 140.29,-397.43 140.29,-361.43 194.29,-361.43 194.29,-397.43"/>
<text text-anchor="middle" x="167.29" y="-376.93" font-family="Helvetica,sans-Serif" font-size="10.00" fill="#000000">devices</text>
</g>
<!-- data&#45;&gt;devices -->
<g id="edge2" class="edge">
<title>data&#45;&gt;devices</title><style>.edge>path:hover{stroke-width:8}</style>
<path fill="none" stroke="black" d="M274.69,-630.28C271.92,-627.78 269.13,-625.12 266.29,-622.28 202.42,-558.2 225.2,-516.9 190.29,-433.43 186.68,-424.78 182.64,-415.38 178.97,-406.94"/>
<polygon fill="#000000" stroke="black" points="182.08,-405.32 174.87,-397.56 175.67,-408.13 182.08,-405.32"/>
</g>
<!-- data_register -->
<g id="node3" class="node">
<title>data_register</title><style>.edge>path:hover{stroke-width:8}</style>
<ellipse fill="#c2c247" stroke="black" cx="425.29" cy="-728.28" rx="28.69" ry="18"/>
<text text-anchor="middle" x="425.29" y="-725.78" font-family="Helvetica,sans-Serif" font-size="10.00" fill="#000000">register</text>
</g>
<!-- data_registers -->
<g id="node4" class="node">
<title>data_registers</title><style>.edge>path:hover{stroke-width:8}</style>
<ellipse fill="#88883a" stroke="black" cx="216.29" cy="-656.28" rx="31.58" ry="18"/>
<text text-anchor="middle" x="216.29" y="-653.78" font-family="Helvetica,sans-Serif" font-size="10.00" fill="#ffffff">registers</text>
</g>
<!-- data_register&#45;&gt;data_registers -->
<g id="edge5" class="edge">
<title>data_register&#45;&gt;data_registers</title><style>.edge>path:hover{stroke-width:8}</style>
<path fill="none" stroke="black" d="M407.88,-713.92C401.66,-709.67 394.42,-705.3 387.29,-702.28 334.88,-680.05 316.9,-690.41 262.29,-674.28 258.74,-673.23 255.06,-672.04 251.4,-670.8"/>
<polygon fill="#000000" stroke="black" points="252.47,-667.47 241.88,-667.42 250.14,-674.06 252.47,-667.47"/>
</g>
<!-- data_registers&#45;&gt;devices -->
<g id="edge6" class="edge">
<title>data_registers&#45;&gt;devices</title><style>.edge>path:hover{stroke-width:8}</style>
<path fill="none" stroke="black" d="M211.84,-630.28C202.64,-578.71 181.64,-460.89 172.13,-407.55"/>
<polygon fill="#000000" stroke="black" points="175.56,-406.84 170.36,-397.61 168.67,-408.07 175.56,-406.84"/>
</g>
<!-- data_thermal_mode -->
<g id="node5" class="node">
<title>data_thermal_mode</title><style>.edge>path:hover{stroke-width:8}</style>
<ellipse fill="#b6b653" stroke="black" cx="332.29" cy="-728.28" rx="45.83" ry="18"/>
<text text-anchor="middle" x="332.29" y="-725.78" font-family="Helvetica,sans-Serif" font-size="10.00" fill="#000000">thermal_mode</text>
</g>
<!-- data_verbal_const -->
<g id="node6" class="node">
<title>data_verbal_const</title><style>.edge>path:hover{stroke-width:8}</style>
<ellipse fill="#b6b653" stroke="black" cx="226.29" cy="-728.28" rx="41.59" ry="18"/>
<text text-anchor="middle" x="226.29" y="-725.78" font-family="Helvetica,sans-Serif" font-size="10.00" fill="#000000">verbal_const</text>
</g>
<!-- plugins_base_plugin -->
<g id="node7" class="node">
<title>plugins_base_plugin</title><style>.edge>path:hover{stroke-width:8}</style>
<ellipse fill="#3ab0b0" stroke="black" cx="784.29" cy="-215" rx="40.06" ry="18"/>
<text text-anchor="middle" x="784.29" y="-212.5" font-family="Helvetica,sans-Serif" font-size="10.00" fill="#000000">base_plugin</text>
</g>
<!-- plugins_hvac_hvac -->
<g id="node8" class="node">
<title>plugins_hvac_hvac</title><style>.edge>path:hover{stroke-width:8}</style>
<ellipse fill="#3d8f8f" stroke="black" cx="769.29" cy="-34" rx="34.96" ry="18"/>
<text text-anchor="middle" x="769.29" y="-31.5" font-family="Helvetica,sans-Serif" font-size="10.00" fill="#ffffff">hvac.hvac</text>
</g>
<!-- plugins_base_plugin&#45;&gt;plugins_hvac_hvac -->
<g id="edge8" class="edge">
<title>plugins_base_plugin&#45;&gt;plugins_hvac_hvac</title><style>.edge>path:hover{stroke-width:8}</style>
<path fill="none" stroke="black" d="M794.07,-197.33C807.1,-172.86 827.01,-126 813.29,-88 809.19,-76.63 801.47,-65.98 793.63,-57.25"/>
<polygon fill="#000000" stroke="black" points="795.94,-54.6 786.49,-49.81 790.89,-59.45 795.94,-54.6"/>
</g>
<!-- plugins_base_plugin&#45;&gt;plugins_hvac_zone -->
<g id="edge9" class="edge">
<title>plugins_base_plugin&#45;&gt;plugins_hvac_zone</title><style>.edge>path:hover{stroke-width:8}</style>
<path fill="none" stroke="black" d="M781.88,-196.81C779.51,-179.88 775.85,-153.78 773.09,-134.07"/>
<polygon fill="#000000" stroke="black" points="776.55,-133.57 771.7,-124.15 769.62,-134.54 776.55,-133.57"/>
</g>
<!-- plugins_hvac_zone&#45;&gt;plugins_hvac_hvac -->
<g id="edge10" class="edge">
<title>plugins_hvac_zone&#45;&gt;plugins_hvac_hvac</title><style>.edge>path:hover{stroke-width:8}</style>
<path fill="none" stroke="black" d="M769.29,-87.7C769.29,-79.98 769.29,-70.71 769.29,-62.11"/>
<polygon fill="#000000" stroke="black" points="772.79,-62.1 769.29,-52.1 765.79,-62.1 772.79,-62.1"/>
</g>
<!-- services -->
<g id="node10" class="node">
<title>services</title><style>.edge>path:hover{stroke-width:8}</style>
<ellipse fill="#3b3bce" stroke="black" cx="309.29" cy="-570.07" rx="30.72" ry="18"/>
<text text-anchor="middle" x="309.29" y="-567.57" font-family="Helvetica,sans-Serif" font-size="10.00" fill="#ffffff">services</text>
</g>
<!-- services&#45;&gt;data_registers -->
<g id="edge11" class="edge">
<title>services&#45;&gt;data_registers</title><style>.edge>path:hover{stroke-width:8}</style>
<path fill="none" stroke="black" d="M270.3,-606.38C264.12,-611.97 257.76,-617.73 251.67,-623.24"/>
<polygon fill="#000000" stroke="black" points="248.96,-620.97 243.9,-630.28 253.66,-626.16 248.96,-620.97"/>
</g>
<!-- services&#45;&gt;plugins_hvac_zone -->
<g id="edge12" class="edge">
<title>services&#45;&gt;plugins_hvac_zone</title><style>.edge>path:hover{stroke-width:8}</style>
<path fill="none" stroke="black" d="M456.89,-462.43C465.23,-452.27 470.29,-442.7 470.29,-434.43 470.29,-434.43 470.29,-434.43 470.29,-214 470.29,-160.41 642.7,-126.51 725.68,-113.3"/>
<polygon fill="#000000" stroke="black" points="721.13,-122 726.29,-112.75 716.49,-116.77 721.13,-122"/>
</g>
<!-- services_global_error_handler -->
<g id="node11" class="node">
<title>services_global_error_handler</title><style>.edge>path:hover{stroke-width:8}</style>
<ellipse fill="#3b3bce" stroke="black" cx="419.29" cy="-570.07" rx="61.44" ry="18"/>
<text text-anchor="middle" x="419.29" y="-567.57" font-family="Helvetica,sans-Serif" font-size="10.00" fill="#ffffff">global_error_handler</text>
</g>
<!-- services_global_error_handler_error_codes -->
<g id="node12" class="node">
<title>services_global_error_handler_error_codes</title><style>.edge>path:hover{stroke-width:8}</style>
<ellipse fill="#5353b6" stroke="black" cx="574.29" cy="-570.07" rx="75.82" ry="21.43"/>
<text text-anchor="middle" x="574.29" y="-573.07" font-family="Helvetica,sans-Serif" font-size="10.00" fill="#ffffff">global_error_handler.</text>
<text text-anchor="middle" x="574.29" y="-562.07" font-family="Helvetica,sans-Serif" font-size="10.00" fill="#ffffff">error_codes</text>
</g>
<!-- services_global_error_handler_error_codes&#45;&gt;services_global_error_handler_global_error_handler -->
<g id="edge13" class="edge">
<title>services_global_error_handler_error_codes&#45;&gt;services_global_error_handler_global_error_handler</title><style>.edge>path:hover{stroke-width:8}</style>
<path fill="none" stroke="black" d="M574.29,-548.59C574.29,-540.73 574.29,-531.58 574.29,-522.99"/>
<polygon fill="#000000" stroke="black" points="577.79,-522.91 574.29,-512.91 570.79,-522.91 577.79,-522.91"/>
</g>
<!-- utils -->
<g id="node14" class="node">
<title>utils</title><style>.edge>path:hover{stroke-width:8}</style>
<ellipse fill="#f910f9" stroke="black" cx="1107.29" cy="-806.49" rx="27" ry="18"/>
<text text-anchor="middle" x="1107.29" y="-803.99" font-family="Helvetica,sans-Serif" font-size="10.00" fill="#ffffff">utils</text>
</g>
<!-- utils&#45;&gt;data_registers -->
<g id="edge14" class="edge">
<title>utils&#45;&gt;data_registers</title><style>.edge>path:hover{stroke-width:8}</style>
<path fill="none" stroke="black" d="M542.3,-783.18C350.47,-782.56 179.15,-781.17 175.29,-777.28 154.12,-755.92 161.36,-737.35 172.55,-709.33"/>
<polygon fill="#000000" stroke="black" points="175.87,-710.46 176.29,-699.88 169.36,-707.89 175.87,-710.46"/>
</g>
<!-- utils&#45;&gt;plugins_base_plugin -->
<g id="edge16" class="edge">
<title>utils&#45;&gt;plugins_base_plugin</title><style>.edge>path:hover{stroke-width:8}</style>
<path fill="none" stroke="black" d="M1073.88,-702.28C1071.08,-687.33 1069.29,-672.02 1069.29,-657.28 1069.29,-657.28 1069.29,-657.28 1069.29,-378.43 1069.29,-270.84 914.08,-233.58 832.74,-221.45"/>
<polygon fill="#000000" stroke="black" points="841.98,-225.33 832.29,-221.03 837.19,-230.43 841.98,-225.33"/>
</g>
<!-- utils&#45;&gt;devices -->
<g id="edge15" class="edge">
<title>utils&#45;&gt;devices</title><style>.edge>path:hover{stroke-width:8}</style>
<path fill="none" stroke="black" d="M542.3,-784.64C345.22,-785 166.45,-783.99 157.29,-777.28 112.07,-744.12 118.29,-713.36 118.29,-657.28 118.29,-657.28 118.29,-657.28 118.29,-490.64 118.29,-459.67 134.64,-427.71 148.45,-406.23"/>
<polygon fill="#000000" stroke="black" points="151.51,-407.96 154.16,-397.7 145.69,-404.06 151.51,-407.96"/>
</g>
<!-- utils_configuarable -->
<g id="node15" class="node">
<title>utils_configuarable</title><style>.edge>path:hover{stroke-width:8}</style>
<ellipse fill="#b653b6" stroke="black" cx="1196.29" cy="-806.49" rx="43.62" ry="18"/>
<text text-anchor="middle" x="1196.29" y="-803.99" font-family="Helvetica,sans-Serif" font-size="10.00" fill="#ffffff">configuarable</text>
</g>
<!-- utils_logger -->
<g id="node16" class="node">
<title>utils_logger</title><style>.edge>path:hover{stroke-width:8}</style>
<ellipse fill="#dd18dd" stroke="black" cx="940.29" cy="-728.28" rx="27" ry="18"/>
<text text-anchor="middle" x="940.29" y="-725.78" font-family="Helvetica,sans-Serif" font-size="10.00" fill="#ffffff">logger</text>
</g>
<!-- utils_logger&#45;&gt;devices -->
<g id="edge17" class="edge">
<title>utils_logger&#45;&gt;devices</title><style>.edge>path:hover{stroke-width:8}</style>
<path fill="none" stroke="black" d="M891.7,-702.28C848.22,-676.05 791.29,-630.37 791.29,-571.07 791.29,-571.07 791.29,-571.07 791.29,-490.64 791.29,-430.73 339.42,-392.97 204.74,-383.05"/>
<polygon fill="#000000" stroke="black" points="204.74,-379.54 194.51,-382.3 204.23,-386.52 204.74,-379.54"/>
</g>
<!-- utils_logic -->
<g id="node17" class="node">
<title>utils_logic</title><style>.edge>path:hover{stroke-width:8}</style>
<ellipse fill="#ce3bce" stroke="black" cx="667.29" cy="-806.49" rx="27" ry="18"/>
<text text-anchor="middle" x="667.29" y="-803.99" font-family="Helvetica,sans-Serif" font-size="10.00" fill="#ffffff">logic</text>
</g>
<!-- utils_logic&#45;&gt;devices -->
<g id="edge18" class="edge">
<title>utils_logic&#45;&gt;devices</title><style>.edge>path:hover{stroke-width:8}</style>
<path fill="none" stroke="black" d="M542.3,-783.73C385.28,-783.22 75.42,-784.87 66.29,-777.28 24.48,-742.5 42.29,-711.67 42.29,-657.28 42.29,-657.28 42.29,-657.28 42.29,-490.64 42.29,-463.06 47.65,-453.75 66.29,-433.43 83.71,-414.45 109.5,-401.07 130.66,-392.5"/>
<polygon fill="#000000" stroke="black" points="131.94,-395.76 140.01,-388.9 129.42,-389.23 131.94,-395.76"/>
</g>
<!-- utils_logic_functions -->
<g id="node18" class="node">
<title>utils_logic_functions</title><style>.edge>path:hover{stroke-width:8}</style>
<ellipse fill="#b653b6" stroke="black" cx="1022.29" cy="-806.49" rx="39.7" ry="21.43"/>
<text text-anchor="middle" x="1022.29" y="-809.49" font-family="Helvetica,sans-Serif" font-size="10.00" fill="#ffffff">logic.</text>
<text text-anchor="middle" x="1022.29" y="-798.49" font-family="Helvetica,sans-Serif" font-size="10.00" fill="#ffffff">functions</text>
</g>
<!-- utils_logic_state_machine -->
<g id="node19" class="node">
<title>utils_logic_state_machine</title><style>.edge>path:hover{stroke-width:8}</style>
<ellipse fill="#ce3bce" stroke="black" cx="908.29" cy="-806.49" rx="56.64" ry="21.43"/>
<text text-anchor="middle" x="908.29" y="-809.49" font-family="Helvetica,sans-Serif" font-size="10.00" fill="#ffffff">logic.</text>
<text text-anchor="middle" x="908.29" y="-798.49" font-family="Helvetica,sans-Serif" font-size="10.00" fill="#ffffff">state_machine</text>
</g>
<!-- utils_logic_state_machine&#45;&gt;devices -->
<g id="edge19" class="edge">
<title>utils_logic_state_machine&#45;&gt;devices</title><style>.edge>path:hover{stroke-width:8}</style>
<path fill="none" stroke="black" d="M542.3,-784.93C341.67,-785.25 113.23,-784.68 104.29,-777.28 62.42,-742.57 80.29,-711.67 80.29,-657.28 80.29,-657.28 80.29,-657.28 80.29,-490.64 80.29,-454.94 108.76,-424.02 133.13,-404.09"/>
<polygon fill="#000000" stroke="black" points="135.49,-406.69 141.19,-397.76 131.16,-401.18 135.49,-406.69"/>
</g>
<!-- utils_logic_temp_processor -->
<g id="node20" class="node">
<title>utils_logic_temp_processor</title><style>.edge>path:hover{stroke-width:8}</style>
<ellipse fill="#b653b6" stroke="black" cx="773.29" cy="-806.49" rx="60.62" ry="21.43"/>
<text text-anchor="middle" x="773.29" y="-809.49" font-family="Helvetica,sans-Serif" font-size="10.00" fill="#ffffff">logic.</text>
<text text-anchor="middle" x="773.29" y="-798.49" font-family="Helvetica,sans-Serif" font-size="10.00" fill="#ffffff">temp_processor</text>
</g>
<!-- utils_logic_timer -->
<g id="node21" class="node">
<title>utils_logic_timer</title><style>.edge>path:hover{stroke-width:8}</style>
<ellipse fill="#ce3bce" stroke="black" cx="586.29" cy="-806.49" rx="36.49" ry="18"/>
<text text-anchor="middle" x="586.29" y="-803.99" font-family="Helvetica,sans-Serif" font-size="10.00" fill="#ffffff">logic.timer</text>
</g>
<!-- utils_logic_timer&#45;&gt;devices -->
<g id="edge20" class="edge">
<title>utils_logic_timer&#45;&gt;devices</title><style>.edge>path:hover{stroke-width:8}</style>
<path fill="none" stroke="black" d="M542.3,-804.73C413.93,-802.32 47.66,-793.99 28.29,-777.28 -12.88,-741.75 4.29,-711.67 4.29,-657.28 4.29,-657.28 4.29,-657.28 4.29,-490.64 4.29,-463.06 8.48,-452.6 28.29,-433.43 56.23,-406.4 99.35,-392.83 130.16,-386.24"/>
<polygon fill="#000000" stroke="black" points="130.97,-389.65 140.09,-384.26 129.6,-382.78 130.97,-389.65"/>
</g>
<!-- utils_settings -->
<g id="node22" class="node">
<title>utils_settings</title><style>.edge>path:hover{stroke-width:8}</style>
<ellipse fill="#b653b6" stroke="black" cx="1288.29" cy="-806.49" rx="30.04" ry="18"/>
<text text-anchor="middle" x="1288.29" y="-803.99" font-family="Helvetica,sans-Serif" font-size="10.00" fill="#ffffff">settings</text>
</g>
<!-- utils_settings&#45;&gt;utils_logger -->
<g id="edge21" class="edge">
<title>utils_settings&#45;&gt;utils_logger</title><style>.edge>path:hover{stroke-width:8}</style>
<path fill="none" stroke="black" d="M1267.35,-793.18C1261.64,-790.23 1255.36,-787.35 1249.29,-785.28 1154.33,-752.89 1036.2,-738.13 977.3,-732.39"/>
<polygon fill="#000000" stroke="black" points="977.29,-728.87 967.01,-731.42 976.64,-735.84 977.29,-728.87"/>
</g>
<!-- devices&#45;&gt;plugins_hvac_zone -->
<g id="edge7" class="edge">
<title>devices&#45;&gt;plugins_hvac_zone</title><style>.edge>path:hover{stroke-width:8}</style>
<path fill="none" stroke="black" d="M194.59,-377.48C255.82,-375.12 400.08,-368.04 416.29,-353.43 481.51,-294.66 393.11,-220.94 456.29,-160 493.76,-123.87 646.31,-112.2 723.74,-108.57"/>
<polygon fill="#3bce3b" stroke="black" points="717.07,-113.33 726.29,-108.11 715.83,-106.44 717.07,-113.33"/>
</g>
</g>
</svg>
